<?xml version="1.0" encoding="UTF-8" standalone="no"?><!DOCTYPE svg PUBLIC "-//W3C//DTD SVG 1.1//EN" "http://www.w3.org/Graphics/SVG/1.1/DTD/svg11.dtd"><svg width="100%" height="100%" viewBox="0 0 1296 1334" version="1.1" xmlns="http://www.w3.org/2000/svg" xmlns:xlink="http://www.w3.org/1999/xlink" xml:space="preserve" xmlns:serif="http://www.serif.com/" style="fill-rule:evenodd;clip-rule:evenodd;stroke-linecap:square;stroke-miterlimit:1.5;"><g><g id="Weather-Hexflower" serif:id="Weather Hexflower"><g><path d="M417.102,716.857l59.056,-102.286l118.109,0l59.055,102.286l-59.055,102.286l-118.109,0l-59.056,-102.286Z" style="fill:#b1bc1f;stroke:#572222;stroke-width:10.41px;"/></g><g><path d="M417.102,512.287l59.056,-102.286l118.109,0l59.055,102.286l-59.055,102.286l-118.109,0l-59.056,-102.286Z" style="fill:#c3ba9e;stroke:#572222;stroke-width:10.41px;"/></g><g><path d="M239.937,614.577l59.056,-102.286l118.109,0l59.055,102.286l-59.055,102.286l-118.109,0l-59.056,-102.286Z" style="fill:#c3ba9e;stroke:#572222;stroke-width:10.41px;"/></g><g><path d="M239.937,819.147l59.056,-102.286l118.109,0l59.055,102.286l-59.055,102.286l-118.109,0l-59.056,-102.286Z" style="fill:#c3ba9e;stroke:#572222;stroke-width:10.41px;"/></g><g><path d="M417.102,921.437l59.056,-102.286l118.109,0l59.055,102.286l-59.055,102.286l-118.109,0l-59.056,-102.286Z" style="fill:#c3ba9e;stroke:#572222;stroke-width:10.41px;"/></g><g><path d="M430.424,921.437l52.395,-90.748l104.787,-0l52.394,90.748l-52.394,90.749l-104.787,-0l-52.395,-90.749Z" style="fill:#c3ba9e;stroke:#572222;stroke-width:3px;"/></g><g><path d="M594.269,819.147l59.056,-102.286l118.109,0l59.055,102.286l-59.055,102.286l-118.109,0l-59.056,-102.286Z" style="fill:#c3ba9e;stroke:#572222;stroke-width:10.41px;"/></g><g><path d="M594.269,614.577l59.056,-102.286l118.109,0l59.055,102.286l-59.055,102.286l-118.109,0l-59.056,-102.286Z" style="fill:#c3ba9e;stroke:#572222;stroke-width:10.41px;"/></g><g><path d="M594.269,410.007l59.056,-102.286l118.109,0l59.055,102.286l-59.055,102.286l-118.109,0l-59.056,-102.286Z" style="fill:#c3ba9e;stroke:#572222;stroke-width:10.41px;"/></g><g><path d="M417.102,307.717l59.056,-102.286l118.109,0l59.055,102.286l-59.055,102.286l-118.109,0l-59.056,-102.286Z" style="fill:#b1bc1f;stroke:#572222;stroke-width:10.41px;"/></g><g><path d="M239.937,410.007l59.056,-102.286l118.109,0l59.055,102.286l-59.055,102.286l-118.109,0l-59.056,-102.286Z" style="fill:#c3ba9e;stroke:#572222;stroke-width:10.41px;"/></g><g><path d="M62.771,512.287l59.056,-102.286l118.109,0l59.055,102.286l-59.055,102.286l-118.109,0l-59.056,-102.286Z" style="fill:#b1bc1f;stroke:#572222;stroke-width:10.41px;"/></g><g><path d="M62.771,716.857l59.056,-102.286l118.109,0l59.055,102.286l-59.055,102.286l-118.109,0l-59.056,-102.286Z" style="fill:#c3ba9e;stroke:#572222;stroke-width:10.41px;"/></g><g><path d="M62.771,921.437l59.056,-102.286l118.109,0l59.055,102.286l-59.055,102.286l-118.109,0l-59.056,-102.286Z" style="fill:#c3ba9e;stroke:#572222;stroke-width:10.41px;"/></g><g><path d="M239.937,1023.72l59.056,-102.286l118.109,0l59.055,102.286l-59.055,102.286l-118.109,0l-59.056,-102.286Z" style="fill:#c3ba9e;stroke:#572222;stroke-width:10.41px;"/></g><g><path d="M417.102,1126.01l59.056,-102.286l118.109,0l59.055,102.286l-59.055,102.286l-118.109,0l-59.056,-102.286Z" style="fill:#c3ba9e;stroke:#572222;stroke-width:10.41px;"/></g><g><path d="M594.269,1023.72l59.056,-102.286l118.109,0l59.055,102.286l-59.055,102.286l-118.109,0l-59.056,-102.286Z" style="fill:#c3ba9e;stroke:#572222;stroke-width:10.41px;"/></g><g><path d="M771.429,921.437l59.056,-102.286l118.109,0l59.055,102.286l-59.055,102.286l-118.109,0l-59.056,-102.286Z" style="fill:#c3ba9e;stroke:#572222;stroke-width:10.41px;"/></g><g><path d="M771.429,716.857l59.056,-102.286l118.109,0l59.055,102.286l-59.055,102.286l-118.109,0l-59.056,-102.286Z" style="fill:#c3ba9e;stroke:#572222;stroke-width:10.41px;"/></g><g><path d="M771.429,512.287l59.056,-102.286l118.109,0l59.055,102.286l-59.055,102.286l-118.109,0l-59.056,-102.286Z" style="fill:#b1bc1f;stroke:#572222;stroke-width:10.41px;"/></g><g><g><path d="M948.599,205.427l59.056,-102.286l118.109,0l59.055,102.286l-59.055,102.286l-118.109,0l-59.056,-102.286Z" style="fill:#c3ba9e;stroke:#572222;stroke-width:10.41px;"/></g><g><text x="943.22px" y="273.958px" style="font-family:'ArialMT', 'Arial', sans-serif;font-size:33.333px;fill:#2d2432;">2</text></g><g><text x="950.706px" y="153.535px" style="font-family:'ArialMT', 'Arial', sans-serif;font-size:33.333px;fill:#2d2432;">5</text></g><g><text x="1168.75px" y="279.593px" style="font-family:'ArialMT', 'Arial', sans-serif;font-size:33.333px;fill:#2d2432;">6</text></g><g><text x="1162.98px" y="153.958px" style="font-family:'ArialMT', 'Arial', sans-serif;font-size:33.333px;fill:#2d2432;">3</text></g><g><text x="1053.07px" y="341.93px" style="font-family:'ArialMT', 'Arial', sans-serif;font-size:33.333px;fill:#2d2432;">4</text></g><g><text x="1039.78px" y="89.619px" style="font-family:'ArialMT', 'Arial', sans-serif;font-size:33.333px;fill:#2d2432;">8,1</text></g><g><text x="1058.42px" y="213.551px" style="font-family:'ArialMT', 'Arial', sans-serif;font-size:33.333px;fill:#2d2432;">7</text></g></g></g><g id="Autumn-Labels" serif:id="Autumn Labels"><g><text x="506.5px" y="302.445px" style="font-family:'ArialMT', 'Arial', sans-serif;font-size:33.333px;fill:#2d2432;">Hail</text><text x="490.76px" y="336.869px" style="font-family:'ArialMT', 'Arial', sans-serif;font-size:33.333px;fill:#2d2432;">Storm</text></g><g transform="matrix(1,0,0,1,461.099,711.96)"><text x="22.237px" y="0px" style="font-family:'ArialMT', 'Arial', sans-serif;font-size:33.333px;fill:#2d2432;">Season</text><text x="20.381px" y="33.333px" style="font-family:'ArialMT', 'Arial', sans-serif;font-size:33.333px;fill:#2d2432;">Change</text></g><g><text x="855.27px" y="507.018px" style="font-family:'ArialMT', 'Arial', sans-serif;font-size:33.333px;fill:#2d2432;">Rain</text><text x="845.09px" y="541.442px" style="font-family:'ArialMT', 'Arial', sans-serif;font-size:33.333px;fill:#2d2432;">Storm</text></g><g><g transform="matrix(1,0,0,1,143.024,506.209)"><text x="0px" y="0px" style="font-family:'ArialMT', 'Arial', sans-serif;font-size:36px;fill:#2d2432;">Leaf</text><text x="6.029px" y="36px" style="font-family:'ArialMT', 'Arial', sans-serif;font-size:36px;fill:#2d2432;">Fall</text></g></g><text x="489.51px" y="523.191px" style="font-family:'ArialMT', 'Arial', sans-serif;font-size:33.333px;fill:#2d2432;">Windy</text><g><text x="296.041px" y="421.944px" style="font-family:'ArialMT', 'Arial', sans-serif;font-size:33.333px;fill:#2d2432;">Freezing</text></g><g><text x="634.767px" y="421.944px" style="font-family:'ArialMT', 'Arial', sans-serif;font-size:33.333px;fill:#2d2432;">Downpour</text></g><g><text x="839.547px" y="728.8px" style="font-family:'ArialMT', 'Arial', sans-serif;font-size:33.333px;fill:#2d2432;">Drizzly</text></g><text x="843.22px" y="933.38px" style="font-family:'ArialMT', 'Arial', sans-serif;font-size:33.333px;fill:#2d2432;">Foggy</text><text x="130.857px" y="728.8px" style="font-family:'ArialMT', 'Arial', sans-serif;font-size:33.333px;fill:#2d2432;">Muddy</text><text x="136.424px" y="933.38px" style="font-family:'ArialMT', 'Arial', sans-serif;font-size:33.333px;fill:#2d2432;">Damp</text><text x="647.53px" y="626.517px" style="font-family:'ArialMT', 'Arial', sans-serif;font-size:33.333px;fill:#2d2432;">Showery</text><g><g><text x="327.076px" y="836.769px" style="font-family:'ArialMT', 'Arial', sans-serif;font-size:33.333px;fill:#2d2432;">W</text><text x="357.936px" y="836.769px" style="font-family:'ArialMT', 'Arial', sans-serif;font-size:33.333px;fill:#2d2432;">et</text></g></g><g><text x="498.175px" y="933.38px" style="font-family:'ArialMT', 'Arial', sans-serif;font-size:33.333px;fill:#2d2432;">Brisk</text></g><g><text x="498.177px" y="166.228px" style="font-family:'ArialMT', 'Arial', sans-serif;font-size:33.333px;fill:#2d2432;">Brisk</text></g><g><text x="673.491px" y="1038.5px" style="font-family:'ArialMT', 'Arial', sans-serif;font-size:33.333px;fill:#2d2432;">Misty</text></g><g><text x="317.999px" y="609.307px" style="font-family:'ArialMT', 'Arial', sans-serif;font-size:33.333px;fill:#2d2432;">Snow</text><text x="313.339px" y="643.727px" style="font-family:'ArialMT', 'Arial', sans-serif;font-size:33.333px;fill:#2d2432;">Laden</text></g><text x="313.09px" y="1035.66px" style="font-family:'ArialMT', 'Arial', sans-serif;font-size:33.333px;fill:#2d2432;">Dewy</text><g><text x="483.126px" y="1138.33px" style="font-family:'ArialMT', 'Arial', sans-serif;font-size:33.333px;fill:#2d2432;">Breezy</text></g><g><text x="645.696px" y="831.09px" style="font-family:'ArialMT', 'Arial', sans-serif;font-size:33.333px;fill:#2d2432;">Overcast</text></g><g><text x="492.59px" y="1291.38px" style="font-family:'ArialMT', 'Arial', sans-serif;font-size:33.333px;fill:#2d2432;">Event</text></g></g><g id="Weather-Navigation" serif:id="Weather Navigation"><g><g><path d="M523.489,191.53l11.719,-15.625l11.718,15.625l-23.437,0Z" style="fill:#2d2432;"/><path d="M535.208,234.96l0,-46.555" style="fill:none;stroke:#2d2432;stroke-width:10.42px;"/></g></g><g><path d="M369.738,321.611l-11.705,15.635l-11.733,-15.614l23.438,-0.021Z" style="fill:#2d2432;"/><path d="M472.202,271.339c-51.652,-31.077 -110.123,-1.516 -114.18,53.407" style="fill:none;stroke:#2d2432;stroke-width:10.42px;"/></g><g><g><path d="M724.118,321.632l-11.733,15.614l-11.705,-15.635l23.438,0.021Z" style="fill:#2d2432;"/><path d="M598.216,271.339c51.652,-31.077 110.123,-1.516 114.18,53.407" style="fill:none;stroke:#2d2432;stroke-width:10.42px;"/></g></g><g><g><path d="M546.932,1242.19l-11.718,15.63l-11.719,-15.63l23.437,0Z" style="fill:#2d2432;"/><path d="M535.214,1198.76l-0,46.56" style="fill:none;stroke:#2d2432;stroke-width:10.42px;"/></g></g></g></g></svg>