<?xml version="1.0" encoding="UTF-8" standalone="no"?>
<!DOCTYPE svg PUBLIC "-//W3C//DTD SVG 1.1//EN" "http://www.w3.org/Graphics/SVG/1.1/DTD/svg11.dtd">
<svg width="100%" height="100%" viewBox="0 0 1296 1334" version="1.1" xmlns="http://www.w3.org/2000/svg" xmlns:xlink="http://www.w3.org/1999/xlink" xml:space="preserve" xmlns:serif="http://www.serif.com/" style="fill-rule:evenodd;clip-rule:evenodd;stroke-linecap:square;stroke-miterlimit:1.5;">
    <g transform="matrix(1,0,0,1,-764,-306)">
        <g id="Weather-Hexflower" serif:id="Weather Hexflower">
            <g transform="matrix(6.10688e-17,-0.99733,0.99733,6.10688e-17,828.033,2247.02)">
                <path d="M1227.44,354.014L1330,413.228L1330,531.654L1227.44,590.867L1124.88,531.654L1124.88,413.228L1227.44,354.014Z" style="fill:rgb(177,188,31);stroke:rgb(87,34,34);stroke-width:10.44px;"/>
            </g>
            <g transform="matrix(6.10688e-17,-0.99733,0.99733,6.10688e-17,828.033,2042.45)">
                <path d="M1227.44,354.014L1330,413.228L1330,531.654L1227.44,590.867L1124.88,531.654L1124.88,413.228L1227.44,354.014Z" style="fill:rgb(195,186,158);stroke:rgb(87,34,34);stroke-width:10.44px;"/>
            </g>
            <g transform="matrix(6.10688e-17,-0.99733,0.99733,6.10688e-17,650.868,2144.74)">
                <path d="M1227.44,354.014L1330,413.228L1330,531.654L1227.44,590.867L1124.88,531.654L1124.88,413.228L1227.44,354.014Z" style="fill:rgb(195,186,158);stroke:rgb(87,34,34);stroke-width:10.44px;"/>
            </g>
            <g transform="matrix(6.10688e-17,-0.99733,0.99733,6.10688e-17,650.868,2349.31)">
                <path d="M1227.44,354.014L1330,413.228L1330,531.654L1227.44,590.867L1124.88,531.654L1124.88,413.228L1227.44,354.014Z" style="fill:rgb(195,186,158);stroke:rgb(87,34,34);stroke-width:10.44px;"/>
            </g>
            <g transform="matrix(6.10688e-17,-0.99733,0.99733,6.10688e-17,828.033,2451.6)">
                <path d="M1227.44,354.014L1330,413.228L1330,531.654L1227.44,590.867L1124.88,531.654L1124.88,413.228L1227.44,354.014Z" style="fill:rgb(195,186,158);stroke:rgb(87,34,34);stroke-width:10.44px;"/>
            </g>
            <g transform="matrix(6.10688e-17,-0.99733,0.99733,6.10688e-17,1005.2,2349.31)">
                <path d="M1227.44,354.014L1330,413.228L1330,531.654L1227.44,590.867L1124.88,531.654L1124.88,413.228L1227.44,354.014Z" style="fill:rgb(195,186,158);stroke:rgb(87,34,34);stroke-width:10.44px;"/>
            </g>
            <g transform="matrix(6.10688e-17,-0.99733,0.99733,6.10688e-17,1359.53,1735.59)">
                <path d="M1227.44,354.014L1330,413.228L1330,531.654L1227.44,590.867L1124.88,531.654L1124.88,413.228L1227.44,354.014Z" style="fill:rgb(195,186,158);stroke:rgb(87,34,34);stroke-width:10.44px;"/>
            </g>
            <g transform="matrix(6.10688e-17,-0.99733,0.99733,6.10688e-17,1005.2,2144.74)">
                <path d="M1227.44,354.014L1330,413.228L1330,531.654L1227.44,590.867L1124.88,531.654L1124.88,413.228L1227.44,354.014Z" style="fill:rgb(195,186,158);stroke:rgb(87,34,34);stroke-width:10.44px;"/>
            </g>
            <g transform="matrix(6.10688e-17,-0.99733,0.99733,6.10688e-17,1005.2,1940.17)">
                <path d="M1227.44,354.014L1330,413.228L1330,531.654L1227.44,590.867L1124.88,531.654L1124.88,413.228L1227.44,354.014Z" style="fill:rgb(195,186,158);stroke:rgb(87,34,34);stroke-width:10.44px;"/>
            </g>
            <g transform="matrix(6.10688e-17,-0.99733,0.99733,6.10688e-17,828.033,1837.88)">
                <path d="M1227.44,354.014L1330,413.228L1330,531.654L1227.44,590.867L1124.88,531.654L1124.88,413.228L1227.44,354.014Z" style="fill:rgb(177,188,31);stroke:rgb(87,34,34);stroke-width:10.44px;"/>
            </g>
            <g transform="matrix(6.10688e-17,-0.99733,0.99733,6.10688e-17,650.868,1940.17)">
                <path d="M1227.44,354.014L1330,413.228L1330,531.654L1227.44,590.867L1124.88,531.654L1124.88,413.228L1227.44,354.014Z" style="fill:rgb(195,186,158);stroke:rgb(87,34,34);stroke-width:10.44px;"/>
            </g>
            <g transform="matrix(6.10688e-17,-0.99733,0.99733,6.10688e-17,473.702,2042.45)">
                <path d="M1227.44,354.014L1330,413.228L1330,531.654L1227.44,590.867L1124.88,531.654L1124.88,413.228L1227.44,354.014Z" style="fill:rgb(177,188,31);stroke:rgb(87,34,34);stroke-width:10.44px;"/>
            </g>
            <g transform="matrix(6.10688e-17,-0.99733,0.99733,6.10688e-17,473.702,2247.02)">
                <path d="M1227.44,354.014L1330,413.228L1330,531.654L1227.44,590.867L1124.88,531.654L1124.88,413.228L1227.44,354.014Z" style="fill:rgb(195,186,158);stroke:rgb(87,34,34);stroke-width:10.44px;"/>
            </g>
            <g transform="matrix(6.10688e-17,-0.99733,0.99733,6.10688e-17,473.702,2451.6)">
                <path d="M1227.44,354.014L1330,413.228L1330,531.654L1227.44,590.867L1124.88,531.654L1124.88,413.228L1227.44,354.014Z" style="fill:rgb(195,186,158);stroke:rgb(87,34,34);stroke-width:10.44px;"/>
            </g>
            <g transform="matrix(6.10688e-17,-0.99733,0.99733,6.10688e-17,650.868,2553.88)">
                <path d="M1227.44,354.014L1330,413.228L1330,531.654L1227.44,590.867L1124.88,531.654L1124.88,413.228L1227.44,354.014Z" style="fill:rgb(195,186,158);stroke:rgb(87,34,34);stroke-width:10.44px;"/>
            </g>
            <g transform="matrix(6.10688e-17,-0.99733,0.99733,6.10688e-17,828.033,2656.17)">
                <path d="M1227.44,354.014L1330,413.228L1330,531.654L1227.44,590.867L1124.88,531.654L1124.88,413.228L1227.44,354.014Z" style="fill:rgb(195,186,158);stroke:rgb(87,34,34);stroke-width:10.44px;"/>
            </g>
            <g transform="matrix(6.10688e-17,-0.99733,0.99733,6.10688e-17,1005.2,2553.88)">
                <path d="M1227.44,354.014L1330,413.228L1330,531.654L1227.44,590.867L1124.88,531.654L1124.88,413.228L1227.44,354.014Z" style="fill:rgb(195,186,158);stroke:rgb(87,34,34);stroke-width:10.44px;"/>
            </g>
            <g transform="matrix(6.10688e-17,-0.99733,0.99733,6.10688e-17,1182.36,2451.6)">
                <path d="M1227.44,354.014L1330,413.228L1330,531.654L1227.44,590.867L1124.88,531.654L1124.88,413.228L1227.44,354.014Z" style="fill:rgb(195,186,158);stroke:rgb(87,34,34);stroke-width:10.44px;"/>
            </g>
            <g transform="matrix(6.10688e-17,-0.99733,0.99733,6.10688e-17,1182.36,2247.02)">
                <path d="M1227.44,354.014L1330,413.228L1330,531.654L1227.44,590.867L1124.88,531.654L1124.88,413.228L1227.44,354.014Z" style="fill:rgb(195,186,158);stroke:rgb(87,34,34);stroke-width:10.44px;"/>
            </g>
            <g transform="matrix(6.10688e-17,-0.99733,0.99733,6.10688e-17,1182.36,2042.45)">
                <path d="M1227.44,354.014L1330,413.228L1330,531.654L1227.44,590.867L1124.88,531.654L1124.88,413.228L1227.44,354.014Z" style="fill:rgb(177,188,31);stroke:rgb(87,34,34);stroke-width:10.44px;"/>
            </g>
            <g transform="matrix(1,0,0,1,-3.45133,1.48472)">
                <text x="1668.57px" y="577.208px" style="font-family:'ArialMT', 'Arial', sans-serif;font-size:33.333px;fill:rgb(45,36,50);">9,10</text>
            </g>
            <g transform="matrix(1,0,0,1,26.6237,-109.159)">
                <text x="1676.71px" y="577.208px" style="font-family:'ArialMT', 'Arial', sans-serif;font-size:33.333px;fill:rgb(45,36,50);">7</text>
            </g>
            <g transform="matrix(1,0,0,1,262.844,1.48472)">
                <text x="1677.84px" y="577.208px" style="font-family:'ArialMT', 'Arial', sans-serif;font-size:33.333px;fill:rgb(45,36,50);">3,4</text>
            </g>
            <g transform="matrix(1,0,0,1,262.844,-109.159)">
                <text x="1676.71px" y="577.208px" style="font-family:'ArialMT', 'Arial', sans-serif;font-size:33.333px;fill:rgb(45,36,50);">8</text>
            </g>
            <g transform="matrix(1,0,0,1,129.696,69.3678)">
                <text x="1677.84px" y="577.208px" style="font-family:'ArialMT', 'Arial', sans-serif;font-size:33.333px;fill:rgb(45,36,50);">5,6</text>
            </g>
            <g transform="matrix(1,0,0,1,129.696,-177.042)">
                <text x="1668.57px" y="577.208px" style="font-family:'ArialMT', 'Arial', sans-serif;font-size:33.333px;fill:rgb(45,36,50);">2,12</text>
            </g>
            <text x="1813.41px" y="523.371px" style="font-family:'ArialMT', 'Arial', sans-serif;font-size:33.333px;fill:rgb(45,36,50);">1<tspan x="1829.47px " y="523.371px ">1</tspan></text>
        </g>
        <g id="Autumn-Labels" serif:id="Autumn Labels">
            <g>
                <text x="1270.5px" y="608.445px" style="font-family:'ArialMT', 'Arial', sans-serif;font-size:33.333px;fill:rgb(45,36,50);">Hail</text>
                <text x="1254.76px" y="642.869px" style="font-family:'ArialMT', 'Arial', sans-serif;font-size:33.333px;fill:rgb(45,36,50);">Storm</text>
            </g>
            <text x="1256.59px" y="1034.8px" style="font-family:'ArialMT', 'Arial', sans-serif;font-size:33.333px;fill:rgb(45,36,50);">Event</text>
            <g>
                <text x="1619.27px" y="813.018px" style="font-family:'ArialMT', 'Arial', sans-serif;font-size:33.333px;fill:rgb(45,36,50);">Rain</text>
                <text x="1609.09px" y="847.442px" style="font-family:'ArialMT', 'Arial', sans-serif;font-size:33.333px;fill:rgb(45,36,50);">Storm</text>
            </g>
            <g>
                <text x="912.46px" y="813.018px" style="font-family:'ArialMT', 'Arial', sans-serif;font-size:33.333px;fill:rgb(45,36,50);">Mud</text>
                <text x="892.986px" y="847.442px" style="font-family:'ArialMT', 'Arial', sans-serif;font-size:33.333px;fill:rgb(45,36,50);">Sludge</text>
            </g>
            <text x="1253.51px" y="829.191px" style="font-family:'ArialMT', 'Arial', sans-serif;font-size:33.333px;fill:rgb(45,36,50);">Windy</text>
            <g transform="matrix(1,0,0,1,-5.67935,0)">
                <text x="1065.72px" y="727.944px" style="font-family:'ArialMT', 'Arial', sans-serif;font-size:33.333px;fill:rgb(45,36,50);">Freezing</text>
            </g>
            <g transform="matrix(1,0,0,1,-20.5432,0)">
                <text x="1419.31px" y="727.944px" style="font-family:'ArialMT', 'Arial', sans-serif;font-size:33.333px;fill:rgb(45,36,50);">Downpour</text>
            </g>
            <g transform="matrix(1,0,0,1,-16.5229,0)">
                <text x="1620.07px" y="1034.8px" style="font-family:'ArialMT', 'Arial', sans-serif;font-size:33.333px;fill:rgb(45,36,50);">Drizzly</text>
            </g>
            <text x="1607.22px" y="1239.38px" style="font-family:'ArialMT', 'Arial', sans-serif;font-size:33.333px;fill:rgb(45,36,50);">Foggy</text>
            <text x="894.857px" y="1034.8px" style="font-family:'ArialMT', 'Arial', sans-serif;font-size:33.333px;fill:rgb(45,36,50);">Muddy</text>
            <text x="900.424px" y="1239.38px" style="font-family:'ArialMT', 'Arial', sans-serif;font-size:33.333px;fill:rgb(45,36,50);">Damp</text>
            <text x="1411.53px" y="932.517px" style="font-family:'ArialMT', 'Arial', sans-serif;font-size:33.333px;fill:rgb(45,36,50);">Showery</text>
            <g transform="matrix(1,0,0,1,-17.2444,210.252)">
                <text x="1108.32px" y="932.517px" style="font-family:'ArialMT', 'Arial', sans-serif;font-size:33.333px;fill:rgb(45,36,50);">W<tspan x="1139.18px 1157.72px " y="932.517px 932.517px ">et</tspan></text>
            </g>
            <g transform="matrix(1,0,0,1,-15.6049,0)">
                <text x="1277.78px" y="1239.38px" style="font-family:'ArialMT', 'Arial', sans-serif;font-size:33.333px;fill:rgb(45,36,50);">Brisk</text>
            </g>
            <g transform="matrix(1,0,0,1,-14.7432,-744.452)">
                <text x="1276.92px" y="1216.68px" style="font-family:'ArialMT', 'Arial', sans-serif;font-size:33.333px;fill:rgb(45,36,50);">Brisk</text>
            </g>
            <g transform="matrix(1,0,0,1,352.691,2.83968)">
                <text x="1084.8px" y="1341.66px" style="font-family:'ArialMT', 'Arial', sans-serif;font-size:33.333px;fill:rgb(45,36,50);">Misty</text>
            </g>
            <g transform="matrix(1,0,0,1,1.63949,-201.733)">
                <text x="1080.36px" y="1117.04px" style="font-family:'ArialMT', 'Arial', sans-serif;font-size:33.333px;fill:rgb(45,36,50);">Snow</text>
                <text x="1075.7px" y="1151.46px" style="font-family:'ArialMT', 'Arial', sans-serif;font-size:33.333px;fill:rgb(45,36,50);">Laden</text>
            </g>
            <text x="1077.09px" y="1341.66px" style="font-family:'ArialMT', 'Arial', sans-serif;font-size:33.333px;fill:rgb(45,36,50);">Dewy</text>
            <g transform="matrix(1,0,0,1,-180.664,307.24)">
                <text x="1427.79px" y="1137.09px" style="font-family:'ArialMT', 'Arial', sans-serif;font-size:33.333px;fill:rgb(45,36,50);">Breezy</text>
            </g>
            <g transform="matrix(1,0,0,1,-16.0639,0)">
                <text x="1425.76px" y="1137.09px" style="font-family:'ArialMT', 'Arial', sans-serif;font-size:33.333px;fill:rgb(45,36,50);">Overcast</text>
            </g>
            <g transform="matrix(1,0,0,1,0,380.699)">
                <text x="1256.59px" y="1216.68px" style="font-family:'ArialMT', 'Arial', sans-serif;font-size:33.333px;fill:rgb(45,36,50);">Event</text>
            </g>
        </g>
        <g id="Weather-Navigation" serif:id="Weather Navigation">
            <g transform="matrix(1.08881,8.90661e-16,8.89674e-16,0.288675,-115.388,363.795)">
                <g transform="matrix(0.918431,-2.83367e-15,-2.83053e-15,3.4641,807.657,-200.206)">
                    <path d="M523.494,191.53L535.213,175.905L546.931,191.53L523.494,191.53Z" style="fill:rgb(45,36,50);"/>
                    <path d="M535.213,234.96L535.213,188.405" style="fill:none;stroke:rgb(45,36,50);stroke-width:10.42px;"/>
                </g>
            </g>
            <g transform="matrix(1,-0,-0,1,764,306)">
                <path d="M369.738,321.611L358.033,337.246L346.3,321.632L369.738,321.611Z" style="fill:rgb(45,36,50);"/>
                <path d="M472.202,271.339C420.55,240.262 362.079,269.823 358.022,324.746" style="fill:none;stroke:rgb(45,36,50);stroke-width:10.42px;"/>
            </g>
            <g transform="matrix(-1,0,0,1,2598.42,0)">
                <g transform="matrix(-1,0,0,1,1834.42,306)">
                    <path d="M724.118,321.632L712.385,337.246L700.68,321.611L724.118,321.632Z" style="fill:rgb(45,36,50);"/>
                    <path d="M598.216,271.339C649.868,240.262 708.339,269.823 712.396,324.746" style="fill:none;stroke:rgb(45,36,50);stroke-width:10.42px;"/>
                </g>
            </g>
            <g transform="matrix(-1.56918,-6.98492e-16,-1.31753e-15,-0.288675,3337.91,1681.93)">
                <g transform="matrix(-0.637277,1.54199e-15,2.90857e-15,-3.4641,1640.29,4766.38)">
                    <path d="M546.931,1242.2L535.213,1257.83L523.494,1242.2L546.931,1242.2Z" style="fill:rgb(45,36,50);"/>
                    <path d="M535.213,1198.77L535.213,1245.33" style="fill:none;stroke:rgb(45,36,50);stroke-width:10.42px;"/>
                </g>
            </g>
        </g>
    </g>
</svg>
