<?xml version="1.0" encoding="UTF-8" standalone="no"?>
<!DOCTYPE svg PUBLIC "-//W3C//DTD SVG 1.1//EN" "http://www.w3.org/Graphics/SVG/1.1/DTD/svg11.dtd">
<svg width="100%" height="100%" viewBox="0 0 2481 1749" version="1.1" xmlns="http://www.w3.org/2000/svg" xmlns:xlink="http://www.w3.org/1999/xlink" xml:space="preserve" xmlns:serif="http://www.serif.com/" style="fill-rule:evenodd;clip-rule:evenodd;stroke-linecap:round;stroke-linejoin:round;stroke-miterlimit:1.5;">
    <g>
        <g transform="matrix(2.85484,0,0,2.85484,-532.639,74.6761)">
            <rect x="236.22" y="236.22" width="47.244" height="47.244" style="fill:rgb(195,186,158);stroke:rgb(87,34,34);stroke-width:1.46px;"/>
        </g>
        <g transform="matrix(2.85484,0,0,2.85484,-397.765,74.6761)">
            <rect x="236.22" y="236.22" width="47.244" height="47.244" style="fill:rgb(195,186,158);stroke:rgb(87,34,34);stroke-width:1.46px;"/>
        </g>
        <g transform="matrix(2.85484,0,0,2.85484,-262.891,74.6761)">
            <rect x="236.22" y="236.22" width="47.244" height="47.244" style="fill:rgb(195,186,158);stroke:rgb(87,34,34);stroke-width:1.46px;"/>
        </g>
        <g transform="matrix(2.85484,0,0,2.85484,-128.016,74.6761)">
            <rect x="236.22" y="236.22" width="47.244" height="47.244" style="fill:rgb(195,186,158);stroke:rgb(87,34,34);stroke-width:1.46px;"/>
        </g>
        <g transform="matrix(2.85484,0,0,2.85484,6.85801,74.6761)">
            <rect x="236.22" y="236.22" width="47.244" height="47.244" style="fill:rgb(195,186,158);stroke:rgb(87,34,34);stroke-width:1.46px;"/>
        </g>
        <g transform="matrix(2.85484,0,0,2.85484,141.732,74.6761)">
            <rect x="236.22" y="236.22" width="47.244" height="47.244" style="fill:rgb(195,186,158);stroke:rgb(87,34,34);stroke-width:1.46px;"/>
        </g>
        <g transform="matrix(2.85484,0,0,2.85484,276.607,74.6761)">
            <rect x="236.22" y="236.22" width="47.244" height="47.244" style="fill:rgb(195,186,158);stroke:rgb(87,34,34);stroke-width:1.46px;"/>
        </g>
        <g transform="matrix(2.85484,0,0,2.85484,411.481,74.6761)">
            <rect x="236.22" y="236.22" width="47.244" height="47.244" style="fill:rgb(195,186,158);stroke:rgb(87,34,34);stroke-width:1.46px;"/>
        </g>
        <g transform="matrix(2.85484,0,0,2.85484,546.355,74.6761)">
            <rect x="236.22" y="236.22" width="47.244" height="47.244" style="fill:rgb(195,186,158);stroke:rgb(87,34,34);stroke-width:1.46px;"/>
        </g>
        <g transform="matrix(2.85484,0,0,2.85484,681.229,74.6761)">
            <rect x="236.22" y="236.22" width="47.244" height="47.244" style="fill:rgb(195,186,158);stroke:rgb(87,34,34);stroke-width:1.46px;"/>
        </g>
        <g transform="matrix(2.85484,0,0,2.85484,816.104,74.6761)">
            <rect x="236.22" y="236.22" width="47.244" height="47.244" style="fill:rgb(195,186,158);stroke:rgb(87,34,34);stroke-width:1.46px;"/>
        </g>
        <g transform="matrix(2.85484,0,0,2.85484,950.978,74.6761)">
            <rect x="236.22" y="236.22" width="47.244" height="47.244" style="fill:rgb(195,186,158);stroke:rgb(87,34,34);stroke-width:1.46px;"/>
        </g>
        <g transform="matrix(2.85484,0,0,2.85484,1215.39,74.6761)">
            <rect x="236.22" y="236.22" width="47.244" height="47.244" style="fill:rgb(195,186,158);stroke:rgb(87,34,34);stroke-width:1.46px;"/>
        </g>
        <g transform="matrix(2.85484,0,0,2.85484,1215.39,-60.1981)">
            <rect x="236.22" y="236.22" width="47.244" height="47.244" style="fill:rgb(195,186,158);stroke:rgb(87,34,34);stroke-width:1.46px;"/>
        </g>
        <g transform="matrix(2.85484,0,0,2.85484,1350.27,-60.1981)">
            <rect x="236.22" y="236.22" width="47.244" height="47.244" style="fill:rgb(195,186,158);stroke:rgb(87,34,34);stroke-width:1.46px;"/>
        </g>
        <g transform="matrix(2.85484,0,0,2.85484,1485.14,-60.1981)">
            <rect x="236.22" y="236.22" width="47.244" height="47.244" style="fill:rgb(195,186,158);stroke:rgb(87,34,34);stroke-width:1.46px;"/>
        </g>
        <g transform="matrix(2.85484,0,0,2.85484,1485.14,74.6761)">
            <rect x="236.22" y="236.22" width="47.244" height="47.244" style="fill:rgb(195,186,158);stroke:rgb(87,34,34);stroke-width:1.46px;"/>
        </g>
        <g transform="matrix(2.85484,0,0,2.85484,1350.27,74.6761)">
            <rect x="236.22" y="236.22" width="47.244" height="47.244" style="fill:rgb(195,186,158);stroke:rgb(87,34,34);stroke-width:1.46px;"/>
        </g>
        <g transform="matrix(2.85484,0,0,2.85484,1215.39,209.55)">
            <rect x="236.22" y="236.22" width="47.244" height="47.244" style="fill:rgb(195,186,158);stroke:rgb(87,34,34);stroke-width:1.46px;"/>
        </g>
        <g transform="matrix(2.85484,0,0,2.85484,1350.27,209.55)">
            <rect x="236.22" y="236.22" width="47.244" height="47.244" style="fill:rgb(195,186,158);stroke:rgb(87,34,34);stroke-width:1.46px;"/>
        </g>
        <g transform="matrix(2.85484,0,0,2.85484,1485.14,209.55)">
            <rect x="236.22" y="236.22" width="47.244" height="47.244" style="fill:rgb(195,186,158);stroke:rgb(87,34,34);stroke-width:1.46px;"/>
        </g>
        <g transform="matrix(2.85484,0,0,2.85484,-532.639,74.6761)">
            <path d="M779.528,259.843L259.843,259.843" style="fill:none;stroke:rgb(45,36,50);stroke-width:0.73px;"/>
        </g>
        <g transform="matrix(0.778592,0.778592,-2.01868,2.01868,2211.99,-112.676)">
            <path d="M779.528,259.843L259.843,259.843" style="fill:none;stroke:rgb(45,36,50);stroke-width:0.96px;"/>
        </g>
        <g transform="matrix(7.17025e-17,0.259531,-2.85484,6.9783e-16,2434.59,749.047)">
            <path d="M779.528,259.843L259.843,259.843" style="fill:none;stroke:rgb(45,36,50);stroke-width:1.03px;"/>
        </g>
        <g transform="matrix(7.17025e-17,0.259531,-2.85484,6.9783e-16,2299.72,614.173)">
            <path d="M779.528,259.843L259.843,259.843" style="fill:none;stroke:rgb(45,36,50);stroke-width:1.03px;"/>
        </g>
        <g transform="matrix(7.17025e-17,0.259531,-2.85484,6.9783e-16,1760.22,749.047)">
            <path d="M779.528,259.843L259.843,259.843" style="fill:none;stroke:rgb(45,36,50);stroke-width:1.03px;"/>
        </g>
        <g transform="matrix(7.17025e-17,0.259531,-2.85484,6.9783e-16,950.978,614.173)">
            <path d="M779.528,259.843L259.843,259.843" style="fill:none;stroke:rgb(45,36,50);stroke-width:1.03px;"/>
        </g>
        <g transform="matrix(0.778592,-0.778592,2.01868,2.01868,1162.91,696.57)">
            <path d="M779.528,259.843L259.843,259.843" style="fill:none;stroke:rgb(45,36,50);stroke-width:0.96px;"/>
        </g>
        <g transform="matrix(2.85484,0,0,2.85484,-470.536,77.2977)">
            <path d="M908.268,246.084C912.378,249.266 915.027,254.247 915.027,259.843C915.027,269.44 907.235,277.231 897.638,277.231C888.041,277.231 880.249,269.44 880.249,259.843C880.249,254.247 882.897,249.266 887.008,246.084L887.008,241.535L908.268,241.535L908.268,246.084Z" style="fill:rgb(74,64,82);stroke:rgb(74,64,82);stroke-width:1.46px;"/>
        </g>
        <g transform="matrix(2.85484,0,0,2.85484,613.792,344.425)">
            <circle cx="377.953" cy="165.354" r="17.389" style="fill:rgb(74,64,82);stroke:rgb(74,64,82);stroke-width:1.46px;"/>
        </g>
        <g transform="matrix(1,0,0,1,829.915,469.012)">
            <text x="732.283px" y="258.255px" style="font-family:'ArialMT', 'Arial', sans-serif;font-size:33.333px;fill:rgb(45,36,50);">Close</text>
        </g>
        <g transform="matrix(1,0,0,1,1292.35,405.004)">
            <text x="760.821px" y="290.26px" style="font-family:'ArialMT', 'Arial', sans-serif;font-size:33.333px;fill:rgb(45,36,50);">Front</text>
        </g>
        <g transform="matrix(1,0,0,1,1427.23,538.164)">
            <text x="760.813px" y="290.26px" style="font-family:'ArialMT', 'Arial', sans-serif;font-size:33.333px;fill:rgb(45,36,50);">Right</text>
        </g>
        <g transform="matrix(1,0,0,1,1292.35,673.038)">
            <text x="762.668px" y="290.26px" style="font-family:'ArialMT', 'Arial', sans-serif;font-size:33.333px;fill:rgb(45,36,50);">Back</text>
        </g>
        <g transform="matrix(1,0,0,1,1157.48,536.449)">
            <text x="771.921px" y="290.26px" style="font-family:'ArialMT', 'Arial', sans-serif;font-size:33.333px;fill:rgb(45,36,50);">Left</text>
        </g>
        <g transform="matrix(1,0,0,1,289.751,671.323)">
            <text x="732.283px" y="258.255px" style="font-family:'ArialMT', 'Arial', sans-serif;font-size:33.333px;fill:rgb(45,36,50);">Near</text>
        </g>
        <g transform="matrix(1,0,0,1,-519.685,469.012)">
            <text x="732.283px" y="258.255px" style="font-family:'ArialMT', 'Arial', sans-serif;font-size:33.333px;fill:rgb(45,36,50);">Distant</text>
        </g>
        <g transform="matrix(1,0,0,1,962.979,673.228)">
            <text x="732.283px" y="241.044px" style="font-family:'ArialMT', 'Arial', sans-serif;font-size:33.333px;fill:rgb(45,36,50);">Personal</text>
            <text x="732.283px" y="275.467px" style="font-family:'ArialMT', 'Arial', sans-serif;font-size:33.333px;fill:rgb(45,36,50);">Space</text>
        </g>
    </g>
</svg>
