<?xml version="1.0" encoding="UTF-8" standalone="no"?>
<!DOCTYPE svg PUBLIC "-//W3C//DTD SVG 1.1//EN" "http://www.w3.org/Graphics/SVG/1.1/DTD/svg11.dtd">
<svg width="100%" height="100%" viewBox="0 0 1296 1334" version="1.1" xmlns="http://www.w3.org/2000/svg" xmlns:xlink="http://www.w3.org/1999/xlink" xml:space="preserve" xmlns:serif="http://www.serif.com/" style="fill-rule:evenodd;clip-rule:evenodd;stroke-linecap:square;stroke-miterlimit:1.5;">
    <g transform="matrix(1,0,0,1,-764,-306)">
        <g id="Weather-Hexflower" serif:id="Weather Hexflower">
            <g transform="matrix(6.10688e-17,-0.99733,0.99733,6.10688e-17,828.033,2247.02)">
                <path d="M1227.44,354.014L1330,413.228L1330,531.654L1227.44,590.867L1124.88,531.654L1124.88,413.228L1227.44,354.014Z" style="fill:rgb(177,188,31);stroke:rgb(87,34,34);stroke-width:10.44px;"/>
            </g>
            <g transform="matrix(6.10688e-17,-0.99733,0.99733,6.10688e-17,828.033,2042.45)">
                <path d="M1227.44,354.014L1330,413.228L1330,531.654L1227.44,590.867L1124.88,531.654L1124.88,413.228L1227.44,354.014Z" style="fill:rgb(84,100,36);stroke:rgb(87,34,34);stroke-width:10.44px;"/>
            </g>
            <g transform="matrix(6.10688e-17,-0.99733,0.99733,6.10688e-17,650.868,2144.74)">
                <path d="M1227.44,354.014L1330,413.228L1330,531.654L1227.44,590.867L1124.88,531.654L1124.88,413.228L1227.44,354.014Z" style="fill:rgb(195,186,158);stroke:rgb(87,34,34);stroke-width:10.44px;"/>
            </g>
            <g transform="matrix(6.10688e-17,-0.99733,0.99733,6.10688e-17,650.868,2349.31)">
                <path d="M1227.44,354.014L1330,413.228L1330,531.654L1227.44,590.867L1124.88,531.654L1124.88,413.228L1227.44,354.014Z" style="fill:rgb(195,186,158);stroke:rgb(87,34,34);stroke-width:10.44px;"/>
            </g>
            <g transform="matrix(6.10688e-17,-0.99733,0.99733,6.10688e-17,828.033,2451.6)">
                <path d="M1227.44,354.014L1330,413.228L1330,531.654L1227.44,590.867L1124.88,531.654L1124.88,413.228L1227.44,354.014Z" style="fill:rgb(195,186,158);stroke:rgb(87,34,34);stroke-width:10.44px;"/>
            </g>
            <g transform="matrix(6.10688e-17,-0.99733,0.99733,6.10688e-17,1005.2,2349.31)">
                <path d="M1227.44,354.014L1330,413.228L1330,531.654L1227.44,590.867L1124.88,531.654L1124.88,413.228L1227.44,354.014Z" style="fill:rgb(195,186,158);stroke:rgb(87,34,34);stroke-width:10.44px;"/>
            </g>
            <g transform="matrix(6.10688e-17,-0.99733,0.99733,6.10688e-17,1359.53,1735.59)">
                <path d="M1227.44,354.014L1330,413.228L1330,531.654L1227.44,590.867L1124.88,531.654L1124.88,413.228L1227.44,354.014Z" style="fill:rgb(195,186,158);stroke:rgb(87,34,34);stroke-width:10.44px;"/>
            </g>
            <g transform="matrix(6.10688e-17,-0.99733,0.99733,6.10688e-17,1005.2,2144.74)">
                <path d="M1227.44,354.014L1330,413.228L1330,531.654L1227.44,590.867L1124.88,531.654L1124.88,413.228L1227.44,354.014Z" style="fill:rgb(195,186,158);stroke:rgb(87,34,34);stroke-width:10.44px;"/>
            </g>
            <g transform="matrix(6.10688e-17,-0.99733,0.99733,6.10688e-17,1005.2,1940.17)">
                <path d="M1227.44,354.014L1330,413.228L1330,531.654L1227.44,590.867L1124.88,531.654L1124.88,413.228L1227.44,354.014Z" style="fill:rgb(84,100,36);stroke:rgb(87,34,34);stroke-width:10.44px;"/>
            </g>
            <g transform="matrix(6.10688e-17,-0.99733,0.99733,6.10688e-17,828.033,1837.88)">
                <path d="M1227.44,354.014L1330,413.228L1330,531.654L1227.44,590.867L1124.88,531.654L1124.88,413.228L1227.44,354.014Z" style="fill:rgb(177,188,31);stroke:rgb(87,34,34);stroke-width:10.44px;"/>
            </g>
            <g transform="matrix(6.10688e-17,-0.99733,0.99733,6.10688e-17,650.868,1940.17)">
                <path d="M1227.44,354.014L1330,413.228L1330,531.654L1227.44,590.867L1124.88,531.654L1124.88,413.228L1227.44,354.014Z" style="fill:rgb(84,100,36);stroke:rgb(87,34,34);stroke-width:10.44px;"/>
            </g>
            <g transform="matrix(6.10688e-17,-0.99733,0.99733,6.10688e-17,473.702,2042.45)">
                <path d="M1227.44,354.014L1330,413.228L1330,531.654L1227.44,590.867L1124.88,531.654L1124.88,413.228L1227.44,354.014Z" style="fill:rgb(177,188,31);stroke:rgb(87,34,34);stroke-width:10.44px;"/>
            </g>
            <g transform="matrix(6.10688e-17,-0.99733,0.99733,6.10688e-17,473.702,2247.02)">
                <path d="M1227.44,354.014L1330,413.228L1330,531.654L1227.44,590.867L1124.88,531.654L1124.88,413.228L1227.44,354.014Z" style="fill:rgb(195,186,158);stroke:rgb(87,34,34);stroke-width:10.44px;"/>
            </g>
            <g transform="matrix(6.10688e-17,-0.99733,0.99733,6.10688e-17,473.702,2451.6)">
                <path d="M1227.44,354.014L1330,413.228L1330,531.654L1227.44,590.867L1124.88,531.654L1124.88,413.228L1227.44,354.014Z" style="fill:rgb(195,186,158);stroke:rgb(87,34,34);stroke-width:10.44px;"/>
            </g>
            <g transform="matrix(6.10688e-17,-0.99733,0.99733,6.10688e-17,650.868,2553.88)">
                <path d="M1227.44,354.014L1330,413.228L1330,531.654L1227.44,590.867L1124.88,531.654L1124.88,413.228L1227.44,354.014Z" style="fill:rgb(195,186,158);stroke:rgb(87,34,34);stroke-width:10.44px;"/>
            </g>
            <g transform="matrix(6.10688e-17,-0.99733,0.99733,6.10688e-17,828.033,2656.17)">
                <path d="M1227.44,354.014L1330,413.228L1330,531.654L1227.44,590.867L1124.88,531.654L1124.88,413.228L1227.44,354.014Z" style="fill:rgb(195,186,158);stroke:rgb(87,34,34);stroke-width:10.44px;"/>
            </g>
            <g transform="matrix(6.10688e-17,-0.99733,0.99733,6.10688e-17,1005.2,2553.88)">
                <path d="M1227.44,354.014L1330,413.228L1330,531.654L1227.44,590.867L1124.88,531.654L1124.88,413.228L1227.44,354.014Z" style="fill:rgb(195,186,158);stroke:rgb(87,34,34);stroke-width:10.44px;"/>
            </g>
            <g transform="matrix(6.10688e-17,-0.99733,0.99733,6.10688e-17,1182.36,2451.6)">
                <path d="M1227.44,354.014L1330,413.228L1330,531.654L1227.44,590.867L1124.88,531.654L1124.88,413.228L1227.44,354.014Z" style="fill:rgb(195,186,158);stroke:rgb(87,34,34);stroke-width:10.44px;"/>
            </g>
            <g transform="matrix(6.10688e-17,-0.99733,0.99733,6.10688e-17,1182.36,2247.02)">
                <path d="M1227.44,354.014L1330,413.228L1330,531.654L1227.44,590.867L1124.88,531.654L1124.88,413.228L1227.44,354.014Z" style="fill:rgb(195,186,158);stroke:rgb(87,34,34);stroke-width:10.44px;"/>
            </g>
            <g transform="matrix(6.10688e-17,-0.99733,0.99733,6.10688e-17,1182.36,2042.45)">
                <path d="M1227.44,354.014L1330,413.228L1330,531.654L1227.44,590.867L1124.88,531.654L1124.88,413.228L1227.44,354.014Z" style="fill:rgb(177,188,31);stroke:rgb(87,34,34);stroke-width:10.44px;"/>
            </g>
            <g transform="matrix(1,0,0,1,-3.45133,1.48472)">
                <text x="1668.57px" y="577.208px" style="font-family:'ArialMT', 'Arial', sans-serif;font-size:33.333px;fill:rgb(45,36,50);">9,10</text>
            </g>
            <g transform="matrix(1,0,0,1,26.6237,-109.159)">
                <text x="1676.71px" y="577.208px" style="font-family:'ArialMT', 'Arial', sans-serif;font-size:33.333px;fill:rgb(45,36,50);">7</text>
            </g>
            <g transform="matrix(1,0,0,1,262.844,1.48472)">
                <text x="1677.84px" y="577.208px" style="font-family:'ArialMT', 'Arial', sans-serif;font-size:33.333px;fill:rgb(45,36,50);">3,4</text>
            </g>
            <g transform="matrix(1,0,0,1,262.844,-109.159)">
                <text x="1676.71px" y="577.208px" style="font-family:'ArialMT', 'Arial', sans-serif;font-size:33.333px;fill:rgb(45,36,50);">8</text>
            </g>
            <g transform="matrix(1,0,0,1,129.696,69.3678)">
                <text x="1677.84px" y="577.208px" style="font-family:'ArialMT', 'Arial', sans-serif;font-size:33.333px;fill:rgb(45,36,50);">5,6</text>
            </g>
            <g transform="matrix(1,0,0,1,129.696,-177.042)">
                <text x="1668.57px" y="577.208px" style="font-family:'ArialMT', 'Arial', sans-serif;font-size:33.333px;fill:rgb(45,36,50);">2,12</text>
            </g>
            <text x="1813.41px" y="523.371px" style="font-family:'ArialMT', 'Arial', sans-serif;font-size:33.333px;fill:rgb(45,36,50);">1<tspan x="1829.47px " y="523.371px ">1</tspan></text>
        </g>
        <g id="Dry-Season-Labels" serif:id="Dry Season Labels">
            <text x="1233.43px" y="625.657px" style="font-family:'ArialMT', 'Arial', sans-serif;font-size:33.333px;fill:rgb(45,36,50);">Firenado</text>
            <text x="1256.59px" y="1034.8px" style="font-family:'ArialMT', 'Arial', sans-serif;font-size:33.333px;fill:rgb(45,36,50);">Event</text>
            <text x="1579.43px" y="830.23px" style="font-family:'ArialMT', 'Arial', sans-serif;font-size:33.333px;fill:rgb(45,36,50);">Heatwave</text>
            <g>
                <text x="910.613px" y="813.018px" style="font-family:'ArialMT', 'Arial', sans-serif;font-size:33.333px;fill:rgb(45,36,50);">Dust</text>
                <text x="900.432px" y="847.442px" style="font-family:'ArialMT', 'Arial', sans-serif;font-size:33.333px;fill:rgb(45,36,50);">Storm</text>
            </g>
            <text x="1253.51px" y="829.191px" style="font-family:'ArialMT', 'Arial', sans-serif;font-size:33.333px;fill:rgb(45,36,50);">Windy</text>
            <g transform="matrix(1,0,0,1,-5.67935,0)">
                <text x="1056.45px" y="727.944px" style="font-family:'ArialMT', 'Arial', sans-serif;font-size:33.333px;fill:rgb(45,36,50);">Scorching</text>
            </g>
            <g transform="matrix(1,0,0,1,-20.5432,0)">
                <text x="1445.25px" y="727.944px" style="font-family:'ArialMT', 'Arial', sans-serif;font-size:33.333px;fill:rgb(45,36,50);">Boiling</text>
            </g>
            <g transform="matrix(1,0,0,1,-16.5229,0)">
                <text x="1626.53px" y="1034.8px" style="font-family:'ArialMT', 'Arial', sans-serif;font-size:33.333px;fill:rgb(45,36,50);">Bright</text>
            </g>
            <text x="1601.66px" y="1239.38px" style="font-family:'ArialMT', 'Arial', sans-serif;font-size:33.333px;fill:rgb(45,36,50);">Cloudy</text>
            <text x="902.279px" y="1034.8px" style="font-family:'ArialMT', 'Arial', sans-serif;font-size:33.333px;fill:rgb(45,36,50);">Dusty</text>
            <text x="882.805px" y="1239.38px" style="font-family:'ArialMT', 'Arial', sans-serif;font-size:33.333px;fill:rgb(45,36,50);">Parched</text>
            <text x="1450.44px" y="932.517px" style="font-family:'ArialMT', 'Arial', sans-serif;font-size:33.333px;fill:rgb(45,36,50);">Hot</text>
            <g transform="matrix(1,0,0,1,-17.2444,210.252)">
                <text x="1099.68px" y="932.517px" style="font-family:'ArialMT', 'Arial', sans-serif;font-size:33.333px;fill:rgb(45,36,50);">Hazy</text>
            </g>
            <g transform="matrix(1,0,0,1,-15.6049,0)">
                <text x="1274.99px" y="1239.38px" style="font-family:'ArialMT', 'Arial', sans-serif;font-size:33.333px;fill:rgb(45,36,50);">Clear</text>
            </g>
            <g transform="matrix(1,0,0,1,-14.7432,-744.452)">
                <text x="1274.13px" y="1216.68px" style="font-family:'ArialMT', 'Arial', sans-serif;font-size:33.333px;fill:rgb(45,36,50);">Clear</text>
            </g>
            <g transform="matrix(1,0,0,1,352.691,2.83968)">
                <text x="1076.43px" y="1341.66px" style="font-family:'ArialMT', 'Arial', sans-serif;font-size:33.333px;fill:rgb(45,36,50);">Sunny</text>
            </g>
            <g transform="matrix(1,0,0,1,-20.1615,-201.733)">
                <text x="1082.71px" y="1134.25px" style="font-family:'ArialMT', 'Arial', sans-serif;font-size:33.333px;fill:rgb(45,36,50);">Smoggy</text>
            </g>
            <text x="1092.85px" y="1341.66px" style="font-family:'ArialMT', 'Arial', sans-serif;font-size:33.333px;fill:rgb(45,36,50);">Dry</text>
            <g transform="matrix(1,0,0,1,-180.664,307.24)">
                <text x="1427.79px" y="1137.09px" style="font-family:'ArialMT', 'Arial', sans-serif;font-size:33.333px;fill:rgb(45,36,50);">Breezy</text>
            </g>
            <g transform="matrix(1,0,0,1,-16.0639,0)">
                <text x="1446.14px" y="1137.09px" style="font-family:'ArialMT', 'Arial', sans-serif;font-size:33.333px;fill:rgb(45,36,50);">Balmy</text>
            </g>
            <g transform="matrix(1,0,0,1,0,380.699)">
                <text x="1256.59px" y="1216.68px" style="font-family:'ArialMT', 'Arial', sans-serif;font-size:33.333px;fill:rgb(45,36,50);">Event</text>
            </g>
        </g>
        <g id="Weather-Navigation" serif:id="Weather Navigation">
            <g transform="matrix(1.08881,8.90661e-16,8.89674e-16,0.288675,-115.388,363.795)">
                <g transform="matrix(0.918431,-2.83367e-15,-2.83053e-15,3.4641,807.657,-200.206)">
                    <path d="M523.494,191.53L535.213,175.905L546.931,191.53L523.494,191.53Z" style="fill:rgb(45,36,50);"/>
                    <path d="M535.213,234.96L535.213,188.405" style="fill:none;stroke:rgb(45,36,50);stroke-width:10.42px;"/>
                </g>
            </g>
            <g transform="matrix(1,-0,-0,1,764,306)">
                <path d="M369.738,321.611L358.033,337.246L346.3,321.632L369.738,321.611Z" style="fill:rgb(45,36,50);"/>
                <path d="M472.202,271.339C420.55,240.262 362.079,269.823 358.022,324.746" style="fill:none;stroke:rgb(45,36,50);stroke-width:10.42px;"/>
            </g>
            <g transform="matrix(-1,0,0,1,2598.42,0)">
                <g transform="matrix(-1,0,0,1,1834.42,306)">
                    <path d="M724.118,321.632L712.385,337.246L700.68,321.611L724.118,321.632Z" style="fill:rgb(45,36,50);"/>
                    <path d="M598.216,271.339C649.868,240.262 708.339,269.823 712.396,324.746" style="fill:none;stroke:rgb(45,36,50);stroke-width:10.42px;"/>
                </g>
            </g>
            <g transform="matrix(-1.56918,-6.98492e-16,-1.31753e-15,-0.288675,3337.91,1681.93)">
                <g transform="matrix(-0.637277,1.54199e-15,2.90857e-15,-3.4641,1640.29,4766.38)">
                    <path d="M546.931,1242.2L535.213,1257.83L523.494,1242.2L546.931,1242.2Z" style="fill:rgb(45,36,50);"/>
                    <path d="M535.213,1198.77L535.213,1245.33" style="fill:none;stroke:rgb(45,36,50);stroke-width:10.42px;"/>
                </g>
            </g>
        </g>
    </g>
</svg>
