<?xml version="1.0" encoding="UTF-8" standalone="no"?>
<!DOCTYPE svg PUBLIC "-//W3C//DTD SVG 1.1//EN" "http://www.w3.org/Graphics/SVG/1.1/DTD/svg11.dtd">
<svg width="100%" height="100%" viewBox="0 0 476 406" version="1.1" xmlns="http://www.w3.org/2000/svg" xmlns:xlink="http://www.w3.org/1999/xlink" xml:space="preserve" xmlns:serif="http://www.serif.com/" style="fill-rule:evenodd;clip-rule:evenodd;stroke-linecap:round;stroke-linejoin:round;stroke-miterlimit:1.5;">
    <g transform="matrix(1,0,0,1,-707,-3069)">
        <g>
            <g transform="matrix(0.4,0,0,0.714286,425.197,877.39)">
                <rect x="708.661" y="3070.87" width="1181.1" height="496.063" style="fill:rgb(227,227,227);stroke:rgb(235,235,235);stroke-width:3.6px;"/>
            </g>
            <g transform="matrix(1,0,0,1,-5.90551,103.523)">
                <text x="744.207px" y="3237.78px" style="font-family:'ArialMT', 'Arial', sans-serif;font-size:20.833px;fill:rgb(227,227,227);">1</text>
            </g>
            <g transform="matrix(-1.24265,-1.52181e-16,1.77574e-16,-1.45,1712.79,8131.04)">
                <path d="M778.801,3308.54C778.926,3308.29 779.211,3308.13 779.528,3308.13C779.844,3308.13 780.129,3308.29 780.254,3308.54C782.46,3312.95 789.044,3326.12 790.867,3329.76C790.971,3329.97 790.946,3330.21 790.8,3330.4C790.654,3330.59 790.406,3330.71 790.14,3330.71C786.093,3330.71 772.962,3330.71 768.915,3330.71C768.649,3330.71 768.401,3330.59 768.255,3330.4C768.109,3330.21 768.084,3329.97 768.189,3329.76C770.011,3326.12 776.595,3312.95 778.801,3308.54Z" style="fill:rgb(95,95,95);stroke:rgb(227,227,227);stroke-width:3.09px;"/>
            </g>
            <g transform="matrix(-1.24265,-1.52181e-16,1.77574e-16,-1.45,1712.79,8131.04)">
                <path d="M778.801,3308.54C778.926,3308.29 779.211,3308.13 779.528,3308.13C779.844,3308.13 780.129,3308.29 780.254,3308.54C782.46,3312.95 789.044,3326.12 790.867,3329.76C790.971,3329.97 790.946,3330.21 790.8,3330.4C790.654,3330.59 790.406,3330.71 790.14,3330.71C786.093,3330.71 772.962,3330.71 768.915,3330.71C768.649,3330.71 768.401,3330.59 768.255,3330.4C768.109,3330.21 768.084,3329.97 768.189,3329.76C770.011,3326.12 776.595,3312.95 778.801,3308.54Z" style="fill:rgb(95,95,95);"/>
            </g>
            <g transform="matrix(-1.24265,-1.52181e-16,1.77574e-16,-1.45,1712.79,8151.74)">
                <path d="M778.801,3308.54C778.926,3308.29 779.211,3308.13 779.528,3308.13C779.844,3308.13 780.129,3308.29 780.254,3308.54C782.46,3312.95 789.044,3326.12 790.867,3329.76C790.971,3329.97 790.946,3330.21 790.8,3330.4C790.654,3330.59 790.406,3330.71 790.14,3330.71C786.093,3330.71 772.962,3330.71 768.915,3330.71C768.649,3330.71 768.401,3330.59 768.255,3330.4C768.109,3330.21 768.084,3329.97 768.189,3329.76C770.011,3326.12 776.595,3312.95 778.801,3308.54Z" style="fill:rgb(95,95,95);stroke:rgb(227,227,227);stroke-width:3.09px;"/>
            </g>
            <g transform="matrix(-1.24265,-1.52181e-16,1.77574e-16,-1.45,1712.79,8151.74)">
                <path d="M778.801,3308.54C778.926,3308.29 779.211,3308.13 779.528,3308.13C779.844,3308.13 780.129,3308.29 780.254,3308.54C782.46,3312.95 789.044,3326.12 790.867,3329.76C790.971,3329.97 790.946,3330.21 790.8,3330.4C790.654,3330.59 790.406,3330.71 790.14,3330.71C786.093,3330.71 772.962,3330.71 768.915,3330.71C768.649,3330.71 768.401,3330.59 768.255,3330.4C768.109,3330.21 768.084,3329.97 768.189,3329.76C770.011,3326.12 776.595,3312.95 778.801,3308.54Z" style="fill:rgb(95,95,95);"/>
            </g>
            <g transform="matrix(-1.24265,-1.52181e-16,1.77574e-16,-1.45,1712.77,8172.38)">
                <path d="M778.801,3308.54C778.926,3308.29 779.211,3308.13 779.528,3308.13C779.844,3308.13 780.129,3308.29 780.254,3308.54C782.46,3312.95 789.044,3326.12 790.867,3329.76C790.971,3329.97 790.946,3330.21 790.8,3330.4C790.654,3330.59 790.406,3330.71 790.14,3330.71C786.093,3330.71 772.962,3330.71 768.915,3330.71C768.649,3330.71 768.401,3330.59 768.255,3330.4C768.109,3330.21 768.084,3329.97 768.189,3329.76C770.011,3326.12 776.595,3312.95 778.801,3308.54Z" style="fill:rgb(95,95,95);stroke:rgb(227,227,227);stroke-width:3.09px;"/>
            </g>
            <g transform="matrix(-1.24265,-1.52181e-16,1.77574e-16,-1.45,1712.77,8172.38)">
                <path d="M778.801,3308.54C778.926,3308.29 779.211,3308.13 779.528,3308.13C779.844,3308.13 780.129,3308.29 780.254,3308.54C782.46,3312.95 789.044,3326.12 790.867,3329.76C790.971,3329.97 790.946,3330.21 790.8,3330.4C790.654,3330.59 790.406,3330.71 790.14,3330.71C786.093,3330.71 772.962,3330.71 768.915,3330.71C768.649,3330.71 768.401,3330.59 768.255,3330.4C768.109,3330.21 768.084,3329.97 768.189,3329.76C770.011,3326.12 776.595,3312.95 778.801,3308.54Z" style="fill:rgb(95,95,95);"/>
            </g>
            <circle cx="744.094" cy="3224.41" r="11.811" style="fill:rgb(53,53,53);"/>
            <g transform="matrix(1,0,0,1,70.8661,224.409)">
                <circle cx="744.094" cy="3224.41" r="11.811" style="fill:rgb(53,53,53);"/>
            </g>
            <circle cx="744.094" cy="3366.14" r="11.811" style="fill:rgb(53,53,53);"/>
            <path d="M744.094,3352.25C736.426,3352.25 730.2,3358.47 730.2,3366.14C730.2,3373.81 736.426,3380.04 744.094,3380.04C751.763,3380.04 757.989,3373.81 757.989,3366.14C757.989,3358.47 751.763,3352.25 744.094,3352.25ZM744.094,3354.33C750.613,3354.33 755.906,3359.62 755.906,3366.14C755.906,3372.66 750.613,3377.95 744.094,3377.95C737.576,3377.95 732.283,3372.66 732.283,3366.14C732.283,3359.62 737.576,3354.33 744.094,3354.33Z" style="fill:rgb(227,227,227);"/>
            <g transform="matrix(1,0,0,1,-5.90551,135.827)">
                <text x="744.207px" y="3237.78px" style="font-family:'ArialMT', 'Arial', sans-serif;font-size:20.833px;fill:rgb(227,227,227);">3</text>
            </g>
            <g transform="matrix(1,0,0,1,0,9.60295)">
                <text x="708.661px" y="3100.71px" style="font-family:'ArialMT', 'Arial', sans-serif;font-size:41.667px;">Environment Name</text>
            </g>
            <g transform="matrix(1,0,0,1,23.622,2.27374e-13)">
                <text x="708.661px" y="3159.64px" style="font-family:'ArialMT', 'Arial', sans-serif;font-size:25px;">Description of Environment</text>
            </g>
            <g transform="matrix(1,0,0,1,54.6519,76.4821)">
                <text x="708.661px" y="3159.64px" style="font-family:'ArialMT', 'Arial', sans-serif;font-size:25px;">This Hostility change can be</text>
                <text x="708.661px" y="3185.46px" style="font-family:'ArialMT', 'Arial', sans-serif;font-size:25px;">unlocked any time.</text>
            </g>
            <g transform="matrix(1,0,0,1,54.6519,141.732)">
                <text x="708.661px" y="3159.64px" style="font-family:'ArialMT', 'Arial', sans-serif;font-size:25px;">This Hostility change must be</text>
                <text x="708.661px" y="3185.46px" style="font-family:'ArialMT', 'Arial', sans-serif;font-size:25px;">unlocked before the next.</text>
            </g>
            <g transform="matrix(1,0,0,1,54.6519,212.598)">
                <text x="708.661px" y="3159.64px" style="font-family:'ArialMT', 'Arial', sans-serif;font-size:25px;">This Hostility change can only be</text>
                <text x="708.661px" y="3185.46px" style="font-family:'ArialMT', 'Arial', sans-serif;font-size:25px;">unlocked after the previous is.</text>
            </g>
            <circle cx="744.094" cy="3295.28" r="11.811" style="fill:rgb(53,53,53);"/>
            <path d="M744.094,3281.38C736.426,3281.38 730.2,3287.61 730.2,3295.28C730.2,3302.94 736.426,3309.17 744.094,3309.17C751.763,3309.17 757.989,3302.94 757.989,3295.28C757.989,3287.61 751.763,3281.38 744.094,3281.38ZM744.094,3283.47C750.613,3283.47 755.906,3288.76 755.906,3295.28C755.906,3301.79 750.613,3307.09 744.094,3307.09C737.576,3307.09 732.283,3301.79 732.283,3295.28C732.283,3288.76 737.576,3283.47 744.094,3283.47Z" style="fill:rgb(227,227,227);"/>
            <g transform="matrix(1,0,0,1,-5.90551,64.9606)">
                <text x="744.207px" y="3237.78px" style="font-family:'ArialMT', 'Arial', sans-serif;font-size:20.833px;fill:rgb(227,227,227);">1</text>
            </g>
            <g transform="matrix(1,0,0,1,-5.90551,-5.90551)">
                <text x="744.207px" y="3237.78px" style="font-family:'ArialMT', 'Arial', sans-serif;font-size:20.833px;fill:rgb(227,227,227);">1</text>
            </g>
            <g transform="matrix(1,0,0,1,6.70577,0)">
                <text x="826.772px" y="3451.93px" style="font-family:'ArialMT', 'Arial', sans-serif;font-size:20.833px;">The Number of Hazards that need to</text>
                <path d="M831.173,3451.93C831.173,3452.48 831.621,3452.93 832.173,3452.93L834.147,3452.93C834.699,3452.93 835.147,3452.48 835.147,3451.93L835.147,3439.78C835.147,3439.78 839.08,3439.78 839.08,3439.78C839.633,3439.78 840.08,3439.33 840.08,3438.78L840.08,3437.02C840.08,3436.47 839.633,3436.02 839.08,3436.02L827.26,3436.02C826.708,3436.02 826.26,3436.47 826.26,3437.02L826.26,3438.78C826.26,3439.33 826.708,3439.78 827.26,3439.78L831.173,3439.78C831.173,3439.78 831.173,3451.93 831.173,3451.93ZM832.173,3451.93L832.173,3438.78L827.26,3438.78L827.26,3437.02L839.08,3437.02L839.08,3438.78L834.147,3438.78L834.147,3451.93L832.173,3451.93Z" style="fill:white;"/>
                <path d="M839.871,3451.93C839.871,3452.48 840.318,3452.93 840.871,3452.93L842.702,3452.93C843.254,3452.93 843.702,3452.48 843.702,3451.93L843.702,3446.02C843.702,3445.34 843.765,3444.8 843.928,3444.42C844.048,3444.13 844.254,3443.91 844.537,3443.74C844.856,3443.56 845.197,3443.46 845.56,3443.46C845.968,3443.46 846.296,3443.54 846.519,3443.78C846.776,3444.05 846.839,3444.49 846.839,3445.09L846.839,3451.93C846.839,3452.48 847.287,3452.93 847.839,3452.93L849.67,3452.93C850.222,3452.93 850.67,3452.48 850.67,3451.93L850.67,3445.09C850.67,3443.84 850.496,3442.9 850.198,3442.25C849.854,3441.5 849.291,3440.9 848.493,3440.47C847.769,3440.09 846.919,3439.88 845.937,3439.88C845.121,3439.88 844.376,3440.04 843.702,3440.36C843.702,3440.36 843.702,3437.02 843.702,3437.02C843.702,3436.47 843.254,3436.02 842.702,3436.02L840.871,3436.02C840.318,3436.02 839.871,3436.47 839.871,3437.02L839.871,3451.93ZM840.871,3451.93L840.871,3437.02L842.702,3437.02L842.702,3442.37C843.556,3441.38 844.635,3440.88 845.937,3440.88C846.737,3440.88 847.432,3441.04 848.022,3441.36C848.612,3441.67 849.034,3442.11 849.289,3442.66C849.543,3443.22 849.67,3444.03 849.67,3445.09L849.67,3451.93L847.839,3451.93L847.839,3445.09C847.839,3444.17 847.641,3443.5 847.244,3443.09C846.847,3442.67 846.286,3442.46 845.56,3442.46C845.018,3442.46 844.507,3442.6 844.029,3442.88C843.551,3443.16 843.21,3443.55 843.007,3444.03C842.804,3444.51 842.702,3445.17 842.702,3446.02L842.702,3451.93L840.871,3451.93Z" style="fill:white;"/>
                <path d="M862.305,3447.86C862.59,3447.69 862.784,3447.38 862.795,3447.03C862.802,3446.8 862.806,3446.62 862.806,3446.51C862.806,3444.43 862.233,3442.83 861.164,3441.68C860.058,3440.49 858.638,3439.88 856.893,3439.88C855.099,3439.88 853.645,3440.5 852.519,3441.71C851.43,3442.88 850.847,3444.51 850.847,3446.62C850.847,3448.68 851.426,3450.26 852.511,3451.41C853.618,3452.57 855.105,3453.18 856.994,3453.18C858.496,3453.18 859.724,3452.79 860.69,3452.06C861.668,3451.32 862.349,3450.29 862.71,3448.95C862.786,3448.67 862.736,3448.37 862.575,3448.13C862.502,3448.02 862.41,3447.93 862.305,3447.86ZM859.853,3448.45L861.745,3448.69C861.446,3449.79 860.894,3450.65 860.087,3451.26C859.28,3451.87 858.249,3452.18 856.994,3452.18C855.414,3452.18 854.161,3451.69 853.235,3450.72C852.31,3449.74 851.847,3448.38 851.847,3446.62C851.847,3444.8 852.315,3443.39 853.251,3442.39C854.187,3441.39 855.401,3440.88 856.893,3440.88C858.337,3440.88 859.517,3441.38 860.433,3442.36C861.348,3443.34 861.806,3444.72 861.806,3446.51C861.806,3446.62 861.802,3446.78 861.796,3447L853.739,3447C853.807,3448.18 854.143,3449.09 854.746,3449.72C855.35,3450.35 856.102,3450.67 857.004,3450.67C857.676,3450.67 858.249,3450.49 858.724,3450.14C859.198,3449.79 859.575,3449.22 859.853,3448.45ZM858.962,3448L854.903,3448C855.023,3448.41 855.207,3448.76 855.469,3449.03C855.878,3449.46 856.392,3449.67 857.004,3449.67C857.441,3449.67 857.818,3449.57 858.127,3449.34C858.467,3449.09 858.713,3448.67 858.912,3448.11C858.926,3448.07 858.943,3448.03 858.962,3448ZM853.841,3445.49L859.873,3445.49C859.792,3444.58 859.561,3443.9 859.181,3443.45C858.598,3442.74 857.842,3442.39 856.913,3442.39C856.072,3442.39 855.365,3442.67 854.792,3443.23C854.219,3443.8 853.902,3444.55 853.841,3445.49ZM855.1,3444.49C855.2,3444.29 855.33,3444.11 855.493,3443.95C855.876,3443.57 856.351,3443.39 856.913,3443.39C857.526,3443.39 858.026,3443.62 858.411,3444.08C858.412,3444.09 858.413,3444.09 858.414,3444.09C858.509,3444.2 858.587,3444.34 858.65,3444.49L855.1,3444.49Z" style="fill:white;"/>
                <path d="M869.046,3451.93C869.046,3452.48 869.493,3452.93 870.046,3452.93L871.938,3452.93C872.49,3452.93 872.938,3452.48 872.938,3451.93L872.938,3443.51C872.938,3443.51 878.939,3452.49 878.939,3452.49C879.125,3452.76 879.437,3452.93 879.771,3452.93L881.795,3452.93C882.347,3452.93 882.795,3452.48 882.795,3451.93L882.795,3437.02C882.795,3436.47 882.347,3436.02 881.795,3436.02L879.903,3436.02C879.35,3436.02 878.903,3436.47 878.903,3437.02L878.903,3445.43C878.903,3445.43 872.901,3436.46 872.901,3436.46C872.715,3436.18 872.404,3436.02 872.07,3436.02L870.046,3436.02C869.493,3436.02 869.046,3436.47 869.046,3437.02L869.046,3451.93ZM870.046,3451.93L870.046,3437.02L872.07,3437.02L879.903,3448.73L879.903,3437.02L881.795,3437.02L881.795,3451.93L879.771,3451.93L871.938,3440.21L871.938,3451.93L870.046,3451.93Z" style="fill:white;"/>
                <path d="M891.134,3452.5C891.314,3452.76 891.616,3452.93 891.957,3452.93L893.595,3452.93C894.147,3452.93 894.595,3452.48 894.595,3451.93L894.595,3441.13C894.595,3440.58 894.147,3440.13 893.595,3440.13L891.764,3440.13C891.212,3440.13 890.764,3440.58 890.764,3441.13L890.764,3446.92C890.764,3447.67 890.703,3448.25 890.539,3448.64C890.422,3448.93 890.218,3449.15 889.937,3449.31C889.612,3449.5 889.265,3449.6 888.895,3449.6C888.583,3449.6 888.317,3449.54 888.105,3449.38C887.925,3449.25 887.813,3449.06 887.755,3448.83C887.689,3448.53 887.667,3447.96 887.667,3447.12L887.667,3441.13C887.667,3440.58 887.22,3440.13 886.667,3440.13L884.836,3440.13C884.284,3440.13 883.836,3440.58 883.836,3441.13L883.836,3447.82C883.836,3448.69 883.886,3449.33 883.969,3449.73C884.109,3450.42 884.359,3451 884.703,3451.47C885.062,3451.97 885.6,3452.4 886.34,3452.72C887.018,3453.02 887.747,3453.18 888.529,3453.18C889.509,3453.18 890.378,3452.95 891.134,3452.5ZM891.957,3451.93L891.957,3450.34C891.116,3451.57 889.974,3452.18 888.529,3452.18C887.892,3452.18 887.296,3452.05 886.744,3451.81C886.191,3451.57 885.781,3451.26 885.513,3450.89C885.245,3450.52 885.057,3450.07 884.948,3449.53C884.874,3449.17 884.836,3448.6 884.836,3447.82L884.836,3441.13L886.667,3441.13L886.667,3447.12C886.667,3448.08 886.705,3448.72 886.779,3449.05C886.895,3449.53 887.139,3449.91 887.512,3450.19C887.885,3450.46 888.346,3450.6 888.895,3450.6C889.445,3450.6 889.96,3450.46 890.441,3450.18C890.923,3449.89 891.264,3449.51 891.464,3449.03C891.664,3448.54 891.764,3447.84 891.764,3446.92L891.764,3441.13L893.595,3441.13L893.595,3451.93L891.957,3451.93Z" style="fill:white;"/>
                <path d="M898.904,3440.53C898.721,3440.29 898.43,3440.13 898.101,3440.13L896.464,3440.13C895.911,3440.13 895.464,3440.58 895.464,3441.13L895.464,3451.93C895.464,3452.48 895.911,3452.93 896.464,3452.93L898.295,3452.93C898.847,3452.93 899.295,3452.48 899.295,3451.93L899.295,3446.33C899.295,3445.5 899.36,3444.86 899.526,3444.42C899.639,3444.12 899.815,3443.88 900.068,3443.73C900.344,3443.56 900.645,3443.47 900.97,3443.47C901.264,3443.47 901.499,3443.5 901.628,3443.67C901.829,3443.95 901.882,3444.37 901.882,3444.91L901.882,3451.93C901.882,3452.48 902.33,3452.93 902.882,3452.93L904.714,3452.93C905.266,3452.93 905.714,3452.48 905.714,3451.93L905.714,3445.66C905.714,3444.87 905.824,3444.29 906.176,3443.93C906.488,3443.62 906.885,3443.47 907.358,3443.47C907.574,3443.47 907.764,3443.51 907.924,3443.61C908.037,3443.68 908.121,3443.77 908.165,3443.89C908.257,3444.14 908.281,3444.55 908.281,3445.13C908.281,3445.13 908.281,3451.93 908.281,3451.93C908.281,3452.48 908.729,3452.93 909.281,3452.93L911.102,3452.93C911.654,3452.93 912.102,3452.48 912.102,3451.93L912.102,3444.51C912.102,3442.96 911.681,3441.83 910.955,3441.08C910.207,3440.31 909.154,3439.88 907.765,3439.88C906.532,3439.88 905.461,3440.28 904.56,3441.1C904.362,3440.89 904.139,3440.7 903.89,3440.54C903.235,3440.12 902.401,3439.88 901.377,3439.88C900.472,3439.88 899.666,3440.09 898.958,3440.5L898.904,3440.53ZM896.464,3451.93L896.464,3441.13L898.101,3441.13L898.101,3442.64C898.44,3442.11 898.891,3441.69 899.454,3441.37C900.017,3441.05 900.658,3440.88 901.377,3440.88C902.177,3440.88 902.833,3441.05 903.345,3441.38C903.857,3441.71 904.218,3442.18 904.429,3442.78C905.283,3441.51 906.395,3440.88 907.765,3440.88C908.837,3440.88 909.661,3441.18 910.237,3441.77C910.814,3442.37 911.102,3443.28 911.102,3444.51L911.102,3451.93L909.281,3451.93L909.281,3445.13C909.281,3444.39 909.222,3443.87 909.103,3443.54C908.984,3443.22 908.769,3442.96 908.457,3442.77C908.145,3442.57 907.779,3442.47 907.358,3442.47C906.599,3442.47 905.968,3442.72 905.466,3443.23C904.964,3443.73 904.714,3444.54 904.714,3445.66L904.714,3451.93L902.882,3451.93L902.882,3444.91C902.882,3444.1 902.733,3443.49 902.435,3443.08C902.137,3442.67 901.648,3442.47 900.97,3442.47C900.455,3442.47 899.978,3442.61 899.541,3442.88C899.103,3443.15 898.786,3443.55 898.59,3444.07C898.393,3444.59 898.295,3445.34 898.295,3446.33L898.295,3451.93L896.464,3451.93Z" style="fill:white;"/>
                <path d="M916.236,3452.62C916.897,3452.99 917.654,3453.18 918.507,3453.18C920.076,3453.18 921.424,3452.57 922.544,3451.33C923.606,3450.16 924.177,3448.51 924.177,3446.37C924.177,3445.48 924.051,3444.65 923.804,3443.87C923.548,3443.06 923.189,3442.37 922.735,3441.8C922.254,3441.19 921.643,3440.71 920.897,3440.37C920.175,3440.05 919.409,3439.88 918.599,3439.88C917.887,3439.88 917.233,3440.02 916.639,3440.29C916.639,3440.29 916.639,3437.02 916.639,3437.02C916.639,3436.47 916.191,3436.02 915.639,3436.02L913.808,3436.02C913.256,3436.02 912.808,3436.47 912.808,3437.02L912.808,3451.93C912.808,3452.48 913.256,3452.93 913.808,3452.93L915.507,3452.93C915.794,3452.93 916.054,3452.81 916.236,3452.62ZM915.507,3451.93L913.808,3451.93L913.808,3437.02L915.639,3437.02L915.639,3442.34C916.412,3441.37 917.399,3440.88 918.599,3440.88C919.264,3440.88 919.893,3441.02 920.486,3441.28C921.079,3441.55 921.568,3441.93 921.951,3442.41C922.334,3442.9 922.634,3443.48 922.851,3444.17C923.068,3444.85 923.177,3445.59 923.177,3446.37C923.177,3448.22 922.719,3449.65 921.803,3450.66C920.888,3451.67 919.789,3452.18 918.507,3452.18C917.233,3452.18 916.232,3451.64 915.507,3450.58L915.507,3451.93ZM915.486,3446.45C915.486,3447.74 915.663,3448.68 916.015,3449.26C916.592,3450.2 917.372,3450.67 918.355,3450.67C919.155,3450.67 919.847,3450.32 920.43,3449.63C921.013,3448.93 921.305,3447.9 921.305,3446.52C921.305,3445.11 921.025,3444.07 920.466,3443.4C919.906,3442.72 919.23,3442.39 918.436,3442.39C917.636,3442.39 916.944,3442.74 916.361,3443.43C915.778,3444.13 915.486,3445.13 915.486,3446.45ZM916.486,3446.45C916.486,3445.42 916.671,3444.62 917.127,3444.08C917.498,3443.63 917.927,3443.39 918.436,3443.39C918.933,3443.39 919.347,3443.62 919.697,3444.04C920.14,3444.57 920.305,3445.4 920.305,3446.52C920.305,3447.61 920.124,3448.44 919.664,3448.98C919.293,3449.43 918.864,3449.67 918.355,3449.67C917.723,3449.67 917.239,3449.34 916.868,3448.73C916.868,3448.73 916.868,3448.73 916.868,3448.73C916.582,3448.27 916.486,3447.5 916.486,3446.45Z" style="fill:white;"/>
                <path d="M935.252,3447.86C935.537,3447.69 935.731,3447.38 935.742,3447.03C935.75,3446.8 935.753,3446.62 935.753,3446.51C935.753,3444.43 935.18,3442.83 934.112,3441.68C933.006,3440.49 931.585,3439.88 929.84,3439.88C928.046,3439.88 926.592,3440.5 925.467,3441.71C924.377,3442.88 923.794,3444.51 923.794,3446.62C923.794,3448.68 924.374,3450.26 925.458,3451.41C926.565,3452.57 928.052,3453.18 929.941,3453.18C931.443,3453.18 932.671,3452.79 933.637,3452.06C934.615,3451.32 935.296,3450.29 935.657,3448.95C935.733,3448.67 935.683,3448.37 935.522,3448.13C935.449,3448.02 935.358,3447.93 935.252,3447.86ZM932.8,3448.45L934.692,3448.69C934.394,3449.79 933.841,3450.65 933.034,3451.26C932.227,3451.87 931.196,3452.18 929.941,3452.18C928.361,3452.18 927.108,3451.69 926.183,3450.72C925.257,3449.74 924.794,3448.38 924.794,3446.62C924.794,3444.8 925.262,3443.39 926.198,3442.39C927.134,3441.39 928.348,3440.88 929.84,3440.88C931.284,3440.88 932.464,3441.38 933.38,3442.36C934.295,3443.34 934.753,3444.72 934.753,3446.51C934.753,3446.62 934.75,3446.78 934.743,3447L926.686,3447C926.754,3448.18 927.09,3449.09 927.693,3449.72C928.297,3450.35 929.05,3450.67 929.952,3450.67C930.623,3450.67 931.196,3450.49 931.671,3450.14C932.145,3449.79 932.522,3449.22 932.8,3448.45ZM931.909,3448L927.851,3448C927.97,3448.41 928.154,3448.76 928.416,3449.03C928.826,3449.46 929.339,3449.67 929.952,3449.67C930.389,3449.67 930.765,3449.57 931.074,3449.34C931.414,3449.09 931.66,3448.67 931.859,3448.11C931.873,3448.07 931.89,3448.03 931.909,3448ZM926.788,3445.49L932.82,3445.49C932.739,3444.58 932.508,3443.9 932.129,3443.45C931.545,3442.74 930.789,3442.39 929.86,3442.39C929.019,3442.39 928.312,3442.67 927.739,3443.23C927.166,3443.8 926.849,3444.55 926.788,3445.49ZM928.047,3444.49C928.148,3444.29 928.278,3444.11 928.44,3443.95C928.823,3443.57 929.298,3443.39 929.86,3443.39C930.473,3443.39 930.973,3443.62 931.358,3444.08C931.359,3444.09 931.36,3444.09 931.361,3444.09C931.456,3444.2 931.534,3444.34 931.597,3444.49L928.047,3444.49Z" style="fill:white;"/>
                <path d="M939.284,3440.38C939.107,3440.22 938.874,3440.13 938.619,3440.13L936.971,3440.13C936.418,3440.13 935.971,3440.58 935.971,3441.13L935.971,3451.93C935.971,3452.48 936.418,3452.93 936.971,3452.93L938.802,3452.93C939.354,3452.93 939.802,3452.48 939.802,3451.93L939.802,3446.28C939.802,3445.61 939.886,3445 940.061,3444.44C940.128,3444.23 940.232,3444.06 940.391,3443.93C940.532,3443.83 940.69,3443.78 940.867,3443.78C941.146,3443.78 941.422,3443.87 941.701,3444.03C941.956,3444.18 942.265,3444.21 942.544,3444.12C942.823,3444.02 943.044,3443.8 943.147,3443.52L943.778,3441.82C943.944,3441.38 943.771,3440.87 943.365,3440.62C942.551,3440.12 941.746,3439.88 940.958,3439.88C940.352,3439.88 939.793,3440.05 939.284,3440.38ZM936.971,3451.93L936.971,3441.13L938.619,3441.13L938.619,3442.77C939.039,3442 939.427,3441.49 939.783,3441.25C940.139,3441.01 940.531,3440.88 940.958,3440.88C941.575,3440.88 942.203,3441.08 942.84,3441.47L942.209,3443.17C941.762,3442.91 941.314,3442.78 940.867,3442.78C940.467,3442.78 940.107,3442.9 939.788,3443.14C939.47,3443.38 939.242,3443.71 939.107,3444.14C938.903,3444.79 938.802,3445.5 938.802,3446.28L938.802,3451.93L936.971,3451.93Z" style="fill:white;"/>
                <path d="M948.035,3446.53C948.035,3448.66 948.623,3450.28 949.713,3451.41C950.831,3452.58 952.289,3453.18 954.101,3453.18C955.219,3453.18 956.25,3452.91 957.194,3452.39C958.168,3451.85 958.908,3451.09 959.417,3450.12C959.894,3449.21 960.157,3447.97 960.157,3446.38C960.157,3444.36 959.569,3442.79 958.461,3441.65C957.331,3440.48 955.882,3439.88 954.101,3439.88C952.507,3439.88 951.159,3440.37 950.051,3441.33C950.05,3441.33 950.05,3441.33 950.049,3441.33C948.742,3442.46 948.035,3444.18 948.035,3446.53ZM949.035,3446.53C949.035,3444.53 949.591,3443.05 950.704,3442.08C951.633,3441.28 952.765,3440.88 954.101,3440.88C955.586,3440.88 956.8,3441.37 957.743,3442.34C958.686,3443.32 959.157,3444.66 959.157,3446.38C959.157,3447.77 958.948,3448.86 958.531,3449.66C958.114,3450.45 957.507,3451.07 956.71,3451.51C955.914,3451.95 955.044,3452.18 954.101,3452.18C952.589,3452.18 951.366,3451.69 950.434,3450.72C949.501,3449.75 949.035,3448.35 949.035,3446.53ZM950.917,3446.53C950.917,3447.91 951.219,3448.95 951.823,3449.64C952.426,3450.33 953.186,3450.67 954.101,3450.67C955.01,3450.67 955.766,3450.32 956.37,3449.63C956.973,3448.94 957.275,3447.89 957.275,3446.47C957.275,3445.13 956.972,3444.12 956.365,3443.43C955.758,3442.74 955.003,3442.4 954.101,3442.4C953.186,3442.4 952.426,3442.74 951.823,3443.43C951.219,3444.11 950.917,3445.15 950.917,3446.53ZM951.917,3446.53C951.917,3445.45 952.101,3444.62 952.573,3444.09C952.978,3443.63 953.487,3443.4 954.101,3443.4C954.705,3443.4 955.208,3443.63 955.614,3444.09C956.087,3444.63 956.275,3445.43 956.275,3446.47C956.275,3447.58 956.091,3448.43 955.616,3448.97C955.213,3449.44 954.708,3449.67 954.101,3449.67C953.488,3449.67 952.979,3449.44 952.574,3448.98C952.102,3448.44 951.917,3447.61 951.917,3446.53Z" style="fill:white;"/>
                <path d="M964.562,3440.13C964.562,3439.87 964.627,3439.56 964.645,3439.48C964.665,3439.48 964.69,3439.48 964.716,3439.47C964.823,3439.45 964.947,3439.44 965.087,3439.44C965.371,3439.44 965.672,3439.47 965.99,3439.53C966.252,3439.58 966.522,3439.51 966.74,3439.36C966.958,3439.21 967.106,3438.98 967.151,3438.71L967.426,3437.12C967.518,3436.58 967.166,3436.07 966.632,3435.97C965.939,3435.83 965.305,3435.76 964.731,3435.76C963.69,3435.76 962.889,3435.99 962.312,3436.37C961.682,3436.79 961.246,3437.34 960.997,3438.01C960.996,3438.01 960.995,3438.02 960.995,3438.02C960.838,3438.45 960.741,3439.1 960.741,3439.98L960.741,3440.13C960.741,3440.13 960.123,3440.13 960.123,3440.13C959.571,3440.13 959.123,3440.58 959.123,3441.13L959.123,3442.55C959.123,3443.1 959.571,3443.55 960.123,3443.55L960.741,3443.55C960.741,3443.55 960.741,3451.93 960.741,3451.93C960.741,3452.48 961.188,3452.93 961.741,3452.93L963.562,3452.93C964.114,3452.93 964.562,3452.48 964.562,3451.93L964.562,3443.55C964.562,3443.55 965.667,3443.55 965.667,3443.55C966.22,3443.55 966.667,3443.1 966.667,3442.55L966.667,3441.13C966.667,3440.58 966.22,3440.13 965.667,3440.13L964.562,3440.13ZM961.741,3451.93L961.741,3442.55L960.123,3442.55L960.123,3441.13L961.741,3441.13L961.741,3439.98C961.741,3439.25 961.805,3438.71 961.934,3438.36C962.11,3437.89 962.421,3437.5 962.865,3437.21C963.309,3436.91 963.931,3436.76 964.731,3436.76C965.247,3436.76 965.817,3436.83 966.44,3436.95L966.166,3438.54C965.786,3438.48 965.427,3438.44 965.087,3438.44C964.531,3438.44 964.138,3438.56 963.907,3438.8C963.677,3439.04 963.562,3439.48 963.562,3440.13L963.562,3441.13L965.667,3441.13L965.667,3442.55L963.562,3442.55L963.562,3451.93L961.741,3451.93Z" style="fill:white;"/>
                <path d="M972.175,3451.93C972.175,3452.48 972.622,3452.93 973.175,3452.93L975.148,3452.93C975.7,3452.93 976.148,3452.48 976.148,3451.93L976.148,3445.9C976.148,3445.9 981.9,3445.9 981.9,3445.9C981.9,3445.9 981.9,3451.93 981.9,3451.93C981.9,3452.48 982.347,3452.93 982.9,3452.93L984.873,3452.93C985.425,3452.93 985.873,3452.48 985.873,3451.93L985.873,3437.02C985.873,3436.47 985.425,3436.02 984.873,3436.02L982.9,3436.02C982.347,3436.02 981.9,3436.47 981.9,3437.02L981.9,3442.14C981.9,3442.14 976.148,3442.14 976.148,3442.14C976.148,3442.14 976.148,3437.02 976.148,3437.02C976.148,3436.47 975.7,3436.02 975.148,3436.02L973.175,3436.02C972.622,3436.02 972.175,3436.47 972.175,3437.02L972.175,3451.93ZM973.175,3451.93L973.175,3437.02L975.148,3437.02L975.148,3443.14L982.9,3443.14L982.9,3437.02L984.873,3437.02L984.873,3451.93L982.9,3451.93L982.9,3444.9L975.148,3444.9L975.148,3451.93L973.175,3451.93Z" style="fill:white;"/>
                <path d="M988.718,3445.37C988.483,3445.48 988.261,3445.61 988.05,3445.75C987.531,3446.1 987.11,3446.57 986.789,3447.15C986.468,3447.73 986.304,3448.38 986.304,3449.08C986.304,3450.29 986.737,3451.27 987.588,3452.05C988.385,3452.77 989.512,3453.18 990.997,3453.18C991.842,3453.18 992.633,3453.03 993.37,3452.75C993.702,3452.63 994.042,3452.46 994.388,3452.26L994.446,3452.38C994.616,3452.72 994.962,3452.93 995.341,3452.93L997.253,3452.93C997.608,3452.93 997.936,3452.74 998.115,3452.44C998.295,3452.13 998.299,3451.75 998.126,3451.44C997.952,3451.13 997.835,3450.81 997.776,3450.46C997.702,3450.04 997.673,3449.02 997.673,3447.4C997.673,3447.4 997.673,3444.96 997.673,3444.96C997.673,3444.06 997.631,3443.43 997.563,3443.08C997.562,3443.08 997.56,3443.07 997.559,3443.06C997.413,3442.39 997.148,3441.83 996.783,3441.39C996.42,3440.95 995.865,3440.56 995.093,3440.27C994.425,3440.02 993.56,3439.88 992.492,3439.88C991.434,3439.88 990.505,3440.03 989.701,3440.32C988.798,3440.65 988.117,3441.13 987.639,3441.73C987.182,3442.31 986.841,3443.06 986.641,3444C986.584,3444.27 986.642,3444.56 986.802,3444.78C986.962,3445.01 987.209,3445.16 987.485,3445.2L988.718,3445.37ZM994.974,3450.6C994.296,3451.18 993.643,3451.58 993.016,3451.82C992.389,3452.06 991.716,3452.18 990.997,3452.18C989.81,3452.18 988.898,3451.89 988.261,3451.31C987.623,3450.73 987.304,3449.99 987.304,3449.08C987.304,3448.55 987.425,3448.07 987.665,3447.63C987.906,3447.2 988.222,3446.85 988.611,3446.58C989.001,3446.32 989.441,3446.12 989.929,3445.98C990.288,3445.89 990.831,3445.79 991.556,3445.7C993.035,3445.53 994.123,3445.32 994.822,3445.08C994.829,3444.82 994.832,3444.66 994.832,3444.6C994.832,3443.85 994.659,3443.33 994.313,3443.02C993.845,3442.61 993.15,3442.4 992.228,3442.4C991.367,3442.4 990.731,3442.55 990.32,3442.85C989.91,3443.15 989.607,3443.69 989.41,3444.45L987.62,3444.21C987.782,3443.44 988.05,3442.83 988.423,3442.35C988.796,3441.88 989.335,3441.52 990.041,3441.26C990.746,3441.01 991.563,3440.88 992.492,3440.88C993.415,3440.88 994.164,3440.99 994.74,3441.21C995.317,3441.43 995.741,3441.7 996.012,3442.03C996.283,3442.36 996.473,3442.77 996.582,3443.27C996.643,3443.59 996.673,3444.15 996.673,3444.96L996.673,3447.4C996.673,3449.11 996.712,3450.18 996.79,3450.63C996.868,3451.09 997.022,3451.52 997.253,3451.93L995.341,3451.93C995.151,3451.55 995.029,3451.11 994.974,3450.6ZM994.822,3446.51C994.157,3446.78 993.16,3447.01 991.831,3447.2C991.078,3447.31 990.546,3447.43 990.234,3447.57C989.922,3447.7 989.681,3447.9 989.512,3448.16C989.342,3448.42 989.257,3448.71 989.257,3449.03C989.257,3449.52 989.442,3449.93 989.812,3450.25C990.181,3450.58 990.722,3450.74 991.434,3450.74C992.14,3450.74 992.767,3450.59 993.316,3450.28C993.866,3449.97 994.269,3449.55 994.527,3449.01C994.723,3448.6 994.822,3447.99 994.822,3447.18L994.822,3446.51ZM993.794,3447.86C993.766,3448.15 993.713,3448.39 993.624,3448.58C993.455,3448.93 993.187,3449.2 992.826,3449.41C992.421,3449.63 991.955,3449.74 991.434,3449.74C991.018,3449.74 990.689,3449.69 990.473,3449.5C990.33,3449.38 990.257,3449.22 990.257,3449.03C990.257,3448.91 990.287,3448.8 990.35,3448.71C990.416,3448.61 990.513,3448.54 990.633,3448.48C990.894,3448.37 991.343,3448.28 991.974,3448.19C992.664,3448.09 993.27,3447.98 993.794,3447.86ZM993.828,3444.32C993.818,3444.08 993.782,3443.89 993.652,3443.77C993.651,3443.77 993.651,3443.77 993.651,3443.77C993.335,3443.49 992.851,3443.4 992.228,3443.4C991.639,3443.4 991.193,3443.45 990.913,3443.66C990.652,3443.85 990.504,3444.22 990.379,3444.7C990.363,3444.76 990.342,3444.82 990.317,3444.88C990.629,3444.82 991.002,3444.76 991.436,3444.71C991.437,3444.71 991.437,3444.71 991.438,3444.71C992.417,3444.6 993.214,3444.47 993.828,3444.32Z" style="fill:white;"/>
                <path d="M1003.17,3443.61L997.791,3449.79C997.632,3449.97 997.545,3450.2 997.545,3450.45L997.545,3451.93C997.545,3452.48 997.993,3452.93 998.545,3452.93L1008.11,3452.93C1008.66,3452.93 1009.11,3452.48 1009.11,3451.93L1009.11,3450.35C1009.11,3449.8 1008.66,3449.35 1008.11,3449.35L1003.11,3449.35L1008.54,3442.99C1008.7,3442.81 1008.78,3442.58 1008.78,3442.34L1008.78,3441.13C1008.78,3440.58 1008.33,3440.13 1007.78,3440.13L998.952,3440.13C998.4,3440.13 997.952,3440.58 997.952,3441.13L997.952,3442.61C997.952,3443.16 998.4,3443.61 998.952,3443.61L1003.17,3443.61ZM998.545,3451.93L998.545,3450.45L1005.42,3442.55C1004.64,3442.59 1003.95,3442.61 1003.36,3442.61L998.952,3442.61L998.952,3441.13L1007.78,3441.13L1007.78,3442.34L1001.93,3449.2L1000.8,3450.45C1001.62,3450.39 1002.39,3450.35 1003.11,3450.35L1008.11,3450.35L1008.11,3451.93L998.545,3451.93Z" style="fill:white;"/>
                <path d="M1010.72,3445.37C1010.49,3445.48 1010.26,3445.61 1010.05,3445.75C1009.53,3446.1 1009.11,3446.57 1008.79,3447.15C1008.47,3447.73 1008.31,3448.38 1008.31,3449.08C1008.31,3450.29 1008.74,3451.27 1009.59,3452.05C1010.39,3452.77 1011.52,3453.18 1013,3453.18C1013.85,3453.18 1014.64,3453.03 1015.37,3452.75C1015.71,3452.63 1016.05,3452.46 1016.39,3452.26L1016.45,3452.38C1016.62,3452.72 1016.97,3452.93 1017.34,3452.93L1019.26,3452.93C1019.61,3452.93 1019.94,3452.74 1020.12,3452.44C1020.3,3452.13 1020.3,3451.75 1020.13,3451.44C1019.96,3451.13 1019.84,3450.81 1019.78,3450.46C1019.71,3450.04 1019.68,3449.02 1019.68,3447.4L1019.68,3444.96C1019.68,3444.06 1019.63,3443.43 1019.57,3443.08C1019.57,3443.08 1019.56,3443.07 1019.56,3443.06C1019.42,3442.39 1019.15,3441.83 1018.79,3441.39C1018.42,3440.95 1017.87,3440.56 1017.1,3440.27C1016.43,3440.02 1015.56,3439.88 1014.5,3439.88C1013.44,3439.88 1012.51,3440.03 1011.71,3440.32C1010.8,3440.65 1010.12,3441.13 1009.64,3441.73C1009.19,3442.31 1008.84,3443.06 1008.64,3444C1008.59,3444.27 1008.64,3444.56 1008.81,3444.78C1008.97,3445.01 1009.21,3445.16 1009.49,3445.2L1010.72,3445.37ZM1016.98,3450.6C1016.3,3451.18 1015.65,3451.58 1015.02,3451.82C1014.39,3452.06 1013.72,3452.18 1013,3452.18C1011.81,3452.18 1010.9,3451.89 1010.26,3451.31C1009.63,3450.73 1009.31,3449.99 1009.31,3449.08C1009.31,3448.55 1009.43,3448.07 1009.67,3447.63C1009.91,3447.2 1010.23,3446.85 1010.62,3446.58C1011,3446.32 1011.44,3446.12 1011.93,3445.98C1012.29,3445.89 1012.83,3445.79 1013.56,3445.7C1015.04,3445.53 1016.13,3445.32 1016.83,3445.08C1016.83,3444.82 1016.84,3444.66 1016.84,3444.6C1016.84,3443.85 1016.66,3443.33 1016.32,3443.02C1015.85,3442.61 1015.15,3442.4 1014.23,3442.4C1013.37,3442.4 1012.73,3442.55 1012.32,3442.85C1011.91,3443.15 1011.61,3443.69 1011.41,3444.45L1009.62,3444.21C1009.79,3443.44 1010.05,3442.83 1010.43,3442.35C1010.8,3441.88 1011.34,3441.52 1012.04,3441.26C1012.75,3441.01 1013.57,3440.88 1014.5,3440.88C1015.42,3440.88 1016.17,3440.99 1016.74,3441.21C1017.32,3441.43 1017.74,3441.7 1018.01,3442.03C1018.29,3442.36 1018.48,3442.77 1018.59,3443.27C1018.65,3443.59 1018.68,3444.15 1018.68,3444.96L1018.68,3447.4C1018.68,3449.11 1018.72,3450.18 1018.79,3450.63C1018.87,3451.09 1019.03,3451.52 1019.26,3451.93L1017.34,3451.93C1017.15,3451.55 1017.03,3451.11 1016.98,3450.6ZM1016.83,3446.51C1016.16,3446.78 1015.16,3447.01 1013.83,3447.2C1013.08,3447.31 1012.55,3447.43 1012.24,3447.57C1011.93,3447.7 1011.68,3447.9 1011.51,3448.16C1011.35,3448.42 1011.26,3448.71 1011.26,3449.03C1011.26,3449.52 1011.45,3449.93 1011.82,3450.25C1012.19,3450.58 1012.73,3450.74 1013.44,3450.74C1014.14,3450.74 1014.77,3450.59 1015.32,3450.28C1015.87,3449.97 1016.27,3449.55 1016.53,3449.01C1016.73,3448.6 1016.83,3447.99 1016.83,3447.18L1016.83,3446.51ZM1015.8,3447.86C1015.77,3448.15 1015.72,3448.39 1015.63,3448.58C1015.46,3448.93 1015.19,3449.2 1014.83,3449.41C1014.42,3449.63 1013.96,3449.74 1013.44,3449.74C1013.02,3449.74 1012.69,3449.69 1012.48,3449.5C1012.33,3449.38 1012.26,3449.22 1012.26,3449.03C1012.26,3448.91 1012.29,3448.8 1012.35,3448.71C1012.42,3448.61 1012.52,3448.54 1012.64,3448.48C1012.9,3448.37 1013.35,3448.28 1013.98,3448.19C1014.67,3448.09 1015.27,3447.98 1015.8,3447.86ZM1015.83,3444.32C1015.82,3444.08 1015.78,3443.89 1015.65,3443.77C1015.65,3443.77 1015.65,3443.77 1015.65,3443.77C1015.34,3443.49 1014.85,3443.4 1014.23,3443.4C1013.64,3443.4 1013.2,3443.45 1012.92,3443.66C1012.65,3443.85 1012.51,3444.22 1012.38,3444.7C1012.37,3444.76 1012.35,3444.82 1012.32,3444.88C1012.63,3444.82 1013,3444.76 1013.44,3444.71C1013.44,3444.71 1013.44,3444.71 1013.44,3444.71C1014.42,3444.6 1015.22,3444.47 1015.83,3444.32Z" style="fill:white;"/>
                <path d="M1023.81,3440.38C1023.63,3440.22 1023.4,3440.13 1023.14,3440.13L1021.49,3440.13C1020.94,3440.13 1020.49,3440.58 1020.49,3441.13L1020.49,3451.93C1020.49,3452.48 1020.94,3452.93 1021.49,3452.93L1023.33,3452.93C1023.88,3452.93 1024.33,3452.48 1024.33,3451.93L1024.33,3446.28C1024.33,3445.61 1024.41,3445 1024.58,3444.44C1024.65,3444.23 1024.76,3444.06 1024.91,3443.93C1025.06,3443.83 1025.21,3443.78 1025.39,3443.78C1025.67,3443.78 1025.94,3443.87 1026.22,3444.03C1026.48,3444.18 1026.79,3444.21 1027.07,3444.12C1027.35,3444.02 1027.57,3443.8 1027.67,3443.52L1028.3,3441.82C1028.47,3441.38 1028.29,3440.87 1027.89,3440.62C1027.08,3440.12 1026.27,3439.88 1025.48,3439.88C1024.88,3439.88 1024.32,3440.05 1023.81,3440.38ZM1021.49,3451.93L1021.49,3441.13L1023.14,3441.13L1023.14,3442.77C1023.56,3442 1023.95,3441.49 1024.31,3441.25C1024.66,3441.01 1025.06,3440.88 1025.48,3440.88C1026.1,3440.88 1026.73,3441.08 1027.36,3441.47L1026.73,3443.17C1026.29,3442.91 1025.84,3442.78 1025.39,3442.78C1024.99,3442.78 1024.63,3442.9 1024.31,3443.14C1023.99,3443.38 1023.77,3443.71 1023.63,3444.14C1023.43,3444.79 1023.33,3445.5 1023.33,3446.28L1023.33,3451.93L1021.49,3451.93Z" style="fill:white;"/>
                <path d="M1034.34,3440.3C1033.75,3440.03 1033.09,3439.88 1032.36,3439.88C1031.27,3439.88 1030.28,3440.17 1029.4,3440.75C1028.52,3441.32 1027.85,3442.14 1027.4,3443.23C1027,3444.22 1026.79,3445.32 1026.79,3446.54C1026.79,3447.81 1027.03,3448.92 1027.48,3449.9C1027.96,3450.93 1028.64,3451.72 1029.52,3452.3C1030.4,3452.88 1031.38,3453.18 1032.44,3453.18C1033.32,3453.18 1034.08,3452.99 1034.74,3452.62C1034.92,3452.81 1035.18,3452.93 1035.46,3452.93L1037.16,3452.93C1037.71,3452.93 1038.16,3452.48 1038.16,3451.93L1038.16,3437.02C1038.16,3436.47 1037.71,3436.02 1037.16,3436.02L1035.34,3436.02C1034.79,3436.02 1034.34,3436.47 1034.34,3437.02L1034.34,3440.3ZM1035.46,3451.93L1035.46,3450.57C1034.78,3451.64 1033.77,3452.18 1032.44,3452.18C1031.58,3452.18 1030.79,3451.94 1030.07,3451.46C1029.34,3450.99 1028.78,3450.33 1028.39,3449.47C1027.99,3448.62 1027.79,3447.64 1027.79,3446.54C1027.79,3445.46 1027.97,3444.48 1028.33,3443.61C1028.69,3442.73 1029.23,3442.05 1029.95,3441.59C1030.67,3441.12 1031.47,3440.88 1032.36,3440.88C1033.01,3440.88 1033.59,3441.02 1034.1,3441.3C1034.61,3441.57 1035.02,3441.93 1035.34,3442.37L1035.34,3437.02L1037.16,3437.02L1037.16,3451.93L1035.46,3451.93ZM1029.67,3446.54C1029.67,3447.92 1029.96,3448.96 1030.55,3449.64C1031.13,3450.33 1031.82,3450.67 1032.61,3450.67C1033.41,3450.67 1034.09,3450.34 1034.65,3449.69C1035.21,3449.03 1035.49,3448.03 1035.49,3446.69C1035.49,3445.21 1035.21,3444.13 1034.64,3443.44C1034.07,3442.74 1033.37,3442.4 1032.53,3442.4C1031.72,3442.4 1031.04,3442.73 1030.49,3443.4C1029.95,3444.06 1029.67,3445.11 1029.67,3446.54ZM1030.67,3446.54C1030.67,3445.4 1030.83,3444.56 1031.26,3444.03C1031.61,3443.62 1032.02,3443.4 1032.53,3443.4C1033.06,3443.4 1033.5,3443.63 1033.87,3444.07C1034.32,3444.63 1034.49,3445.51 1034.49,3446.69C1034.49,3447.74 1034.33,3448.53 1033.89,3449.04C1033.54,3449.45 1033.12,3449.67 1032.61,3449.67C1032.11,3449.67 1031.68,3449.43 1031.31,3448.99C1030.85,3448.45 1030.67,3447.63 1030.67,3446.54Z" style="fill:white;"/>
                <path d="M1040.91,3447.44L1039.15,3447.72C1038.88,3447.76 1038.65,3447.91 1038.49,3448.13C1038.34,3448.34 1038.28,3448.62 1038.32,3448.88C1038.57,3450.3 1039.18,3451.36 1040.09,3452.08C1040.97,3452.78 1042.24,3453.18 1043.92,3453.18C1044.92,3453.18 1045.82,3452.99 1046.61,3452.65C1047.47,3452.27 1048.12,3451.72 1048.58,3451.03C1049.05,3450.32 1049.28,3449.56 1049.28,3448.76C1049.28,3447.9 1049.06,3447.2 1048.66,3446.62C1048.27,3446.05 1047.73,3445.61 1047.03,3445.31C1046.89,3445.25 1046.71,3445.18 1046.51,3445.11L1048.01,3444.91C1048.27,3444.87 1048.52,3444.73 1048.68,3444.51C1048.84,3444.29 1048.9,3444.02 1048.86,3443.75C1048.71,3442.87 1048.43,3442.18 1048.05,3441.65C1047.64,3441.1 1047.03,3440.64 1046.18,3440.32C1045.43,3440.03 1044.57,3439.88 1043.59,3439.88C1042.92,3439.88 1042.3,3439.97 1041.72,3440.14C1041.1,3440.33 1040.62,3440.56 1040.26,3440.82C1039.75,3441.18 1039.35,3441.64 1039.06,3442.18C1038.76,3442.74 1038.61,3443.34 1038.61,3444C1038.61,3444.72 1038.8,3445.37 1039.16,3445.97C1039.53,3446.56 1040.06,3447.04 1040.76,3447.38C1040.81,3447.4 1040.86,3447.42 1040.91,3447.44ZM1039.31,3448.71L1041.12,3448.42C1041.22,3449.15 1041.5,3449.7 1041.97,3450.09C1042.43,3450.48 1043.08,3450.67 1043.91,3450.67C1044.76,3450.67 1045.38,3450.5 1045.79,3450.16C1046.19,3449.81 1046.4,3449.41 1046.4,3448.95C1046.4,3448.54 1046.22,3448.21 1045.86,3447.97C1045.61,3447.81 1044.98,3447.6 1043.99,3447.35C1042.64,3447.01 1041.71,3446.72 1041.19,3446.47C1040.67,3446.23 1040.28,3445.88 1040.01,3445.45C1039.75,3445.01 1039.61,3444.53 1039.61,3444C1039.61,3443.51 1039.72,3443.07 1039.94,3442.66C1040.16,3442.25 1040.46,3441.91 1040.84,3441.64C1041.13,3441.43 1041.52,3441.25 1042.01,3441.1C1042.5,3440.96 1043.03,3440.88 1043.59,3440.88C1044.44,3440.88 1045.18,3441.01 1045.82,3441.25C1046.46,3441.49 1046.94,3441.83 1047.24,3442.24C1047.55,3442.66 1047.76,3443.22 1047.87,3443.91L1046.08,3444.16C1046,3443.6 1045.76,3443.17 1045.37,3442.86C1044.98,3442.55 1044.43,3442.39 1043.72,3442.39C1042.88,3442.39 1042.28,3442.53 1041.92,3442.81C1041.56,3443.08 1041.38,3443.41 1041.38,3443.78C1041.38,3444.02 1041.46,3444.23 1041.61,3444.42C1041.75,3444.62 1041.99,3444.78 1042.31,3444.91C1042.49,3444.98 1043.03,3445.14 1043.92,3445.38C1045.22,3445.73 1046.12,3446.01 1046.64,3446.23C1047.15,3446.45 1047.55,3446.77 1047.84,3447.19C1048.13,3447.61 1048.28,3448.13 1048.28,3448.76C1048.28,3449.37 1048.1,3449.94 1047.74,3450.48C1047.39,3451.02 1046.88,3451.44 1046.2,3451.73C1045.53,3452.03 1044.77,3452.18 1043.92,3452.18C1042.52,3452.18 1041.45,3451.88 1040.71,3451.3C1039.98,3450.72 1039.51,3449.85 1039.31,3448.71ZM1041.91,3447.81C1042.01,3447.94 1042.08,3448.11 1042.11,3448.28C1042.17,3448.73 1042.32,3449.08 1042.61,3449.32C1042.91,3449.58 1043.36,3449.67 1043.91,3449.67C1044.46,3449.67 1044.88,3449.61 1045.14,3449.39C1045.3,3449.26 1045.4,3449.12 1045.4,3448.95C1045.4,3448.89 1045.36,3448.85 1045.31,3448.81C1045.09,3448.67 1044.57,3448.53 1043.74,3448.32C1043.74,3448.32 1043.74,3448.32 1043.74,3448.32C1043.02,3448.14 1042.4,3447.97 1041.91,3447.81ZM1045.25,3444.71C1045.17,3444.59 1045.11,3444.45 1045.09,3444.3C1045.05,3444.02 1044.95,3443.8 1044.75,3443.64C1044.51,3443.45 1044.16,3443.39 1043.72,3443.39C1043.17,3443.39 1042.77,3443.42 1042.53,3443.6C1042.45,3443.66 1042.38,3443.7 1042.38,3443.78C1042.38,3443.79 1042.39,3443.8 1042.39,3443.81C1042.39,3443.81 1042.4,3443.82 1042.4,3443.82C1042.46,3443.89 1042.55,3443.93 1042.68,3443.98C1042.87,3444.05 1043.37,3444.19 1044.19,3444.41C1044.57,3444.52 1044.93,3444.62 1045.25,3444.71Z" style="fill:white;"/>
                <path d="M1059.42,3449.36C1059.41,3449.23 1059.4,3449.04 1059.4,3448.87L1059.4,3443.55C1059.4,3443.55 1060.24,3443.55 1060.24,3443.55C1060.79,3443.55 1061.24,3443.1 1061.24,3442.55L1061.24,3441.13C1061.24,3440.58 1060.79,3440.13 1060.24,3440.13L1059.4,3440.13C1059.4,3440.13 1059.4,3437.35 1059.4,3437.35C1059.4,3436.99 1059.21,3436.66 1058.89,3436.48C1058.58,3436.31 1058.19,3436.31 1057.88,3436.5L1056.06,3437.6C1055.76,3437.78 1055.58,3438.1 1055.58,3438.45L1055.58,3440.13C1055.58,3440.13 1055.24,3440.13 1055.24,3440.13C1054.68,3440.13 1054.24,3440.58 1054.24,3441.13L1054.24,3442.55C1054.24,3443.1 1054.68,3443.55 1055.24,3443.55L1055.58,3443.55C1055.58,3443.55 1055.58,3448.77 1055.58,3448.77C1055.58,3450.07 1055.71,3450.92 1055.89,3451.33C1056.12,3451.86 1056.51,3452.3 1057.08,3452.62C1057.56,3452.9 1058.24,3453.07 1059.12,3453.07C1059.59,3453.07 1060.12,3453.01 1060.71,3452.89C1061.24,3452.78 1061.58,3452.28 1061.49,3451.75L1061.23,3450.13C1061.14,3449.6 1060.64,3449.23 1060.1,3449.3C1059.83,3449.34 1059.61,3449.36 1059.44,3449.36L1059.42,3449.36ZM1060.24,3450.29L1060.51,3451.91C1059.99,3452.02 1059.53,3452.07 1059.12,3452.07C1058.46,3452.07 1057.94,3451.97 1057.58,3451.76C1057.21,3451.55 1056.95,3451.27 1056.8,3450.93C1056.65,3450.59 1056.58,3449.87 1056.58,3448.77L1056.58,3442.55L1055.24,3442.55L1055.24,3441.13L1056.58,3441.13L1056.58,3438.45L1058.4,3437.35L1058.4,3441.13L1060.24,3441.13L1060.24,3442.55L1058.4,3442.55L1058.4,3448.87C1058.4,3449.39 1058.43,3449.73 1058.5,3449.88C1058.56,3450.03 1058.67,3450.14 1058.81,3450.23C1058.96,3450.32 1059.17,3450.36 1059.44,3450.36C1059.64,3450.36 1059.91,3450.34 1060.24,3450.29Z" style="fill:white;"/>
                <path d="M1061.03,3451.93C1061.03,3452.48 1061.48,3452.93 1062.03,3452.93L1063.86,3452.93C1064.41,3452.93 1064.86,3452.48 1064.86,3451.93L1064.86,3446.02C1064.86,3445.34 1064.93,3444.8 1065.09,3444.42C1065.21,3444.13 1065.41,3443.91 1065.7,3443.74C1066.02,3443.56 1066.36,3443.46 1066.72,3443.46C1067.13,3443.46 1067.46,3443.54 1067.68,3443.78C1067.94,3444.05 1068,3444.49 1068,3445.09L1068,3451.93C1068,3452.48 1068.45,3452.93 1069,3452.93L1070.83,3452.93C1071.38,3452.93 1071.83,3452.48 1071.83,3451.93L1071.83,3445.09C1071.83,3443.84 1071.66,3442.9 1071.36,3442.25C1071.02,3441.5 1070.45,3440.9 1069.65,3440.47C1068.93,3440.09 1068.08,3439.88 1067.1,3439.88C1066.28,3439.88 1065.54,3440.04 1064.86,3440.36C1064.86,3440.36 1064.86,3437.02 1064.86,3437.02C1064.86,3436.47 1064.41,3436.02 1063.86,3436.02L1062.03,3436.02C1061.48,3436.02 1061.03,3436.47 1061.03,3437.02L1061.03,3451.93ZM1062.03,3451.93L1062.03,3437.02L1063.86,3437.02L1063.86,3442.37C1064.72,3441.38 1065.8,3440.88 1067.1,3440.88C1067.9,3440.88 1068.59,3441.04 1069.18,3441.36C1069.77,3441.67 1070.19,3442.11 1070.45,3442.66C1070.7,3443.22 1070.83,3444.03 1070.83,3445.09L1070.83,3451.93L1069,3451.93L1069,3445.09C1069,3444.17 1068.8,3443.5 1068.4,3443.09C1068.01,3442.67 1067.45,3442.46 1066.72,3442.46C1066.18,3442.46 1065.67,3442.6 1065.19,3442.88C1064.71,3443.16 1064.37,3443.55 1064.17,3444.03C1063.96,3444.51 1063.86,3445.17 1063.86,3446.02L1063.86,3451.93L1062.03,3451.93Z" style="fill:white;"/>
                <path d="M1074.41,3445.37C1074.18,3445.48 1073.95,3445.61 1073.74,3445.75C1073.22,3446.1 1072.8,3446.57 1072.48,3447.15C1072.16,3447.73 1072,3448.38 1072,3449.08C1072,3450.29 1072.43,3451.27 1073.28,3452.05C1074.08,3452.77 1075.21,3453.18 1076.69,3453.18C1077.54,3453.18 1078.33,3453.03 1079.06,3452.75C1079.4,3452.63 1079.74,3452.46 1080.08,3452.26L1080.14,3452.38C1080.31,3452.72 1080.65,3452.93 1081.03,3452.93L1082.95,3452.93C1083.3,3452.93 1083.63,3452.74 1083.81,3452.44C1083.99,3452.13 1083.99,3451.75 1083.82,3451.44C1083.64,3451.13 1083.53,3450.81 1083.47,3450.46C1083.39,3450.04 1083.37,3449.02 1083.37,3447.4L1083.37,3444.96C1083.37,3444.06 1083.32,3443.43 1083.26,3443.08C1083.26,3443.08 1083.25,3443.07 1083.25,3443.06C1083.11,3442.39 1082.84,3441.83 1082.48,3441.39C1082.11,3440.95 1081.56,3440.56 1080.79,3440.27C1080.12,3440.02 1079.25,3439.88 1078.19,3439.88C1077.13,3439.88 1076.2,3440.03 1075.39,3440.32C1074.49,3440.65 1073.81,3441.13 1073.33,3441.73C1072.88,3442.31 1072.53,3443.06 1072.34,3444C1072.28,3444.27 1072.34,3444.56 1072.5,3444.78C1072.65,3445.01 1072.9,3445.16 1073.18,3445.2L1074.41,3445.37ZM1080.67,3450.6C1079.99,3451.18 1079.34,3451.58 1078.71,3451.82C1078.08,3452.06 1077.41,3452.18 1076.69,3452.18C1075.5,3452.18 1074.59,3451.89 1073.95,3451.31C1073.32,3450.73 1073,3449.99 1073,3449.08C1073,3448.55 1073.12,3448.07 1073.36,3447.63C1073.6,3447.2 1073.91,3446.85 1074.31,3446.58C1074.69,3446.32 1075.13,3446.12 1075.62,3445.98C1075.98,3445.89 1076.52,3445.79 1077.25,3445.7C1078.73,3445.53 1079.82,3445.32 1080.52,3445.08C1080.52,3444.82 1080.53,3444.66 1080.53,3444.6C1080.53,3443.85 1080.35,3443.33 1080.01,3443.02C1079.54,3442.61 1078.84,3442.4 1077.92,3442.4C1077.06,3442.4 1076.42,3442.55 1076.01,3442.85C1075.6,3443.15 1075.3,3443.69 1075.1,3444.45L1073.31,3444.21C1073.48,3443.44 1073.74,3442.83 1074.12,3442.35C1074.49,3441.88 1075.03,3441.52 1075.73,3441.26C1076.44,3441.01 1077.26,3440.88 1078.19,3440.88C1079.11,3440.88 1079.86,3440.99 1080.43,3441.21C1081.01,3441.43 1081.43,3441.7 1081.7,3442.03C1081.98,3442.36 1082.17,3442.77 1082.28,3443.27C1082.34,3443.59 1082.37,3444.15 1082.37,3444.96L1082.37,3447.4C1082.37,3449.11 1082.41,3450.18 1082.48,3450.63C1082.56,3451.09 1082.72,3451.52 1082.95,3451.93L1081.03,3451.93C1080.84,3451.55 1080.72,3451.11 1080.67,3450.6ZM1080.52,3446.51C1079.85,3446.78 1078.85,3447.01 1077.52,3447.2C1076.77,3447.31 1076.24,3447.43 1075.93,3447.57C1075.62,3447.7 1075.38,3447.9 1075.2,3448.16C1075.04,3448.42 1074.95,3448.71 1074.95,3449.03C1074.95,3449.52 1075.14,3449.93 1075.51,3450.25C1075.88,3450.58 1076.42,3450.74 1077.13,3450.74C1077.83,3450.74 1078.46,3450.59 1079.01,3450.28C1079.56,3449.97 1079.96,3449.55 1080.22,3449.01C1080.42,3448.6 1080.52,3447.99 1080.52,3447.18L1080.52,3446.51ZM1079.49,3447.86C1079.46,3448.15 1079.41,3448.39 1079.32,3448.58C1079.15,3448.93 1078.88,3449.2 1078.52,3449.41C1078.11,3449.63 1077.65,3449.74 1077.13,3449.74C1076.71,3449.74 1076.38,3449.69 1076.17,3449.5C1076.02,3449.38 1075.95,3449.22 1075.95,3449.03C1075.95,3448.91 1075.98,3448.8 1076.04,3448.71C1076.11,3448.61 1076.21,3448.54 1076.33,3448.48C1076.59,3448.37 1077.04,3448.28 1077.67,3448.19C1078.36,3448.09 1078.96,3447.98 1079.49,3447.86ZM1079.52,3444.32C1079.51,3444.08 1079.48,3443.89 1079.35,3443.77C1079.35,3443.77 1079.34,3443.77 1079.34,3443.77C1079.03,3443.49 1078.54,3443.4 1077.92,3443.4C1077.33,3443.4 1076.89,3443.45 1076.61,3443.66C1076.35,3443.85 1076.2,3444.22 1076.07,3444.7C1076.06,3444.76 1076.04,3444.82 1076.01,3444.88C1076.32,3444.82 1076.7,3444.76 1077.13,3444.71C1077.13,3444.71 1077.13,3444.71 1077.13,3444.71C1078.11,3444.6 1078.91,3444.47 1079.52,3444.32Z" style="fill:white;"/>
                <path d="M1088.38,3449.36C1088.37,3449.23 1088.36,3449.04 1088.36,3448.87C1088.36,3448.87 1088.36,3443.55 1088.36,3443.55C1088.36,3443.55 1089.2,3443.55 1089.2,3443.55C1089.76,3443.55 1090.2,3443.1 1090.2,3442.55L1090.2,3441.13C1090.2,3440.58 1089.76,3440.13 1089.2,3440.13L1088.36,3440.13C1088.36,3440.13 1088.36,3437.35 1088.36,3437.35C1088.36,3436.99 1088.17,3436.66 1087.85,3436.48C1087.54,3436.31 1087.15,3436.31 1086.85,3436.5L1085.02,3437.6C1084.72,3437.78 1084.54,3438.1 1084.54,3438.45L1084.54,3440.13C1084.54,3440.13 1084.2,3440.13 1084.2,3440.13C1083.64,3440.13 1083.2,3440.58 1083.2,3441.13L1083.2,3442.55C1083.2,3443.1 1083.64,3443.55 1084.2,3443.55L1084.54,3443.55C1084.54,3443.55 1084.54,3448.77 1084.54,3448.77C1084.54,3450.07 1084.67,3450.92 1084.85,3451.33C1085.08,3451.86 1085.47,3452.3 1086.04,3452.62C1086.53,3452.9 1087.2,3453.07 1088.08,3453.07C1088.55,3453.07 1089.08,3453.01 1089.67,3452.89C1090.2,3452.78 1090.54,3452.28 1090.45,3451.75L1090.19,3450.13C1090.1,3449.6 1089.6,3449.23 1089.06,3449.3C1088.79,3449.34 1088.57,3449.36 1088.4,3449.36L1088.38,3449.36ZM1089.2,3450.29L1089.47,3451.91C1088.95,3452.02 1088.49,3452.07 1088.08,3452.07C1087.42,3452.07 1086.9,3451.97 1086.54,3451.76C1086.17,3451.55 1085.91,3451.27 1085.76,3450.93C1085.62,3450.59 1085.54,3449.87 1085.54,3448.77L1085.54,3442.55L1084.2,3442.55L1084.2,3441.13L1085.54,3441.13L1085.54,3438.45L1087.36,3437.35L1087.36,3441.13L1089.2,3441.13L1089.2,3442.55L1087.36,3442.55L1087.36,3448.87C1087.36,3449.39 1087.39,3449.73 1087.46,3449.88C1087.52,3450.03 1087.63,3450.14 1087.77,3450.23C1087.92,3450.32 1088.13,3450.36 1088.4,3450.36C1088.6,3450.36 1088.87,3450.34 1089.2,3450.29Z" style="fill:white;"/>
                <path d="M1099.24,3440.54C1099.05,3440.29 1098.76,3440.13 1098.43,3440.13L1096.78,3440.13C1096.23,3440.13 1095.78,3440.58 1095.78,3441.13L1095.78,3451.93C1095.78,3452.48 1096.23,3452.93 1096.78,3452.93L1098.61,3452.93C1099.16,3452.93 1099.61,3452.48 1099.61,3451.93L1099.61,3446.03C1099.61,3445.03 1099.71,3444.32 1100.12,3443.97C1100.5,3443.63 1100.96,3443.47 1101.48,3443.47C1101.77,3443.47 1102.02,3443.53 1102.24,3443.66C1102.4,3443.75 1102.52,3443.88 1102.58,3444.05C1102.69,3444.34 1102.73,3444.78 1102.73,3445.36L1102.73,3451.93C1102.73,3452.48 1103.18,3452.93 1103.73,3452.93L1105.56,3452.93C1106.11,3452.93 1106.56,3452.48 1106.56,3451.93L1106.56,3445.29C1106.56,3444.35 1106.51,3443.69 1106.44,3443.31C1106.44,3443.31 1106.44,3443.31 1106.44,3443.31C1106.3,3442.64 1106.05,3442.06 1105.7,3441.57C1105.34,3441.06 1104.79,3440.63 1104.06,3440.32C1103.39,3440.03 1102.66,3439.88 1101.87,3439.88C1100.86,3439.88 1099.98,3440.1 1099.24,3440.54ZM1096.78,3451.93L1096.78,3441.13L1098.43,3441.13L1098.43,3442.66C1099.22,3441.48 1100.37,3440.88 1101.87,3440.88C1102.52,3440.88 1103.12,3441 1103.66,3441.24C1104.21,3441.47 1104.62,3441.78 1104.89,3442.16C1105.16,3442.53 1105.35,3442.99 1105.46,3443.51C1105.53,3443.85 1105.56,3444.44 1105.56,3445.29L1105.56,3451.93L1103.73,3451.93L1103.73,3445.36C1103.73,3444.61 1103.66,3444.06 1103.52,3443.69C1103.37,3443.32 1103.12,3443.02 1102.76,3442.8C1102.39,3442.58 1101.97,3442.47 1101.48,3442.47C1100.7,3442.47 1100.03,3442.72 1099.46,3443.21C1098.89,3443.71 1098.61,3444.65 1098.61,3446.03L1098.61,3451.93L1096.78,3451.93Z" style="fill:white;"/>
                <path d="M1118.21,3447.86C1118.5,3447.69 1118.69,3447.38 1118.7,3447.03C1118.71,3446.8 1118.72,3446.62 1118.72,3446.51C1118.72,3444.43 1118.14,3442.83 1117.08,3441.68C1115.97,3440.49 1114.55,3439.88 1112.8,3439.88C1111.01,3439.88 1109.56,3440.5 1108.43,3441.71C1107.34,3442.88 1106.76,3444.51 1106.76,3446.62C1106.76,3448.68 1107.34,3450.26 1108.42,3451.41C1109.53,3452.57 1111.02,3453.18 1112.9,3453.18C1114.41,3453.18 1115.63,3452.79 1116.6,3452.06C1117.58,3451.32 1118.26,3450.29 1118.62,3448.95C1118.7,3448.67 1118.65,3448.37 1118.49,3448.13C1118.41,3448.02 1118.32,3447.93 1118.21,3447.86ZM1115.76,3448.45L1117.65,3448.69C1117.36,3449.79 1116.8,3450.65 1116,3451.26C1115.19,3451.87 1114.16,3452.18 1112.9,3452.18C1111.32,3452.18 1110.07,3451.69 1109.15,3450.72C1108.22,3449.74 1107.76,3448.38 1107.76,3446.62C1107.76,3444.8 1108.23,3443.39 1109.16,3442.39C1110.1,3441.39 1111.31,3440.88 1112.8,3440.88C1114.25,3440.88 1115.43,3441.38 1116.34,3442.36C1117.26,3443.34 1117.72,3444.72 1117.72,3446.51C1117.72,3446.62 1117.71,3446.78 1117.71,3447L1109.65,3447C1109.72,3448.18 1110.05,3449.09 1110.66,3449.72C1111.26,3450.35 1112.01,3450.67 1112.91,3450.67C1113.59,3450.67 1114.16,3450.49 1114.63,3450.14C1115.11,3449.79 1115.49,3449.22 1115.76,3448.45ZM1114.87,3448L1110.81,3448C1110.93,3448.41 1111.12,3448.76 1111.38,3449.03C1111.79,3449.46 1112.3,3449.67 1112.91,3449.67C1113.35,3449.67 1113.73,3449.57 1114.04,3449.34C1114.38,3449.09 1114.62,3448.67 1114.82,3448.11C1114.84,3448.07 1114.85,3448.03 1114.87,3448ZM1109.75,3445.49L1115.78,3445.49C1115.7,3444.58 1115.47,3443.9 1115.09,3443.45C1114.51,3442.74 1113.75,3442.39 1112.82,3442.39C1111.98,3442.39 1111.28,3442.67 1110.7,3443.23C1110.13,3443.8 1109.81,3444.55 1109.75,3445.49ZM1111.01,3444.49C1111.11,3444.29 1111.24,3444.11 1111.4,3443.95C1111.79,3443.57 1112.26,3443.39 1112.82,3443.39C1113.44,3443.39 1113.94,3443.62 1114.32,3444.08C1114.32,3444.09 1114.32,3444.09 1114.32,3444.09C1114.42,3444.2 1114.5,3444.34 1114.56,3444.49L1111.01,3444.49Z" style="fill:white;"/>
                <path d="M1129.8,3447.86C1130.09,3447.69 1130.28,3447.38 1130.29,3447.03C1130.3,3446.8 1130.3,3446.62 1130.3,3446.51C1130.3,3444.43 1129.73,3442.83 1128.66,3441.68C1127.56,3440.49 1126.13,3439.88 1124.39,3439.88C1122.6,3439.88 1121.14,3440.5 1120.02,3441.71C1118.93,3442.88 1118.34,3444.51 1118.34,3446.62C1118.34,3448.68 1118.92,3450.26 1120.01,3451.41C1121.11,3452.57 1122.6,3453.18 1124.49,3453.18C1125.99,3453.18 1127.22,3452.79 1128.19,3452.06C1129.16,3451.32 1129.85,3450.29 1130.21,3448.95C1130.28,3448.67 1130.23,3448.37 1130.07,3448.13C1130,3448.02 1129.91,3447.93 1129.8,3447.86ZM1127.35,3448.45L1129.24,3448.69C1128.94,3449.79 1128.39,3450.65 1127.58,3451.26C1126.78,3451.87 1125.75,3452.18 1124.49,3452.18C1122.91,3452.18 1121.66,3451.69 1120.73,3450.72C1119.81,3449.74 1119.34,3448.38 1119.34,3446.62C1119.34,3444.8 1119.81,3443.39 1120.75,3442.39C1121.68,3441.39 1122.9,3440.88 1124.39,3440.88C1125.83,3440.88 1127.01,3441.38 1127.93,3442.36C1128.85,3443.34 1129.3,3444.72 1129.3,3446.51C1129.3,3446.62 1129.3,3446.78 1129.29,3447L1121.24,3447C1121.3,3448.18 1121.64,3449.09 1122.24,3449.72C1122.85,3450.35 1123.6,3450.67 1124.5,3450.67C1125.17,3450.67 1125.75,3450.49 1126.22,3450.14C1126.69,3449.79 1127.07,3449.22 1127.35,3448.45ZM1126.46,3448L1122.4,3448C1122.52,3448.41 1122.7,3448.76 1122.96,3449.03C1123.38,3449.46 1123.89,3449.67 1124.5,3449.67C1124.94,3449.67 1125.32,3449.57 1125.62,3449.34C1125.96,3449.09 1126.21,3448.67 1126.41,3448.11C1126.42,3448.07 1126.44,3448.03 1126.46,3448ZM1121.34,3445.49L1127.37,3445.49C1127.29,3444.58 1127.06,3443.9 1126.68,3443.45C1126.1,3442.74 1125.34,3442.39 1124.41,3442.39C1123.57,3442.39 1122.86,3442.67 1122.29,3443.23C1121.72,3443.8 1121.4,3444.55 1121.34,3445.49ZM1122.6,3444.49C1122.7,3444.29 1122.83,3444.11 1122.99,3443.95C1123.37,3443.57 1123.85,3443.39 1124.41,3443.39C1125.02,3443.39 1125.52,3443.62 1125.91,3444.08C1125.91,3444.09 1125.91,3444.09 1125.91,3444.09C1126.01,3444.2 1126.08,3444.34 1126.15,3444.49L1122.6,3444.49Z" style="fill:white;"/>
                <path d="M1137.43,3440.3C1136.84,3440.03 1136.18,3439.88 1135.45,3439.88C1134.36,3439.88 1133.37,3440.17 1132.49,3440.75C1131.61,3441.32 1130.93,3442.14 1130.49,3443.23C1130.09,3444.22 1129.88,3445.32 1129.88,3446.54C1129.88,3447.81 1130.11,3448.92 1130.57,3449.9C1131.05,3450.93 1131.73,3451.72 1132.6,3452.3C1133.49,3452.88 1134.47,3453.18 1135.53,3453.18C1136.4,3453.18 1137.17,3452.99 1137.83,3452.62C1138.01,3452.81 1138.27,3452.93 1138.55,3452.93L1140.25,3452.93C1140.8,3452.93 1141.25,3452.48 1141.25,3451.93L1141.25,3437.02C1141.25,3436.47 1140.8,3436.02 1140.25,3436.02L1138.43,3436.02C1137.88,3436.02 1137.43,3436.47 1137.43,3437.02L1137.43,3440.3ZM1138.55,3451.93L1138.55,3450.57C1137.86,3451.64 1136.86,3452.18 1135.53,3452.18C1134.67,3452.18 1133.88,3451.94 1133.15,3451.46C1132.43,3450.99 1131.87,3450.33 1131.47,3449.47C1131.08,3448.62 1130.88,3447.64 1130.88,3446.54C1130.88,3445.46 1131.06,3444.48 1131.42,3443.61C1131.78,3442.73 1132.32,3442.05 1133.04,3441.59C1133.76,3441.12 1134.56,3440.88 1135.45,3440.88C1136.1,3440.88 1136.68,3441.02 1137.19,3441.3C1137.69,3441.57 1138.11,3441.93 1138.43,3442.37L1138.43,3437.02L1140.25,3437.02L1140.25,3451.93L1138.55,3451.93ZM1132.76,3446.54C1132.76,3447.92 1133.05,3448.96 1133.64,3449.64C1134.22,3450.33 1134.91,3450.67 1135.7,3450.67C1136.5,3450.67 1137.18,3450.34 1137.74,3449.69C1138.3,3449.03 1138.58,3448.03 1138.58,3446.69C1138.58,3445.21 1138.3,3444.13 1137.73,3443.44C1137.16,3442.74 1136.45,3442.4 1135.62,3442.4C1134.81,3442.4 1134.13,3442.73 1133.58,3443.4C1133.03,3444.06 1132.76,3445.11 1132.76,3446.54ZM1133.76,3446.54C1133.76,3445.4 1133.92,3444.56 1134.35,3444.03C1134.69,3443.62 1135.11,3443.4 1135.62,3443.4C1136.15,3443.4 1136.59,3443.63 1136.95,3444.07C1137.41,3444.63 1137.58,3445.51 1137.58,3446.69C1137.58,3447.74 1137.42,3448.53 1136.98,3449.04C1136.63,3449.45 1136.21,3449.67 1135.7,3449.67C1135.2,3449.67 1134.77,3449.43 1134.4,3448.99C1133.94,3448.45 1133.76,3447.63 1133.76,3446.54Z" style="fill:white;"/>
                <path d="M1152.09,3449.36C1152.08,3449.23 1152.07,3449.04 1152.07,3448.87L1152.07,3443.55C1152.07,3443.55 1152.91,3443.55 1152.91,3443.55C1153.46,3443.55 1153.91,3443.1 1153.91,3442.55L1153.91,3441.13C1153.91,3440.58 1153.46,3440.13 1152.91,3440.13L1152.07,3440.13C1152.07,3440.13 1152.07,3437.35 1152.07,3437.35C1152.07,3436.99 1151.88,3436.66 1151.56,3436.48C1151.25,3436.31 1150.86,3436.31 1150.56,3436.5L1148.73,3437.6C1148.43,3437.78 1148.25,3438.1 1148.25,3438.45L1148.25,3440.13C1148.25,3440.13 1147.91,3440.13 1147.91,3440.13C1147.36,3440.13 1146.91,3440.58 1146.91,3441.13L1146.91,3442.55C1146.91,3443.1 1147.36,3443.55 1147.91,3443.55L1148.25,3443.55C1148.25,3443.55 1148.25,3448.77 1148.25,3448.77C1148.25,3450.07 1148.38,3450.92 1148.56,3451.33C1148.79,3451.86 1149.18,3452.3 1149.75,3452.62C1150.24,3452.9 1150.91,3453.07 1151.79,3453.07C1152.26,3453.07 1152.79,3453.01 1153.38,3452.89C1153.91,3452.78 1154.25,3452.28 1154.16,3451.75L1153.9,3450.13C1153.81,3449.6 1153.31,3449.23 1152.77,3449.3C1152.5,3449.34 1152.28,3449.36 1152.11,3449.36L1152.09,3449.36ZM1152.91,3450.29L1153.18,3451.91C1152.66,3452.02 1152.2,3452.07 1151.79,3452.07C1151.13,3452.07 1150.61,3451.97 1150.25,3451.76C1149.88,3451.55 1149.62,3451.27 1149.48,3450.93C1149.33,3450.59 1149.25,3449.87 1149.25,3448.77L1149.25,3442.55L1147.91,3442.55L1147.91,3441.13L1149.25,3441.13L1149.25,3438.45L1151.07,3437.35L1151.07,3441.13L1152.91,3441.13L1152.91,3442.55L1151.07,3442.55L1151.07,3448.87C1151.07,3449.39 1151.1,3449.73 1151.17,3449.88C1151.23,3450.03 1151.34,3450.14 1151.48,3450.23C1151.63,3450.32 1151.84,3450.36 1152.11,3450.36C1152.31,3450.36 1152.58,3450.34 1152.91,3450.29Z" style="fill:white;"/>
                <path d="M1153.02,3446.53C1153.02,3448.66 1153.61,3450.28 1154.7,3451.41C1155.82,3452.58 1157.28,3453.18 1159.09,3453.18C1160.2,3453.18 1161.24,3452.91 1162.18,3452.39C1163.15,3451.85 1163.89,3451.09 1164.4,3450.12C1164.88,3449.21 1165.14,3447.97 1165.14,3446.38C1165.14,3444.36 1164.56,3442.79 1163.45,3441.65C1162.32,3440.48 1160.87,3439.88 1159.09,3439.88C1157.49,3439.88 1156.15,3440.37 1155.04,3441.33C1155.04,3441.33 1155.04,3441.33 1155.04,3441.33C1153.73,3442.46 1153.02,3444.18 1153.02,3446.53ZM1154.02,3446.53C1154.02,3444.53 1154.58,3443.05 1155.69,3442.08C1156.62,3441.28 1157.75,3440.88 1159.09,3440.88C1160.57,3440.88 1161.79,3441.37 1162.73,3442.34C1163.67,3443.32 1164.14,3444.66 1164.14,3446.38C1164.14,3447.77 1163.93,3448.86 1163.52,3449.66C1163.1,3450.45 1162.49,3451.07 1161.7,3451.51C1160.9,3451.95 1160.03,3452.18 1159.09,3452.18C1157.58,3452.18 1156.35,3451.69 1155.42,3450.72C1154.49,3449.75 1154.02,3448.35 1154.02,3446.53ZM1155.9,3446.53C1155.9,3447.91 1156.21,3448.95 1156.81,3449.64C1157.41,3450.33 1158.17,3450.67 1159.09,3450.67C1160,3450.67 1160.75,3450.32 1161.36,3449.63C1161.96,3448.94 1162.26,3447.89 1162.26,3446.47C1162.26,3445.13 1161.96,3444.12 1161.35,3443.43C1160.74,3442.74 1159.99,3442.4 1159.09,3442.4C1158.17,3442.4 1157.41,3442.74 1156.81,3443.43C1156.21,3444.11 1155.9,3445.15 1155.9,3446.53ZM1156.9,3446.53C1156.9,3445.45 1157.09,3444.62 1157.56,3444.09C1157.96,3443.63 1158.47,3443.4 1159.09,3443.4C1159.69,3443.4 1160.19,3443.63 1160.6,3444.09C1161.07,3444.63 1161.26,3445.43 1161.26,3446.47C1161.26,3447.58 1161.08,3448.43 1160.6,3448.97C1160.2,3449.44 1159.69,3449.67 1159.09,3449.67C1158.47,3449.67 1157.96,3449.44 1157.56,3448.98C1157.09,3448.44 1156.9,3447.61 1156.9,3446.53Z" style="fill:white;"/>
                <text x="826.772px" y="3473.45px" style="font-family:'ArialMT', 'Arial', sans-serif;font-size:20.833px;">be allocated to unlock</text>
                <path d="M830.563,3474.13C831.224,3474.5 831.981,3474.69 832.834,3474.69C834.403,3474.69 835.751,3474.08 836.871,3472.85C837.933,3471.67 838.504,3470.03 838.504,3467.88C838.504,3466.99 838.378,3466.16 838.131,3465.38C837.875,3464.57 837.516,3463.88 837.062,3463.31C836.581,3462.7 835.97,3462.22 835.224,3461.89C834.502,3461.56 833.736,3461.4 832.926,3461.4C832.214,3461.4 831.56,3461.53 830.966,3461.8C830.966,3461.8 830.966,3458.53 830.966,3458.53C830.966,3457.98 830.518,3457.53 829.966,3457.53L828.135,3457.53C827.582,3457.53 827.135,3457.98 827.135,3458.53L827.135,3473.45C827.135,3474 827.582,3474.45 828.135,3474.45L829.834,3474.45C830.121,3474.45 830.381,3474.32 830.563,3474.13ZM829.834,3473.45L828.135,3473.45L828.135,3458.53L829.966,3458.53L829.966,3463.85C830.739,3462.88 831.726,3462.4 832.926,3462.4C833.591,3462.4 834.22,3462.53 834.813,3462.8C835.406,3463.07 835.895,3463.45 836.278,3463.93C836.661,3464.41 836.961,3465 837.178,3465.68C837.395,3466.37 837.504,3467.1 837.504,3467.88C837.504,3469.73 837.046,3471.16 836.13,3472.17C835.215,3473.18 834.116,3473.69 832.834,3473.69C831.56,3473.69 830.559,3473.16 829.834,3472.09L829.834,3473.45ZM829.813,3467.96C829.813,3469.26 829.99,3470.19 830.342,3470.77C830.919,3471.71 831.699,3472.18 832.682,3472.18C833.482,3472.18 834.174,3471.84 834.757,3471.14C835.34,3470.45 835.632,3469.41 835.632,3468.03C835.632,3466.62 835.352,3465.58 834.793,3464.91C834.233,3464.24 833.557,3463.9 832.763,3463.9C831.963,3463.9 831.271,3464.25 830.688,3464.95C830.105,3465.64 829.813,3466.65 829.813,3467.96ZM830.813,3467.96C830.813,3466.93 830.998,3466.13 831.454,3465.59C831.825,3465.15 832.254,3464.9 832.763,3464.9C833.26,3464.9 833.674,3465.13 834.024,3465.55C834.467,3466.08 834.632,3466.92 834.632,3468.03C834.632,3469.12 834.451,3469.95 833.991,3470.5C833.62,3470.94 833.191,3471.18 832.682,3471.18C832.05,3471.18 831.566,3470.85 831.195,3470.25C831.195,3470.25 831.195,3470.25 831.195,3470.25C830.909,3469.78 830.813,3469.01 830.813,3467.96Z" style="fill:white;"/>
                <path d="M849.579,3469.37C849.864,3469.2 850.058,3468.9 850.069,3468.54C850.077,3468.31 850.08,3468.14 850.08,3468.02C850.08,3465.94 849.507,3464.34 848.439,3463.19C847.333,3462 845.912,3461.4 844.167,3461.4C842.373,3461.4 840.919,3462.01 839.794,3463.22C838.704,3464.39 838.121,3466.02 838.121,3468.14C838.121,3470.19 838.701,3471.78 839.785,3472.92C840.892,3474.08 842.379,3474.69 844.268,3474.69C845.77,3474.69 846.998,3474.3 847.964,3473.57C848.942,3472.83 849.623,3471.8 849.984,3470.46C850.06,3470.18 850.01,3469.88 849.849,3469.64C849.776,3469.53 849.685,3469.44 849.579,3469.37ZM847.127,3469.97L849.019,3470.2C848.721,3471.31 848.168,3472.16 847.361,3472.77C846.554,3473.39 845.523,3473.69 844.268,3473.69C842.688,3473.69 841.435,3473.2 840.51,3472.23C839.584,3471.26 839.121,3469.89 839.121,3468.14C839.121,3466.32 839.589,3464.91 840.525,3463.9C841.461,3462.9 842.675,3462.4 844.167,3462.4C845.611,3462.4 846.791,3462.89 847.707,3463.87C848.622,3464.86 849.08,3466.24 849.08,3468.02C849.08,3468.13 849.077,3468.3 849.07,3468.51L841.013,3468.51C841.081,3469.7 841.417,3470.61 842.02,3471.24C842.624,3471.87 843.377,3472.18 844.279,3472.18C844.95,3472.18 845.523,3472.01 845.998,3471.66C846.472,3471.3 846.849,3470.74 847.127,3469.97ZM846.236,3469.51L842.178,3469.51C842.297,3469.93 842.481,3470.27 842.743,3470.55C843.153,3470.97 843.666,3471.18 844.279,3471.18C844.716,3471.18 845.092,3471.08 845.401,3470.85C845.741,3470.6 845.987,3470.18 846.186,3469.63C846.2,3469.59 846.217,3469.55 846.236,3469.51ZM841.115,3467.01L847.147,3467.01C847.066,3466.1 846.835,3465.42 846.455,3464.96C845.872,3464.26 845.116,3463.9 844.187,3463.9C843.346,3463.9 842.639,3464.18 842.066,3464.75C841.493,3465.31 841.176,3466.06 841.115,3467.01ZM842.374,3466.01C842.475,3465.8 842.605,3465.62 842.767,3465.46C843.15,3465.09 843.625,3464.9 844.187,3464.9C844.8,3464.9 845.3,3465.13 845.685,3465.6C845.686,3465.6 845.687,3465.6 845.688,3465.6C845.783,3465.72 845.861,3465.85 845.924,3466.01L842.374,3466.01Z" style="fill:white;"/>
                <path d="M857.899,3466.88C857.665,3467 857.442,3467.12 857.231,3467.27C856.713,3467.62 856.291,3468.08 855.971,3468.67C855.65,3469.25 855.486,3469.89 855.486,3470.6C855.486,3471.8 855.918,3472.79 856.769,3473.56C857.566,3474.28 858.694,3474.69 860.178,3474.69C861.023,3474.69 861.814,3474.55 862.551,3474.27C862.884,3474.14 863.223,3473.98 863.569,3473.77L863.627,3473.89C863.797,3474.23 864.143,3474.45 864.522,3474.45L866.434,3474.45C866.789,3474.45 867.117,3474.26 867.297,3473.95C867.476,3473.65 867.48,3473.27 867.308,3472.96C867.133,3472.65 867.016,3472.32 866.957,3471.98C866.883,3471.55 866.854,3470.53 866.854,3468.92L866.854,3466.48C866.854,3465.57 866.812,3464.95 866.744,3464.6C866.743,3464.59 866.742,3464.58 866.74,3464.58C866.594,3463.9 866.329,3463.35 865.965,3462.91C865.601,3462.47 865.047,3462.08 864.274,3461.79C863.607,3461.54 862.741,3461.4 861.674,3461.4C860.616,3461.4 859.686,3461.55 858.883,3461.84C857.979,3462.16 857.298,3462.64 856.82,3463.25C856.363,3463.83 856.022,3464.58 855.823,3465.52C855.765,3465.79 855.823,3466.07 855.983,3466.3C856.143,3466.53 856.39,3466.68 856.666,3466.72L857.899,3466.88ZM864.156,3472.11C863.478,3472.69 862.825,3473.1 862.197,3473.33C861.57,3473.57 860.897,3473.69 860.178,3473.69C858.991,3473.69 858.079,3473.4 857.442,3472.82C856.804,3472.24 856.486,3471.5 856.486,3470.6C856.486,3470.07 856.606,3469.59 856.847,3469.15C857.087,3468.71 857.403,3468.36 857.793,3468.1C858.183,3467.83 858.622,3467.63 859.11,3467.49C859.47,3467.4 860.012,3467.31 860.738,3467.22C862.216,3467.04 863.305,3466.83 864.003,3466.59C864.01,3466.34 864.013,3466.18 864.013,3466.11C864.013,3465.37 863.84,3464.84 863.494,3464.53C863.027,3464.12 862.331,3463.91 861.409,3463.91C860.548,3463.91 859.912,3464.07 859.502,3464.37C859.091,3464.67 858.788,3465.2 858.591,3465.97L856.801,3465.72C856.964,3464.96 857.232,3464.34 857.605,3463.87C857.978,3463.4 858.517,3463.03 859.222,3462.78C859.927,3462.53 860.744,3462.4 861.674,3462.4C862.596,3462.4 863.345,3462.51 863.922,3462.72C864.498,3462.94 864.922,3463.21 865.193,3463.54C865.465,3463.87 865.654,3464.29 865.763,3464.79C865.824,3465.1 865.854,3465.66 865.854,3466.48L865.854,3468.92C865.854,3470.62 865.893,3471.7 865.971,3472.15C866.049,3472.6 866.204,3473.03 866.434,3473.45L864.522,3473.45C864.332,3473.07 864.21,3472.62 864.156,3472.11ZM864.003,3468.02C863.338,3468.3 862.342,3468.53 861.012,3468.72C860.26,3468.82 859.727,3468.95 859.415,3469.08C859.103,3469.22 858.863,3469.42 858.693,3469.68C858.523,3469.94 858.439,3470.23 858.439,3470.55C858.439,3471.03 858.624,3471.44 858.993,3471.77C859.363,3472.09 859.904,3472.26 860.616,3472.26C861.321,3472.26 861.948,3472.1 862.498,3471.79C863.047,3471.48 863.45,3471.06 863.708,3470.53C863.905,3470.11 864.003,3469.5 864.003,3468.7L864.003,3468.02ZM862.975,3469.38C862.947,3469.67 862.894,3469.91 862.806,3470.1C862.636,3470.45 862.368,3470.72 862.008,3470.92C861.602,3471.15 861.137,3471.26 860.616,3471.26C860.199,3471.26 859.87,3471.21 859.654,3471.02C859.511,3470.89 859.439,3470.74 859.439,3470.55C859.439,3470.43 859.468,3470.32 859.532,3470.22C859.597,3470.12 859.694,3470.05 859.814,3470C860.075,3469.89 860.524,3469.8 861.155,3469.7C861.845,3469.61 862.452,3469.5 862.975,3469.38ZM863.009,3465.84C863,3465.59 862.964,3465.4 862.833,3465.28C862.833,3465.28 862.832,3465.28 862.832,3465.28C862.516,3465 862.032,3464.91 861.409,3464.91C860.82,3464.91 860.375,3464.97 860.094,3465.17C859.833,3465.37 859.685,3465.73 859.56,3466.22C859.544,3466.28 859.524,3466.34 859.498,3466.39C859.811,3466.34 860.184,3466.28 860.617,3466.23C860.618,3466.23 860.619,3466.23 860.619,3466.23C861.599,3466.11 862.396,3465.98 863.009,3465.84Z" style="fill:white;"/>
                <path d="M867.652,3473.45C867.652,3474 868.1,3474.45 868.652,3474.45L870.483,3474.45C871.035,3474.45 871.483,3474 871.483,3473.45L871.483,3458.53C871.483,3457.98 871.035,3457.53 870.483,3457.53L868.652,3457.53C868.1,3457.53 867.652,3457.98 867.652,3458.53L867.652,3473.45ZM868.652,3473.45L868.652,3458.53L870.483,3458.53L870.483,3473.45L868.652,3473.45Z" style="fill:white;"/>
                <path d="M872.28,3473.45C872.28,3474 872.728,3474.45 873.28,3474.45L875.111,3474.45C875.664,3474.45 876.111,3474 876.111,3473.45L876.111,3458.53C876.111,3457.98 875.664,3457.53 875.111,3457.53L873.28,3457.53C872.728,3457.53 872.28,3457.98 872.28,3458.53L872.28,3473.45ZM873.28,3473.45L873.28,3458.53L875.111,3458.53L875.111,3473.45L873.28,3473.45Z" style="fill:white;"/>
                <path d="M876.268,3468.04C876.268,3470.18 876.856,3471.8 877.946,3472.93C879.064,3474.09 880.521,3474.69 882.334,3474.69C883.452,3474.69 884.482,3474.43 885.427,3473.9C886.4,3473.37 887.141,3472.61 887.65,3471.64C888.127,3470.72 888.39,3469.48 888.39,3467.89C888.39,3465.88 887.802,3464.31 886.694,3463.16C885.564,3462 884.114,3461.4 882.334,3461.4C880.74,3461.4 879.392,3461.89 878.284,3462.84C878.283,3462.84 878.282,3462.84 878.282,3462.84C876.975,3463.97 876.268,3465.69 876.268,3468.04ZM877.268,3468.04C877.268,3466.04 877.824,3464.56 878.936,3463.6C879.865,3462.8 880.998,3462.4 882.334,3462.4C883.819,3462.4 885.033,3462.89 885.976,3463.86C886.918,3464.83 887.39,3466.18 887.39,3467.89C887.39,3469.28 887.181,3470.38 886.764,3471.17C886.347,3471.97 885.74,3472.59 884.943,3473.03C884.146,3473.47 883.277,3473.69 882.334,3473.69C880.822,3473.69 879.599,3473.2 878.667,3472.24C877.734,3471.27 877.268,3469.87 877.268,3468.04ZM879.15,3468.04C879.15,3469.43 879.452,3470.46 880.055,3471.15C880.659,3471.84 881.418,3472.18 882.334,3472.18C883.243,3472.18 883.999,3471.84 884.602,3471.15C885.206,3470.45 885.508,3469.4 885.508,3467.98C885.508,3466.65 885.204,3465.64 884.597,3464.95C883.99,3464.26 883.236,3463.91 882.334,3463.91C881.418,3463.91 880.659,3464.26 880.055,3464.94C879.452,3465.63 879.15,3466.66 879.15,3468.04ZM880.15,3468.04C880.15,3466.96 880.334,3466.14 880.806,3465.6C881.21,3465.14 881.72,3464.91 882.334,3464.91C882.938,3464.91 883.441,3465.15 883.847,3465.61C884.319,3466.14 884.508,3466.94 884.508,3467.98C884.508,3469.1 884.324,3469.95 883.849,3470.49C883.446,3470.95 882.941,3471.18 882.334,3471.18C881.721,3471.18 881.212,3470.95 880.807,3470.49C880.335,3469.95 880.15,3469.13 880.15,3468.04Z" style="fill:white;"/>
                <path d="M896.715,3468.5C896.171,3468.43 895.672,3468.81 895.595,3469.35C895.506,3469.99 895.331,3470.48 894.995,3470.79C894.695,3471.06 894.317,3471.18 893.87,3471.18C893.29,3471.18 892.817,3470.98 892.456,3470.55C892.017,3470.03 891.859,3469.18 891.859,3468.03C891.859,3466.91 892.024,3466.07 892.477,3465.55C892.859,3465.12 893.36,3464.9 893.971,3464.9C894.327,3464.9 894.634,3465 894.885,3465.22C895.172,3465.46 895.346,3465.84 895.459,3466.32C895.578,3466.83 896.069,3467.16 896.586,3467.08L898.366,3466.81C898.634,3466.76 898.874,3466.61 899.031,3466.39C899.187,3466.17 899.247,3465.89 899.195,3465.63C898.935,3464.28 898.326,3463.24 897.402,3462.51C896.492,3461.78 895.33,3461.4 893.9,3461.4C892.796,3461.4 891.776,3461.66 890.837,3462.18C889.856,3462.72 889.122,3463.53 888.642,3464.62C888.204,3465.61 887.977,3466.76 887.977,3468.09C887.977,3470.19 888.543,3471.79 889.592,3472.92C890.677,3474.09 892.105,3474.69 893.89,3474.69C895.33,3474.69 896.541,3474.25 897.53,3473.39C898.51,3472.55 899.136,3471.38 899.374,3469.88C899.416,3469.61 899.349,3469.34 899.187,3469.12C899.025,3468.91 898.783,3468.77 898.515,3468.73L896.715,3468.5ZM896.586,3469.49L898.386,3469.72C898.19,3470.96 897.686,3471.93 896.876,3472.64C896.065,3473.34 895.07,3473.69 893.89,3473.69C892.412,3473.69 891.223,3473.21 890.325,3472.24C889.426,3471.27 888.977,3469.89 888.977,3468.09C888.977,3466.92 889.17,3465.9 889.556,3465.02C889.943,3464.15 890.531,3463.49 891.321,3463.06C892.111,3462.62 892.971,3462.4 893.9,3462.4C895.073,3462.4 896.033,3462.7 896.779,3463.29C897.525,3463.88 898.003,3464.72 898.213,3465.82L896.433,3466.09C896.264,3465.37 895.963,3464.82 895.533,3464.45C895.102,3464.09 894.582,3463.9 893.971,3463.9C893.049,3463.9 892.3,3464.24 891.723,3464.9C891.147,3465.56 890.859,3466.6 890.859,3468.03C890.859,3469.49 891.137,3470.54 891.693,3471.2C892.249,3471.86 892.974,3472.18 893.87,3472.18C894.588,3472.18 895.189,3471.96 895.67,3471.52C896.152,3471.08 896.457,3470.4 896.586,3469.49Z" style="fill:white;"/>
                <path d="M900.746,3466.88C900.511,3467 900.289,3467.12 900.078,3467.27C899.559,3467.62 899.138,3468.08 898.817,3468.67C898.496,3469.25 898.332,3469.89 898.332,3470.6C898.332,3471.8 898.765,3472.79 899.616,3473.56C900.413,3474.28 901.54,3474.69 903.025,3474.69C903.87,3474.69 904.661,3474.55 905.398,3474.27C905.73,3474.14 906.07,3473.98 906.416,3473.77L906.474,3473.89C906.644,3474.23 906.99,3474.45 907.369,3474.45L909.281,3474.45C909.636,3474.45 909.964,3474.26 910.143,3473.95C910.323,3473.65 910.327,3473.27 910.154,3472.96C909.98,3472.65 909.863,3472.32 909.804,3471.98C909.73,3471.55 909.701,3470.53 909.701,3468.92C909.701,3468.92 909.701,3466.48 909.701,3466.48C909.701,3465.57 909.659,3464.95 909.591,3464.6C909.59,3464.59 909.588,3464.58 909.587,3464.58C909.441,3463.9 909.176,3463.35 908.811,3462.91C908.448,3462.47 907.893,3462.08 907.121,3461.79C906.453,3461.54 905.588,3461.4 904.52,3461.4C903.462,3461.4 902.533,3461.55 901.729,3461.84C900.826,3462.16 900.145,3462.64 899.667,3463.25C899.21,3463.83 898.869,3464.58 898.669,3465.52C898.612,3465.79 898.67,3466.07 898.83,3466.3C898.99,3466.53 899.237,3466.68 899.513,3466.72L900.746,3466.88ZM907.002,3472.11C906.324,3472.69 905.671,3473.1 905.044,3473.33C904.417,3473.57 903.744,3473.69 903.025,3473.69C901.838,3473.69 900.926,3473.4 900.288,3472.82C899.651,3472.24 899.332,3471.5 899.332,3470.6C899.332,3470.07 899.453,3469.59 899.693,3469.15C899.934,3468.71 900.25,3468.36 900.639,3468.1C901.029,3467.83 901.469,3467.63 901.957,3467.49C902.316,3467.4 902.859,3467.31 903.584,3467.22C905.063,3467.04 906.151,3466.83 906.85,3466.59C906.857,3466.34 906.86,3466.18 906.86,3466.11C906.86,3465.37 906.687,3464.84 906.341,3464.53C905.873,3464.12 905.178,3463.91 904.256,3463.91C903.395,3463.91 902.759,3464.07 902.348,3464.37C901.938,3464.67 901.635,3465.2 901.438,3465.97L899.648,3465.72C899.81,3464.96 900.078,3464.34 900.451,3463.87C900.824,3463.4 901.363,3463.03 902.069,3462.78C902.774,3462.53 903.591,3462.4 904.52,3462.4C905.443,3462.4 906.192,3462.51 906.768,3462.72C907.345,3462.94 907.769,3463.21 908.04,3463.54C908.311,3463.87 908.501,3464.29 908.61,3464.79C908.671,3465.1 908.701,3465.66 908.701,3466.48L908.701,3468.92C908.701,3470.62 908.74,3471.7 908.818,3472.15C908.896,3472.6 909.05,3473.03 909.281,3473.45L907.369,3473.45C907.179,3473.07 907.057,3472.62 907.002,3472.11ZM906.85,3468.02C906.185,3468.3 905.188,3468.53 903.859,3468.72C903.106,3468.82 902.574,3468.95 902.262,3469.08C901.95,3469.22 901.709,3469.42 901.54,3469.68C901.37,3469.94 901.285,3470.23 901.285,3470.55C901.285,3471.03 901.47,3471.44 901.84,3471.77C902.209,3472.09 902.75,3472.26 903.462,3472.26C904.168,3472.26 904.795,3472.1 905.344,3471.79C905.894,3471.48 906.297,3471.06 906.555,3470.53C906.751,3470.11 906.85,3469.5 906.85,3468.7L906.85,3468.02ZM905.822,3469.38C905.794,3469.67 905.741,3469.91 905.652,3470.1C905.483,3470.45 905.215,3470.72 904.854,3470.92C904.449,3471.15 903.983,3471.26 903.462,3471.26C903.046,3471.26 902.717,3471.21 902.501,3471.02C902.358,3470.89 902.285,3470.74 902.285,3470.55C902.285,3470.43 902.315,3470.32 902.378,3470.22C902.444,3470.12 902.541,3470.05 902.661,3470C902.922,3469.89 903.371,3469.8 904.002,3469.7C904.692,3469.61 905.298,3469.5 905.822,3469.38ZM905.856,3465.84C905.846,3465.59 905.81,3465.4 905.68,3465.28C905.679,3465.28 905.679,3465.28 905.679,3465.28C905.363,3465 904.879,3464.91 904.256,3464.91C903.667,3464.91 903.221,3464.97 902.941,3465.17C902.68,3465.37 902.532,3465.73 902.407,3466.22C902.391,3466.28 902.37,3466.34 902.345,3466.39C902.657,3466.34 903.03,3466.28 903.464,3466.23C903.465,3466.23 903.465,3466.23 903.466,3466.23C904.445,3466.11 905.242,3465.98 905.856,3465.84Z" style="fill:white;"/>
                <path d="M914.717,3470.88C914.707,3470.75 914.696,3470.56 914.696,3470.38C914.696,3470.38 914.696,3465.07 914.696,3465.07C914.696,3465.07 915.537,3465.07 915.537,3465.07C916.089,3465.07 916.537,3464.62 916.537,3464.07L916.537,3462.64C916.537,3462.09 916.089,3461.64 915.537,3461.64L914.696,3461.64C914.696,3461.64 914.696,3458.87 914.696,3458.87C914.696,3458.51 914.502,3458.18 914.188,3458C913.873,3457.82 913.488,3457.83 913.179,3458.01L911.358,3459.11C911.058,3459.29 910.875,3459.62 910.875,3459.97L910.875,3461.64C910.875,3461.64 910.532,3461.64 910.532,3461.64C909.98,3461.64 909.532,3462.09 909.532,3462.64L909.532,3464.07C909.532,3464.62 909.98,3465.07 910.532,3465.07L910.875,3465.07C910.875,3465.07 910.875,3470.28 910.875,3470.28C910.875,3471.59 911.005,3472.44 911.182,3472.84C911.414,3473.38 911.805,3473.81 912.374,3474.14C912.86,3474.42 913.537,3474.59 914.418,3474.59C914.886,3474.59 915.416,3474.53 916.008,3474.4C916.531,3474.29 916.875,3473.79 916.788,3473.26L916.524,3471.65C916.436,3471.11 915.935,3470.74 915.396,3470.82C915.122,3470.86 914.901,3470.88 914.733,3470.88L914.717,3470.88ZM915.537,3471.81L915.802,3473.43C915.286,3473.53 914.825,3473.59 914.418,3473.59C913.754,3473.59 913.238,3473.48 912.872,3473.27C912.506,3473.06 912.248,3472.79 912.099,3472.44C911.95,3472.1 911.875,3471.38 911.875,3470.28L911.875,3464.07L910.532,3464.07L910.532,3462.64L911.875,3462.64L911.875,3459.97L913.696,3458.87L913.696,3462.64L915.537,3462.64L915.537,3464.07L913.696,3464.07L913.696,3470.38C913.696,3470.91 913.728,3471.24 913.793,3471.39C913.857,3471.54 913.962,3471.66 914.108,3471.75C914.254,3471.84 914.462,3471.88 914.733,3471.88C914.937,3471.88 915.205,3471.86 915.537,3471.81Z" style="fill:white;"/>
                <path d="M927.175,3469.37C927.46,3469.2 927.654,3468.9 927.665,3468.54C927.673,3468.31 927.676,3468.14 927.676,3468.02C927.676,3465.94 927.103,3464.34 926.035,3463.19C924.929,3462 923.508,3461.4 921.763,3461.4C919.969,3461.4 918.515,3462.01 917.39,3463.22C916.3,3464.39 915.717,3466.02 915.717,3468.14C915.717,3470.19 916.297,3471.78 917.381,3472.92C918.488,3474.08 919.975,3474.69 921.864,3474.69C923.366,3474.69 924.594,3474.3 925.56,3473.57C926.538,3472.83 927.219,3471.8 927.58,3470.46C927.656,3470.18 927.606,3469.88 927.445,3469.64C927.372,3469.53 927.281,3469.44 927.175,3469.37ZM924.723,3469.97L926.615,3470.2C926.317,3471.31 925.764,3472.16 924.957,3472.77C924.15,3473.39 923.119,3473.69 921.864,3473.69C920.284,3473.69 919.031,3473.2 918.106,3472.23C917.18,3471.26 916.717,3469.89 916.717,3468.14C916.717,3466.32 917.185,3464.91 918.121,3463.9C919.057,3462.9 920.271,3462.4 921.763,3462.4C923.207,3462.4 924.387,3462.89 925.303,3463.87C926.218,3464.86 926.676,3466.24 926.676,3468.02C926.676,3468.13 926.673,3468.3 926.666,3468.51L918.609,3468.51C918.677,3469.7 919.013,3470.61 919.616,3471.24C920.22,3471.87 920.973,3472.18 921.875,3472.18C922.546,3472.18 923.119,3472.01 923.594,3471.66C924.068,3471.3 924.445,3470.74 924.723,3469.97ZM923.832,3469.51L919.774,3469.51C919.893,3469.93 920.077,3470.27 920.339,3470.55C920.749,3470.97 921.262,3471.18 921.875,3471.18C922.312,3471.18 922.688,3471.08 922.997,3470.85C923.337,3470.6 923.583,3470.18 923.782,3469.63C923.796,3469.59 923.813,3469.55 923.832,3469.51ZM918.711,3467.01L924.743,3467.01C924.662,3466.1 924.431,3465.42 924.052,3464.96C923.468,3464.26 922.712,3463.9 921.783,3463.9C920.942,3463.9 920.235,3464.18 919.662,3464.75C919.089,3465.31 918.772,3466.06 918.711,3467.01ZM919.97,3466.01C920.071,3465.8 920.201,3465.62 920.363,3465.46C920.746,3465.09 921.221,3464.9 921.783,3464.9C922.396,3464.9 922.896,3465.13 923.281,3465.6C923.282,3465.6 923.283,3465.6 923.284,3465.6C923.379,3465.72 923.457,3465.85 923.52,3466.01L919.97,3466.01Z" style="fill:white;"/>
                <path d="M934.801,3461.81C934.211,3461.54 933.552,3461.4 932.82,3461.4C931.731,3461.4 930.746,3461.69 929.864,3462.26C928.979,3462.84 928.309,3463.66 927.866,3464.74C927.461,3465.73 927.253,3466.84 927.253,3468.05C927.253,3469.32 927.487,3470.44 927.941,3471.41C928.421,3472.44 929.103,3473.24 929.977,3473.81C930.866,3474.4 931.841,3474.69 932.902,3474.69C933.779,3474.69 934.545,3474.51 935.201,3474.14C935.383,3474.33 935.639,3474.45 935.923,3474.45L937.622,3474.45C938.174,3474.45 938.622,3474 938.622,3473.45L938.622,3458.53C938.622,3457.98 938.174,3457.53 937.622,3457.53L935.801,3457.53C935.249,3457.53 934.801,3457.98 934.801,3458.53L934.801,3461.81ZM935.923,3473.45L935.923,3472.08C935.238,3473.15 934.231,3473.69 932.902,3473.69C932.04,3473.69 931.249,3473.45 930.526,3472.98C929.804,3472.5 929.245,3471.84 928.848,3470.99C928.451,3470.14 928.253,3469.16 928.253,3468.05C928.253,3466.98 928.432,3466 928.792,3465.12C929.151,3464.24 929.69,3463.57 930.409,3463.1C931.128,3462.63 931.932,3462.4 932.82,3462.4C933.471,3462.4 934.051,3462.54 934.56,3462.81C935.068,3463.09 935.482,3463.44 935.801,3463.88L935.801,3458.53L937.622,3458.53L937.622,3473.45L935.923,3473.45ZM930.135,3468.05C930.135,3469.44 930.426,3470.47 931.01,3471.16C931.593,3471.84 932.281,3472.18 933.075,3472.18C933.875,3472.18 934.555,3471.86 935.114,3471.2C935.674,3470.55 935.953,3469.55 935.953,3468.21C935.953,3466.73 935.669,3465.64 935.099,3464.95C934.529,3464.26 933.827,3463.91 932.993,3463.91C932.179,3463.91 931.5,3464.25 930.954,3464.91C930.408,3465.58 930.135,3466.62 930.135,3468.05ZM931.135,3468.05C931.135,3466.92 931.293,3466.07 931.726,3465.55C932.067,3465.13 932.486,3464.91 932.993,3464.91C933.524,3464.91 933.964,3465.15 934.327,3465.59C934.783,3466.14 934.953,3467.02 934.953,3468.21C934.953,3469.25 934.789,3470.04 934.354,3470.55C934.001,3470.97 933.579,3471.18 933.075,3471.18C932.569,3471.18 932.142,3470.95 931.771,3470.51C931.312,3469.97 931.135,3469.14 931.135,3468.05Z" style="fill:white;"/>
                <path d="M949.467,3470.88C949.456,3470.75 949.445,3470.56 949.445,3470.38C949.445,3470.38 949.445,3465.07 949.445,3465.07C949.445,3465.07 950.286,3465.07 950.286,3465.07C950.839,3465.07 951.286,3464.62 951.286,3464.07L951.286,3462.64C951.286,3462.09 950.839,3461.64 950.286,3461.64L949.445,3461.64C949.445,3461.64 949.445,3458.87 949.445,3458.87C949.445,3458.51 949.251,3458.18 948.937,3458C948.623,3457.82 948.237,3457.83 947.929,3458.01L946.108,3459.11C945.808,3459.29 945.624,3459.62 945.624,3459.97L945.624,3461.64C945.624,3461.64 945.282,3461.64 945.282,3461.64C944.729,3461.64 944.282,3462.09 944.282,3462.64L944.282,3464.07C944.282,3464.62 944.729,3465.07 945.282,3465.07L945.624,3465.07C945.624,3465.07 945.624,3470.28 945.624,3470.28C945.624,3471.59 945.754,3472.44 945.931,3472.84C946.163,3473.38 946.554,3473.81 947.123,3474.14C947.609,3474.42 948.286,3474.59 949.167,3474.59C949.635,3474.59 950.165,3474.53 950.757,3474.4C951.28,3474.29 951.624,3473.79 951.538,3473.26L951.273,3471.65C951.186,3471.11 950.684,3470.74 950.145,3470.82C949.871,3470.86 949.651,3470.88 949.483,3470.88L949.467,3470.88ZM950.286,3471.81L950.551,3473.43C950.036,3473.53 949.574,3473.59 949.167,3473.59C948.503,3473.59 947.987,3473.48 947.621,3473.27C947.255,3473.06 946.997,3472.79 946.848,3472.44C946.699,3472.1 946.624,3471.38 946.624,3470.28L946.624,3464.07L945.282,3464.07L945.282,3462.64L946.624,3462.64L946.624,3459.97L948.445,3458.87L948.445,3462.64L950.286,3462.64L950.286,3464.07L948.445,3464.07L948.445,3470.38C948.445,3470.91 948.477,3471.24 948.542,3471.39C948.606,3471.54 948.711,3471.66 948.857,3471.75C949.003,3471.84 949.212,3471.88 949.483,3471.88C949.686,3471.88 949.954,3471.86 950.286,3471.81Z" style="fill:white;"/>
                <path d="M950.395,3468.04C950.395,3470.18 950.983,3471.8 952.073,3472.93C953.191,3474.09 954.649,3474.69 956.461,3474.69C957.579,3474.69 958.61,3474.43 959.555,3473.9C960.528,3473.37 961.268,3472.61 961.777,3471.64C962.254,3470.72 962.517,3469.48 962.517,3467.89C962.517,3465.88 961.929,3464.31 960.821,3463.16C959.691,3462 958.242,3461.4 956.461,3461.4C954.867,3461.4 953.52,3461.89 952.411,3462.84C952.41,3462.84 952.41,3462.84 952.409,3462.84C951.102,3463.97 950.395,3465.69 950.395,3468.04ZM951.395,3468.04C951.395,3466.04 951.951,3464.56 953.064,3463.6C953.993,3462.8 955.125,3462.4 956.461,3462.4C957.946,3462.4 959.16,3462.89 960.103,3463.86C961.046,3464.83 961.517,3466.18 961.517,3467.89C961.517,3469.28 961.308,3470.38 960.891,3471.17C960.474,3471.97 959.867,3472.59 959.07,3473.03C958.274,3473.47 957.404,3473.69 956.461,3473.69C954.949,3473.69 953.726,3473.2 952.794,3472.24C951.862,3471.27 951.395,3469.87 951.395,3468.04ZM953.277,3468.04C953.277,3469.43 953.579,3470.46 954.183,3471.15C954.786,3471.84 955.546,3472.18 956.461,3472.18C957.37,3472.18 958.126,3471.84 958.73,3471.15C959.333,3470.45 959.635,3469.4 959.635,3467.98C959.635,3466.65 959.332,3465.64 958.725,3464.95C958.118,3464.26 957.363,3463.91 956.461,3463.91C955.546,3463.91 954.786,3464.26 954.183,3464.94C953.579,3465.63 953.277,3466.66 953.277,3468.04ZM954.277,3468.04C954.277,3466.96 954.461,3466.14 954.933,3465.6C955.338,3465.14 955.847,3464.91 956.461,3464.91C957.065,3464.91 957.568,3465.15 957.975,3465.61C958.447,3466.14 958.635,3466.94 958.635,3467.98C958.635,3469.1 958.451,3469.95 957.976,3470.49C957.573,3470.95 957.068,3471.18 956.461,3471.18C955.848,3471.18 955.339,3470.95 954.934,3470.49C954.462,3469.95 954.277,3469.13 954.277,3468.04Z" style="fill:white;"/>
                <path d="M975.708,3474.01C975.888,3474.28 976.19,3474.45 976.532,3474.45L978.169,3474.45C978.722,3474.45 979.169,3474 979.169,3473.45L979.169,3462.64C979.169,3462.09 978.722,3461.64 978.169,3461.64L976.338,3461.64C975.786,3461.64 975.338,3462.09 975.338,3462.64L975.338,3468.43C975.338,3469.18 975.277,3469.76 975.114,3470.16C974.997,3470.44 974.793,3470.66 974.511,3470.83C974.187,3471.02 973.84,3471.11 973.47,3471.11C973.158,3471.11 972.891,3471.05 972.679,3470.9C972.499,3470.76 972.387,3470.58 972.329,3470.35C972.263,3470.05 972.242,3469.48 972.242,3468.63C972.242,3468.63 972.242,3462.64 972.242,3462.64C972.242,3462.09 971.794,3461.64 971.242,3461.64L969.411,3461.64C968.859,3461.64 968.411,3462.09 968.411,3462.64L968.411,3469.34C968.411,3470.21 968.46,3470.85 968.543,3471.25C968.683,3471.94 968.933,3472.51 969.278,3472.99C969.636,3473.49 970.174,3473.91 970.914,3474.24C971.592,3474.54 972.322,3474.69 973.103,3474.69C974.083,3474.69 974.952,3474.47 975.708,3474.01ZM976.532,3473.45L976.532,3471.86C975.691,3473.08 974.548,3473.69 973.103,3473.69C972.466,3473.69 971.871,3473.57 971.318,3473.32C970.765,3473.08 970.355,3472.77 970.087,3472.4C969.819,3472.03 969.631,3471.58 969.523,3471.05C969.448,3470.69 969.411,3470.12 969.411,3469.34L969.411,3462.64L971.242,3462.64L971.242,3468.63C971.242,3469.59 971.279,3470.24 971.354,3470.57C971.469,3471.05 971.713,3471.43 972.086,3471.7C972.459,3471.98 972.92,3472.11 973.47,3472.11C974.019,3472.11 974.534,3471.97 975.016,3471.69C975.497,3471.41 975.838,3471.03 976.038,3470.54C976.238,3470.06 976.338,3469.35 976.338,3468.43L976.338,3462.64L978.169,3462.64L978.169,3473.45L976.532,3473.45Z" style="fill:white;"/>
                <path d="M983.492,3462.05C983.31,3461.8 983.017,3461.64 982.686,3461.64L981.038,3461.64C980.486,3461.64 980.038,3462.09 980.038,3462.64L980.038,3473.45C980.038,3474 980.486,3474.45 981.038,3474.45L982.869,3474.45C983.421,3474.45 983.869,3474 983.869,3473.45L983.869,3467.55C983.869,3466.55 983.968,3465.84 984.377,3465.48C984.758,3465.15 985.213,3464.99 985.738,3464.99C986.026,3464.99 986.281,3465.04 986.495,3465.17C986.657,3465.27 986.776,3465.4 986.839,3465.56C986.951,3465.85 986.986,3466.29 986.986,3466.87C986.986,3466.87 986.986,3473.45 986.986,3473.45C986.986,3474 987.434,3474.45 987.986,3474.45L989.817,3474.45C990.369,3474.45 990.817,3474 990.817,3473.45L990.817,3466.8C990.817,3465.86 990.771,3465.2 990.696,3464.83C990.695,3464.82 990.695,3464.82 990.694,3464.82C990.555,3464.15 990.307,3463.58 989.959,3463.09C989.593,3462.58 989.051,3462.15 988.314,3461.83C987.648,3461.55 986.918,3461.4 986.124,3461.4C985.118,3461.4 984.241,3461.62 983.492,3462.05ZM981.038,3473.45L981.038,3462.64L982.686,3462.64L982.686,3464.18C983.479,3462.99 984.626,3462.4 986.124,3462.4C986.775,3462.4 987.374,3462.51 987.92,3462.75C988.466,3462.98 988.874,3463.29 989.146,3463.67C989.417,3464.05 989.607,3464.5 989.715,3465.02C989.783,3465.36 989.817,3465.95 989.817,3466.8L989.817,3473.45L987.986,3473.45L987.986,3466.87C987.986,3466.13 987.915,3465.57 987.772,3465.2C987.63,3464.83 987.377,3464.54 987.014,3464.32C986.652,3464.1 986.226,3463.99 985.738,3463.99C984.958,3463.99 984.285,3464.23 983.718,3464.73C983.152,3465.22 982.869,3466.16 982.869,3467.55L982.869,3473.45L981.038,3473.45Z" style="fill:white;"/>
                <path d="M991.584,3473.45C991.584,3474 992.032,3474.45 992.584,3474.45L994.415,3474.45C994.967,3474.45 995.415,3474 995.415,3473.45L995.415,3458.53C995.415,3457.98 994.967,3457.53 994.415,3457.53L992.584,3457.53C992.032,3457.53 991.584,3457.98 991.584,3458.53L991.584,3473.45ZM992.584,3473.45L992.584,3458.53L994.415,3458.53L994.415,3473.45L992.584,3473.45Z" style="fill:white;"/>
                <path d="M995.571,3468.04C995.571,3470.18 996.159,3471.8 997.249,3472.93C998.367,3474.09 999.825,3474.69 1001.64,3474.69C1002.75,3474.69 1003.79,3474.43 1004.73,3473.9C1005.7,3473.37 1006.44,3472.61 1006.95,3471.64C1007.43,3470.72 1007.69,3469.48 1007.69,3467.89C1007.69,3465.88 1007.11,3464.31 1006,3463.16C1004.87,3462 1003.42,3461.4 1001.64,3461.4C1000.04,3461.4 998.696,3461.89 997.587,3462.84C997.586,3462.84 997.586,3462.84 997.585,3462.84C996.279,3463.97 995.571,3465.69 995.571,3468.04ZM996.571,3468.04C996.571,3466.04 997.128,3464.56 998.24,3463.6C999.169,3462.8 1000.3,3462.4 1001.64,3462.4C1003.12,3462.4 1004.34,3462.89 1005.28,3463.86C1006.22,3464.83 1006.69,3466.18 1006.69,3467.89C1006.69,3469.28 1006.49,3470.38 1006.07,3471.17C1005.65,3471.97 1005.04,3472.59 1004.25,3473.03C1003.45,3473.47 1002.58,3473.69 1001.64,3473.69C1000.12,3473.69 998.903,3473.2 997.97,3472.24C997.038,3471.27 996.571,3469.87 996.571,3468.04ZM998.453,3468.04C998.453,3469.43 998.755,3470.46 999.359,3471.15C999.962,3471.84 1000.72,3472.18 1001.64,3472.18C1002.55,3472.18 1003.3,3471.84 1003.91,3471.15C1004.51,3470.45 1004.81,3469.4 1004.81,3467.98C1004.81,3466.65 1004.51,3465.64 1003.9,3464.95C1003.29,3464.26 1002.54,3463.91 1001.64,3463.91C1000.72,3463.91 999.962,3464.26 999.359,3464.94C998.755,3465.63 998.453,3466.66 998.453,3468.04ZM999.453,3468.04C999.453,3466.96 999.637,3466.14 1000.11,3465.6C1000.51,3465.14 1001.02,3464.91 1001.64,3464.91C1002.24,3464.91 1002.75,3465.15 1003.15,3465.61C1003.62,3466.14 1003.81,3466.94 1003.81,3467.98C1003.81,3469.1 1003.63,3469.95 1003.15,3470.49C1002.75,3470.95 1002.25,3471.18 1001.64,3471.18C1001.02,3471.18 1000.51,3470.95 1000.11,3470.49C999.638,3469.95 999.453,3469.13 999.453,3468.04Z" style="fill:white;"/>
                <path d="M1016.02,3468.5C1015.47,3468.43 1014.98,3468.81 1014.9,3469.35C1014.81,3469.99 1014.63,3470.48 1014.3,3470.79C1014,3471.06 1013.62,3471.18 1013.17,3471.18C1012.59,3471.18 1012.12,3470.98 1011.76,3470.55C1011.32,3470.03 1011.16,3469.18 1011.16,3468.03C1011.16,3466.91 1011.33,3466.07 1011.78,3465.55C1012.16,3465.12 1012.66,3464.9 1013.27,3464.9C1013.63,3464.9 1013.94,3465 1014.19,3465.22C1014.48,3465.46 1014.65,3465.84 1014.76,3466.32C1014.88,3466.83 1015.37,3467.16 1015.89,3467.08L1017.67,3466.81C1017.94,3466.76 1018.18,3466.61 1018.33,3466.39C1018.49,3466.17 1018.55,3465.89 1018.5,3465.63C1018.24,3464.28 1017.63,3463.24 1016.71,3462.51C1015.8,3461.78 1014.63,3461.4 1013.2,3461.4C1012.1,3461.4 1011.08,3461.66 1010.14,3462.18C1009.16,3462.72 1008.43,3463.53 1007.95,3464.62C1007.51,3465.61 1007.28,3466.76 1007.28,3468.09C1007.28,3470.19 1007.85,3471.79 1008.9,3472.92C1009.98,3474.09 1011.41,3474.69 1013.19,3474.69C1014.63,3474.69 1015.84,3474.25 1016.83,3473.39C1017.81,3472.55 1018.44,3471.38 1018.68,3469.88C1018.72,3469.61 1018.65,3469.34 1018.49,3469.12C1018.33,3468.91 1018.09,3468.77 1017.82,3468.73L1016.02,3468.5ZM1015.89,3469.49L1017.69,3469.72C1017.49,3470.96 1016.99,3471.93 1016.18,3472.64C1015.37,3473.34 1014.37,3473.69 1013.19,3473.69C1011.72,3473.69 1010.53,3473.21 1009.63,3472.24C1008.73,3471.27 1008.28,3469.89 1008.28,3468.09C1008.28,3466.92 1008.47,3465.9 1008.86,3465.02C1009.25,3464.15 1009.84,3463.49 1010.62,3463.06C1011.42,3462.62 1012.27,3462.4 1013.2,3462.4C1014.38,3462.4 1015.34,3462.7 1016.08,3463.29C1016.83,3463.88 1017.31,3464.72 1017.52,3465.82L1015.74,3466.09C1015.57,3465.37 1015.27,3464.82 1014.84,3464.45C1014.41,3464.09 1013.88,3463.9 1013.27,3463.9C1012.35,3463.9 1011.6,3464.24 1011.03,3464.9C1010.45,3465.56 1010.16,3466.6 1010.16,3468.03C1010.16,3469.49 1010.44,3470.54 1011,3471.2C1011.55,3471.86 1012.28,3472.18 1013.17,3472.18C1013.89,3472.18 1014.49,3471.96 1014.97,3471.52C1015.46,3471.08 1015.76,3470.4 1015.89,3469.49Z" style="fill:white;"/>
                <path d="M1018.27,3473.45C1018.27,3474 1018.71,3474.45 1019.27,3474.45L1021.1,3474.45C1021.65,3474.45 1022.1,3474 1022.1,3473.45L1022.1,3469.59C1022.1,3469.59 1022.21,3469.48 1022.21,3469.48C1022.21,3469.48 1025.12,3473.99 1025.12,3473.99C1025.3,3474.27 1025.62,3474.45 1025.96,3474.45L1028.22,3474.45C1028.59,3474.45 1028.93,3474.24 1029.1,3473.92C1029.27,3473.59 1029.26,3473.2 1029.05,3472.89L1024.97,3466.79C1024.97,3466.79 1028.5,3463.36 1028.5,3463.36C1028.79,3463.08 1028.88,3462.64 1028.73,3462.27C1028.58,3461.89 1028.21,3461.64 1027.8,3461.64L1025.43,3461.64C1025.16,3461.64 1024.91,3461.75 1024.72,3461.94L1022.1,3464.6C1022.1,3464.6 1022.1,3458.53 1022.1,3458.53C1022.1,3457.98 1021.65,3457.53 1021.1,3457.53L1019.27,3457.53C1018.71,3457.53 1018.27,3457.98 1018.27,3458.53L1018.27,3473.45ZM1019.27,3473.45L1019.27,3458.53L1021.1,3458.53L1021.1,3467.04L1025.43,3462.64L1027.8,3462.64L1023.67,3466.65L1028.22,3473.45L1025.96,3473.45L1022.39,3467.92L1021.1,3469.16L1021.1,3473.45L1019.27,3473.45Z" style="fill:white;"/>
            </g>
            <g transform="matrix(1,0,0,1,64.9606,218.504)">
                <text x="744.792px" y="3237.78px" style="font-family:'ArialMT', 'Arial', sans-serif;font-size:20.833px;fill:rgb(227,227,227);">x</text>
            </g>
        </g>
    </g>
</svg>
