<?xml version="1.0" encoding="UTF-8" standalone="no"?>
<!DOCTYPE svg PUBLIC "-//W3C//DTD SVG 1.1//EN" "http://www.w3.org/Graphics/SVG/1.1/DTD/svg11.dtd">
<svg width="100%" height="100%" viewBox="0 0 3412 864" version="1.1" xmlns="http://www.w3.org/2000/svg" xmlns:xlink="http://www.w3.org/1999/xlink" xml:space="preserve" xmlns:serif="http://www.serif.com/" style="fill-rule:evenodd;clip-rule:evenodd;stroke-linejoin:round;stroke-miterlimit:2;">
    <g transform="matrix(1,0,0,1,-37,-3586)">
        <g>
            <g transform="matrix(1,0,0,1,-194.882,47.2441)">
                <text x="302.91px" y="4370.84px" style="font-family:'ArialMT', 'Arial', sans-serif;font-size:100px;fill:rgb(53,53,53);">Healthy</text>
            </g>
            <g transform="matrix(1,0,0,1,-194.882,47.2441)">
                <text x="935.163px" y="4264.16px" style="font-family:'ArialMT', 'Arial', sans-serif;font-size:100px;fill:rgb(53,53,53);">Scarred</text>
            </g>
            <g transform="matrix(1,0,0,1,-194.882,47.2441)">
                <text x="1584.07px" y="4382.27px" style="font-family:'ArialMT', 'Arial', sans-serif;font-size:100px;fill:rgb(53,53,53);">Sceptic</text>
            </g>
            <g transform="matrix(1,0,0,1,-194.882,47.2441)">
                <text x="2109.29px" y="4382.27px" style="font-family:'ArialMT', 'Arial', sans-serif;font-size:100px;fill:rgb(53,53,53);">Broken</text>
            </g>
            <g transform="matrix(1,0,0,1,-194.882,47.2441)">
                <text x="2648.41px" y="4382.27px" style="font-family:'ArialMT', 'Arial', sans-serif;font-size:100px;fill:rgb(53,53,53);">Severed</text>
            </g>
            <g transform="matrix(1,0,0,1,-218.504,47.2441)">
                <text x="3129.19px" y="4382.27px" style="font-family:'ArialMT', 'Arial', sans-serif;font-size:100px;fill:rgb(53,53,53);">Oblitereated</text>
            </g>
            <g transform="matrix(1,0,0,1,-194.882,47.2441)">
                <g transform="matrix(1,0,0,1,-236.22,-236.22)">
                    <rect x="472.441" y="3779.53" width="472.441" height="708.661" style="fill:rgb(227,227,227);"/>
                    <path d="M949.049,3779.53C949.049,3777.23 947.183,3775.36 944.882,3775.36L472.441,3775.36C470.14,3775.36 468.274,3777.23 468.274,3779.53L468.274,4488.19C468.274,4490.49 470.14,4492.36 472.441,4492.36L944.882,4492.36C947.183,4492.36 949.049,4490.49 949.049,4488.19L949.049,3779.53ZM944.882,3779.53L472.441,3779.53L472.441,4488.19L944.882,4488.19L944.882,3779.53Z" style="fill:rgb(53,53,53);"/>
                </g>
                <g transform="matrix(1.46277e-16,2.38889,-0.565217,3.46096e-17,2655.43,2734.91)">
                    <path d="M442.227,3957.28L442.227,4133.86L377.953,3862.2L442.227,3590.55L442.227,3767.13L590.551,3767.13L590.551,3957.28L442.227,3957.28Z" style="fill:rgb(53,53,53);"/>
                </g>
            </g>
            <g transform="matrix(5.55112e-17,1,-1,5.55112e-17,4812.99,3472.44)">
                <g transform="matrix(1,0,0,1,-236.22,-236.22)">
                    <rect x="472.441" y="3779.53" width="472.441" height="708.661" style="fill:rgb(227,227,227);"/>
                    <path d="M949.049,3779.53C949.049,3777.23 947.183,3775.36 944.882,3775.36L472.441,3775.36C470.14,3775.36 468.274,3777.23 468.274,3779.53L468.274,4488.19C468.274,4490.49 470.14,4492.36 472.441,4492.36L944.882,4492.36C947.183,4492.36 949.049,4490.49 949.049,4488.19L949.049,3779.53ZM944.882,3779.53L472.441,3779.53L472.441,4488.19L944.882,4488.19L944.882,3779.53Z" style="fill:rgb(53,53,53);"/>
                </g>
                <g transform="matrix(1.46277e-16,2.38889,-0.565217,3.46096e-17,2655.43,2734.91)">
                    <path d="M442.227,3957.28L442.227,4133.86L377.953,3862.2L442.227,3590.55L442.227,3767.13L590.551,3767.13L590.551,3957.28L442.227,3957.28Z" style="fill:rgb(53,53,53);"/>
                </g>
            </g>
            <g transform="matrix(-1,-1.28186e-16,1.28186e-16,-1,2025.59,7842.52)">
                <g transform="matrix(1,0,0,1,-236.22,-236.22)">
                    <rect x="472.441" y="3779.53" width="472.441" height="708.661" style="fill:rgb(227,227,227);"/>
                    <path d="M949.049,3779.53C949.049,3777.23 947.183,3775.36 944.882,3775.36L472.441,3775.36C470.14,3775.36 468.274,3777.23 468.274,3779.53L468.274,4488.19C468.274,4490.49 470.14,4492.36 472.441,4492.36L944.882,4492.36C947.183,4492.36 949.049,4490.49 949.049,4488.19L949.049,3779.53ZM944.882,3779.53L472.441,3779.53L472.441,4488.19L944.882,4488.19L944.882,3779.53Z" style="fill:rgb(53,53,53);"/>
                </g>
                <g transform="matrix(1.46277e-16,2.38889,-0.565217,3.46096e-17,2655.43,2734.91)">
                    <path d="M442.227,3957.28L442.227,4133.86L377.953,3862.2L442.227,3590.55L442.227,3767.13L590.551,3767.13L590.551,3957.28L442.227,3957.28Z" style="fill:rgb(53,53,53);"/>
                </g>
            </g>
            <g transform="matrix(-1,-1.28186e-16,1.28186e-16,-1,2545.28,7842.52)">
                <g transform="matrix(-1,1.22465e-16,-1.22465e-16,-1,94.4882,8031.5)">
                    <rect x="472.441" y="3779.53" width="472.441" height="708.661" style="fill:rgb(53,53,53);"/>
                </g>
                <g transform="matrix(-1,1.28186e-16,-1.28186e-16,-1,2740.16,7795.28)">
                    <text x="3187.58px" y="3830.18px" style="font-family:'ArialMT', 'Arial', sans-serif;font-size:100px;fill:rgb(227,227,227);">Back to</text>
                    <text x="3134.78px" y="3933.45px" style="font-family:'ArialMT', 'Arial', sans-serif;font-size:100px;fill:rgb(227,227,227);">Body Part</text>
                    <text x="3240.41px" y="4036.72px" style="font-family:'ArialMT', 'Arial', sans-serif;font-size:100px;fill:rgb(227,227,227);">Deck</text>
                </g>
            </g>
            <g transform="matrix(1,0,0,1,-194.882,47.2441)">
                <g transform="matrix(1,5.72119e-18,-5.72119e-18,1,1559.06,-236.22)">
                    <rect x="472.441" y="3779.53" width="472.441" height="708.661" style="fill:rgb(53,53,53);"/>
                </g>
                <g>
                    <text x="2089.89px" y="3881.82px" style="font-family:'ArialMT', 'Arial', sans-serif;font-size:100px;fill:white;">Back Of</text>
                    <path d="M2096.21,3881.82C2096.21,3882.37 2096.66,3882.82 2097.21,3882.82L2124.5,3882.82C2129.16,3882.82 2133.09,3882.41 2136.3,3881.59C2139.58,3880.76 2142.31,3879.51 2144.49,3877.88C2146.69,3876.23 2148.54,3873.9 2150.03,3870.86C2151.52,3867.84 2152.26,3864.58 2152.26,3861.07C2152.26,3856.66 2151.02,3852.85 2148.57,3849.62C2146.52,3846.93 2143.75,3844.89 2140.24,3843.51C2142.78,3841.93 2144.75,3839.99 2146.16,3837.71C2147.92,3834.85 2148.8,3831.79 2148.8,3828.55C2148.8,3825.08 2147.81,3821.75 2145.84,3818.57C2143.86,3815.39 2141.12,3813.03 2137.62,3811.49C2134.22,3810 2129.7,3809.24 2124.06,3809.24C2124.06,3809.24 2097.21,3809.24 2097.21,3809.24C2096.66,3809.24 2096.21,3809.68 2096.21,3810.24L2096.21,3881.82ZM2097.21,3881.82L2097.21,3810.24L2124.06,3810.24C2129.53,3810.24 2133.92,3810.96 2137.22,3812.41C2140.53,3813.86 2143.12,3816.09 2144.99,3819.1C2146.86,3822.11 2147.8,3825.26 2147.8,3828.55C2147.8,3831.61 2146.97,3834.49 2145.3,3837.19C2143.64,3839.89 2141.14,3842.07 2137.78,3843.73C2142.11,3845 2145.44,3847.17 2147.77,3850.23C2150.1,3853.29 2151.26,3856.9 2151.26,3861.07C2151.26,3864.42 2150.55,3867.53 2149.14,3870.42C2147.72,3873.3 2145.97,3875.52 2143.89,3877.08C2141.8,3878.64 2139.19,3879.82 2136.05,3880.62C2132.91,3881.42 2129.06,3881.82 2124.5,3881.82L2097.21,3881.82ZM2106.68,3873.37L2124.5,3873.37C2127.56,3873.37 2129.71,3873.26 2130.95,3873.03C2133.13,3872.64 2134.95,3871.99 2136.42,3871.08C2137.88,3870.16 2139.09,3868.84 2140.03,3867.1C2140.97,3865.35 2141.45,3863.34 2141.45,3861.07C2141.45,3858.4 2140.76,3856.08 2139.4,3854.11C2138.03,3852.14 2136.13,3850.76 2133.71,3849.96C2131.28,3849.16 2127.79,3848.76 2123.23,3848.76L2106.68,3848.76L2106.68,3873.37ZM2107.68,3872.37L2107.68,3849.76C2107.68,3849.76 2123.23,3849.76 2123.23,3849.76C2127.66,3849.76 2131.04,3850.13 2133.39,3850.91C2135.6,3851.63 2137.33,3852.89 2138.57,3854.68C2139.83,3856.49 2140.45,3858.62 2140.45,3861.07C2140.45,3863.16 2140.02,3865.02 2139.15,3866.62C2138.3,3868.2 2137.22,3869.4 2135.89,3870.23C2134.52,3871.08 2132.81,3871.68 2130.77,3872.04C2130.77,3872.04 2130.77,3872.05 2130.77,3872.05C2129.57,3872.27 2127.48,3872.37 2124.5,3872.37L2107.68,3872.37ZM2106.68,3840.31L2122.16,3840.31C2126.36,3840.31 2129.37,3840.04 2131.19,3839.48C2133.6,3838.77 2135.42,3837.58 2136.64,3835.92C2137.86,3834.26 2138.47,3832.18 2138.47,3829.67C2138.47,3827.29 2137.9,3825.2 2136.76,3823.39C2135.62,3821.59 2133.99,3820.35 2131.88,3819.68C2129.76,3819.02 2126.13,3818.68 2120.99,3818.68L2106.68,3818.68L2106.68,3840.31ZM2107.68,3839.31L2107.68,3819.68C2107.68,3819.68 2120.99,3819.68 2120.99,3819.68C2125.99,3819.68 2129.52,3819.99 2131.58,3820.64C2133.45,3821.23 2134.9,3822.32 2135.91,3823.93C2136.96,3825.58 2137.47,3827.5 2137.47,3829.67C2137.47,3831.94 2136.94,3833.83 2135.83,3835.33C2134.73,3836.83 2133.08,3837.88 2130.91,3838.53C2130.91,3838.53 2130.9,3838.53 2130.9,3838.53C2129.14,3839.06 2126.22,3839.31 2122.16,3839.31L2107.68,3839.31Z" style="fill:rgb(227,227,227);"/>
                    <path d="M2196.28,3877.32C2196.61,3879.16 2197.15,3880.8 2197.88,3882.26C2198.05,3882.6 2198.39,3882.82 2198.77,3882.82L2207.95,3882.82C2208.3,3882.82 2208.63,3882.63 2208.81,3882.32C2208.99,3882.02 2209,3881.64 2208.82,3881.33C2207.77,3879.45 2207.07,3877.48 2206.72,3875.42C2206.34,3873.28 2206.17,3868.17 2206.17,3860.09C2206.17,3860.09 2206.17,3848.37 2206.17,3848.37C2206.17,3844.37 2206.01,3841.61 2205.71,3840.07C2205.71,3840.07 2205.71,3840.06 2205.71,3840.05C2205.15,3837.47 2204.16,3835.34 2202.76,3833.65C2201.37,3831.96 2199.21,3830.53 2196.24,3829.42C2193.39,3828.34 2189.67,3827.79 2185.1,3827.79C2180.51,3827.79 2176.48,3828.42 2172.99,3829.68C2169.41,3830.97 2166.68,3832.83 2164.78,3835.22C2162.91,3837.59 2161.55,3840.7 2160.73,3844.55C2160.68,3844.82 2160.73,3845.11 2160.89,3845.33C2161.05,3845.56 2161.3,3845.71 2161.58,3845.75L2170.17,3846.92C2170.67,3846.99 2171.15,3846.67 2171.27,3846.18C2172.15,3842.78 2173.45,3840.38 2175.27,3839.04C2177.11,3837.69 2179.97,3837.07 2183.83,3837.07C2187.96,3837.07 2191.08,3837.94 2193.18,3839.79C2193.18,3839.79 2193.18,3839.79 2193.18,3839.79C2194.67,3841.11 2195.33,3843.4 2195.33,3846.61C2195.33,3846.87 2195.32,3847.39 2195.3,3848.18C2191.98,3849.24 2187.05,3850.16 2180.49,3850.94C2180.49,3850.94 2180.49,3850.94 2180.49,3850.94C2176.94,3851.37 2174.29,3851.82 2172.54,3852.29C2172.53,3852.29 2172.53,3852.29 2172.53,3852.29C2170.07,3852.97 2167.87,3853.98 2165.91,3855.31C2163.91,3856.66 2162.29,3858.46 2161.05,3860.7C2159.82,3862.95 2159.2,3865.43 2159.2,3868.15C2159.2,3872.78 2160.84,3876.58 2164.11,3879.55C2167.33,3882.48 2171.93,3883.99 2177.92,3883.99C2181.5,3883.99 2184.85,3883.4 2187.97,3882.22C2190.64,3881.2 2193.41,3879.57 2196.28,3877.32L2196.28,3877.32ZM2197.01,3875.42C2193.76,3878.19 2190.62,3880.14 2187.61,3881.28C2184.6,3882.42 2181.37,3882.99 2177.92,3882.99C2172.22,3882.99 2167.85,3881.6 2164.79,3878.82C2161.73,3876.03 2160.2,3872.47 2160.2,3868.15C2160.2,3865.61 2160.78,3863.29 2161.93,3861.19C2163.09,3859.09 2164.6,3857.4 2166.47,3856.13C2168.34,3854.86 2170.45,3853.9 2172.8,3853.25C2174.52,3852.8 2177.12,3852.36 2180.61,3851.93C2187.7,3851.09 2192.93,3850.08 2196.28,3848.91C2196.31,3847.7 2196.33,3846.94 2196.33,3846.61C2196.33,3843.03 2195.5,3840.51 2193.84,3839.04C2191.59,3837.06 2188.26,3836.07 2183.83,3836.07C2179.7,3836.07 2176.64,3836.79 2174.68,3838.24C2172.7,3839.69 2171.25,3842.25 2170.3,3845.93L2161.71,3844.76C2162.49,3841.08 2163.78,3838.11 2165.57,3835.85C2167.36,3833.58 2169.95,3831.84 2173.33,3830.62C2176.72,3829.4 2180.64,3828.79 2185.1,3828.79C2189.53,3828.79 2193.12,3829.31 2195.89,3830.35C2198.66,3831.39 2200.69,3832.7 2201.99,3834.28C2203.3,3835.86 2204.21,3837.86 2204.73,3840.26C2205.02,3841.76 2205.17,3844.46 2205.17,3848.37L2205.17,3860.09C2205.17,3868.26 2205.36,3873.43 2205.73,3875.59C2206.1,3877.76 2206.84,3879.83 2207.95,3881.82L2198.77,3881.82C2197.86,3879.99 2197.27,3877.86 2197.01,3875.42ZM2196.28,3855.79C2193.09,3857.09 2188.31,3858.2 2181.93,3859.11C2178.31,3859.63 2175.76,3860.22 2174.26,3860.87C2172.76,3861.52 2171.61,3862.47 2170.79,3863.73C2169.98,3864.98 2169.57,3866.37 2169.57,3867.9C2169.57,3870.24 2170.46,3872.2 2172.23,3873.76C2174.01,3875.32 2176.6,3876.11 2180.02,3876.11C2183.41,3876.11 2186.42,3875.36 2189.05,3873.88C2191.69,3872.4 2193.63,3870.38 2194.87,3867.8C2195.81,3865.82 2196.28,3862.89 2196.28,3859.01L2196.28,3855.79ZM2195.28,3857.24L2195.28,3859.01C2195.28,3862.7 2194.86,3865.49 2193.96,3867.37C2192.81,3869.76 2191.01,3871.64 2188.57,3873.01C2186.07,3874.41 2183.22,3875.11 2180.02,3875.11C2176.9,3875.11 2174.51,3874.44 2172.89,3873.01C2171.35,3871.65 2170.57,3869.95 2170.57,3867.9C2170.57,3866.57 2170.92,3865.36 2171.63,3864.27C2172.34,3863.18 2173.35,3862.36 2174.66,3861.79C2176.11,3861.16 2178.58,3860.61 2182.07,3860.1C2187.69,3859.3 2192.1,3858.34 2195.28,3857.24L2195.28,3857.24Z" style="fill:rgb(227,227,227);"/>
                    <path d="M2252.76,3861.83C2252.21,3861.76 2251.72,3862.14 2251.64,3862.68C2251.06,3866.8 2249.72,3869.87 2247.56,3871.85C2245.43,3873.8 2242.77,3874.76 2239.59,3874.76C2235.61,3874.76 2232.38,3873.31 2229.91,3870.38C2227.35,3867.36 2226.14,3862.5 2226.14,3855.84C2226.14,3849.28 2227.4,3844.47 2230.04,3841.43C2232.62,3838.48 2235.96,3837.02 2240.08,3837.02C2242.76,3837.02 2245.04,3837.81 2246.93,3839.41C2248.85,3841.05 2250.16,3843.5 2250.92,3846.74C2251.04,3847.25 2251.53,3847.58 2252.05,3847.5L2260.59,3846.18C2260.86,3846.14 2261.1,3845.99 2261.26,3845.77C2261.41,3845.55 2261.47,3845.27 2261.42,3845.01C2260.36,3839.51 2257.94,3835.27 2254.18,3832.28C2250.43,3829.3 2245.63,3827.79 2239.74,3827.79C2235.1,3827.79 2230.82,3828.88 2226.88,3831.07C2222.89,3833.27 2219.92,3836.57 2217.97,3840.98C2216.07,3845.3 2215.11,3850.33 2215.11,3856.09C2215.11,3865.05 2217.38,3871.91 2221.84,3876.71C2226.34,3881.55 2232.29,3883.99 2239.69,3883.99C2245.61,3883.99 2250.61,3882.22 2254.68,3878.69C2258.73,3875.18 2261.27,3870.32 2262.26,3864.1C2262.3,3863.84 2262.23,3863.56 2262.07,3863.35C2261.91,3863.13 2261.67,3862.99 2261.4,3862.95L2252.76,3861.83ZM2252.63,3862.82L2261.27,3863.95C2260.33,3869.9 2257.91,3874.57 2254.02,3877.94C2250.13,3881.31 2245.35,3882.99 2239.69,3882.99C2232.59,3882.99 2226.89,3880.67 2222.58,3876.03C2218.26,3871.39 2216.11,3864.74 2216.11,3856.09C2216.11,3850.49 2217.03,3845.59 2218.89,3841.39C2220.74,3837.19 2223.57,3834.04 2227.36,3831.94C2231.15,3829.84 2235.28,3828.79 2239.74,3828.79C2245.37,3828.79 2249.98,3830.21 2253.56,3833.06C2257.14,3835.91 2259.43,3839.96 2260.44,3845.2L2251.9,3846.51C2251.08,3843.03 2249.64,3840.41 2247.58,3838.65C2245.51,3836.9 2243.01,3836.02 2240.08,3836.02C2235.65,3836.02 2232.06,3837.6 2229.29,3840.78C2226.52,3843.95 2225.14,3848.97 2225.14,3855.84C2225.14,3862.81 2226.47,3867.87 2229.14,3871.03C2231.81,3874.18 2235.3,3875.76 2239.59,3875.76C2243.04,3875.76 2245.92,3874.7 2248.23,3872.59C2250.55,3870.47 2252.01,3867.22 2252.63,3862.82Z" style="fill:rgb(227,227,227);"/>
                    <path d="M2267.84,3881.82C2267.84,3882.37 2268.29,3882.82 2268.84,3882.82L2277.63,3882.82C2278.18,3882.82 2278.63,3882.37 2278.63,3881.82L2278.63,3861.69C2278.63,3861.69 2283.65,3856.87 2283.65,3856.87C2283.65,3856.87 2300.13,3882.36 2300.13,3882.36C2300.31,3882.64 2300.63,3882.82 2300.97,3882.82L2311.81,3882.82C2312.18,3882.82 2312.52,3882.61 2312.69,3882.29C2312.86,3881.96 2312.85,3881.57 2312.64,3881.26L2291.28,3849.34C2291.28,3849.34 2310.5,3830.68 2310.5,3830.68C2310.8,3830.4 2310.89,3829.96 2310.73,3829.59C2310.58,3829.21 2310.21,3828.96 2309.81,3828.96L2298.43,3828.96C2298.16,3828.96 2297.91,3829.07 2297.72,3829.26L2278.63,3848.62C2278.63,3848.62 2278.63,3810.24 2278.63,3810.24C2278.63,3809.68 2278.18,3809.24 2277.63,3809.24L2268.84,3809.24C2268.29,3809.24 2267.84,3809.68 2267.84,3810.24L2267.84,3881.82ZM2268.84,3881.82L2268.84,3810.24L2277.63,3810.24L2277.63,3851.06L2298.43,3829.96L2309.81,3829.96L2289.98,3849.2L2311.81,3881.82L2300.97,3881.82L2283.83,3855.3L2277.63,3861.26L2277.63,3881.82L2268.84,3881.82Z" style="fill:rgb(227,227,227);"/>
                    <path d="M2343.82,3846.95C2343.82,3853.39 2345.22,3859.49 2348.02,3865.26C2350.84,3871.07 2354.98,3875.65 2360.45,3879.01C2365.91,3882.36 2372.11,3884.04 2379.05,3884.04C2385.43,3884.04 2391.39,3882.52 2396.91,3879.5C2402.45,3876.45 2406.74,3871.98 2409.77,3866.06C2412.77,3860.2 2414.27,3853.55 2414.27,3846.12C2414.27,3838.8 2412.84,3832.25 2409.99,3826.47C2407.12,3820.64 2402.95,3816.1 2397.48,3812.84C2392.02,3809.6 2385.89,3807.97 2379.09,3807.97C2368.7,3807.97 2360.23,3811.44 2353.66,3818.36C2347.12,3825.25 2343.82,3834.78 2343.82,3846.95ZM2344.82,3846.95C2344.82,3835.07 2348.01,3825.77 2354.39,3819.05C2360.77,3812.33 2369,3808.97 2379.09,3808.97C2385.7,3808.97 2391.66,3810.55 2396.97,3813.7C2402.27,3816.86 2406.32,3821.26 2409.1,3826.91C2411.88,3832.56 2413.27,3838.96 2413.27,3846.12C2413.27,3853.38 2411.81,3859.88 2408.88,3865.61C2405.95,3871.34 2401.8,3875.67 2396.43,3878.62C2391.06,3881.57 2385.26,3883.04 2379.05,3883.04C2372.31,3883.04 2366.28,3881.41 2360.98,3878.16C2355.67,3874.9 2351.65,3870.46 2348.92,3864.83C2346.18,3859.19 2344.82,3853.24 2344.82,3846.95ZM2354.58,3847.1C2354.58,3855.73 2356.9,3862.52 2361.54,3867.49C2366.18,3872.45 2372,3874.93 2379,3874.93C2386.12,3874.93 2391.99,3872.43 2396.6,3867.41C2401.2,3862.4 2403.51,3855.29 2403.51,3846.08C2403.51,3840.25 2402.52,3835.16 2400.55,3830.82C2398.58,3826.47 2395.7,3823.1 2391.91,3820.71C2388.12,3818.32 2383.86,3817.12 2379.14,3817.12C2372.44,3817.12 2366.67,3819.42 2361.83,3824.03C2357,3828.64 2354.58,3836.33 2354.58,3847.1ZM2355.58,3847.1C2355.58,3836.68 2357.85,3829.21 2362.52,3824.75C2367.16,3820.33 2372.7,3818.12 2379.14,3818.12C2383.66,3818.12 2387.74,3819.26 2391.38,3821.56C2395.01,3823.84 2397.76,3827.07 2399.64,3831.23C2401.56,3835.46 2402.51,3840.41 2402.51,3846.08C2402.51,3854.99 2400.32,3861.89 2395.86,3866.74C2391.45,3871.54 2385.83,3873.93 2379,3873.93C2372.29,3873.93 2366.71,3871.56 2362.27,3866.8C2357.79,3862.01 2355.58,3855.43 2355.58,3847.1Z" style="fill:rgb(227,227,227);"/>
                    <path d="M2425.46,3881.82C2425.46,3882.37 2425.9,3882.82 2426.46,3882.82L2435.2,3882.82C2435.75,3882.82 2436.2,3882.37 2436.2,3881.82L2436.2,3837.8C2436.2,3837.8 2445.3,3837.8 2445.3,3837.8C2445.86,3837.8 2446.3,3837.35 2446.3,3836.8L2446.3,3829.96C2446.3,3829.41 2445.86,3828.96 2445.3,3828.96L2436.2,3828.96C2436.2,3828.96 2436.2,3825.18 2436.2,3825.18C2436.2,3822.4 2436.59,3820.49 2437.57,3819.48C2438.54,3818.49 2440.2,3818.07 2442.52,3818.07C2444.09,3818.07 2445.76,3818.23 2447.52,3818.54C2447.78,3818.59 2448.05,3818.53 2448.27,3818.38C2448.49,3818.22 2448.64,3817.99 2448.68,3817.73L2450,3810.06C2450.09,3809.53 2449.74,3809.02 2449.21,3808.91C2446.14,3808.31 2443.34,3808.01 2440.81,3808.01C2436.73,3808.01 2433.57,3808.8 2431.3,3810.31C2428.98,3811.85 2427.37,3813.86 2426.45,3816.33C2426.45,3816.33 2426.45,3816.34 2426.45,3816.34C2425.8,3818.11 2425.46,3820.81 2425.46,3824.44L2425.46,3828.96C2425.46,3828.96 2418.69,3828.96 2418.69,3828.96C2418.14,3828.96 2417.69,3829.41 2417.69,3829.96L2417.69,3836.8C2417.69,3837.35 2418.14,3837.8 2418.69,3837.8L2425.46,3837.8C2425.46,3837.8 2425.46,3881.82 2425.46,3881.82ZM2426.46,3881.82L2426.46,3836.8L2418.69,3836.8L2418.69,3829.96L2426.46,3829.96L2426.46,3824.44C2426.46,3820.96 2426.77,3818.37 2427.39,3816.68C2428.23,3814.4 2429.72,3812.56 2431.85,3811.14C2433.98,3809.72 2436.97,3809.01 2440.81,3809.01C2443.29,3809.01 2446.02,3809.31 2449.01,3809.89L2447.7,3817.56C2445.87,3817.23 2444.15,3817.07 2442.52,3817.07C2439.85,3817.07 2437.96,3817.64 2436.86,3818.78C2435.75,3819.92 2435.2,3822.05 2435.2,3825.18L2435.2,3829.96L2445.3,3829.96L2445.3,3836.8L2435.2,3836.8L2435.2,3881.82L2426.46,3881.82Z" style="fill:rgb(227,227,227);"/>
                    <text x="2159.34px" y="3985.09px" style="font-family:'ArialMT', 'Arial', sans-serif;font-size:100px;fill:white;">Card</text>
                    <path d="M2218.38,3959.02C2218.11,3958.95 2217.84,3959 2217.6,3959.14C2217.37,3959.28 2217.21,3959.51 2217.15,3959.78C2215.91,3965.55 2213.55,3969.91 2210.02,3972.85C2206.52,3975.76 2202.24,3977.2 2197.18,3977.2C2193.01,3977.2 2189.13,3976.13 2185.54,3973.98C2181.98,3971.84 2179.37,3968.61 2177.68,3964.29C2175.95,3959.85 2175.09,3954.66 2175.09,3948.71C2175.09,3944.1 2175.82,3939.63 2177.28,3935.29C2178.71,3931.05 2181.18,3927.67 2184.7,3925.16C2188.24,3922.64 2192.65,3921.39 2197.92,3921.39C2202.46,3921.39 2206.23,3922.5 2209.23,3924.76C2212.24,3927.03 2214.52,3930.66 2216.11,3935.64C2216.26,3936.14 2216.78,3936.43 2217.29,3936.31L2226.61,3934.11C2226.88,3934.05 2227.11,3933.88 2227.25,3933.64C2227.39,3933.4 2227.42,3933.12 2227.34,3932.86C2225.36,3926.02 2221.83,3920.72 2216.78,3916.95C2211.73,3913.19 2205.51,3911.29 2198.11,3911.29C2191.62,3911.29 2185.68,3912.77 2180.27,3915.73C2174.84,3918.71 2170.65,3923.06 2167.71,3928.8C2164.79,3934.48 2163.32,3941.13 2163.32,3948.76C2163.32,3955.74 2164.61,3962.26 2167.19,3968.34C2169.79,3974.5 2173.6,3979.19 2178.6,3982.44C2183.57,3985.67 2190.03,3987.31 2197.97,3987.31C2205.67,3987.31 2212.18,3985.19 2217.51,3980.97C2222.83,3976.76 2226.53,3970.65 2228.57,3962.63C2228.64,3962.37 2228.6,3962.1 2228.46,3961.87C2228.33,3961.64 2228.11,3961.48 2227.85,3961.41L2218.38,3959.02ZM2218.13,3959.99L2227.6,3962.38C2225.62,3970.16 2222.05,3976.1 2216.89,3980.18C2211.73,3984.27 2205.42,3986.31 2197.97,3986.31C2190.25,3986.31 2183.98,3984.74 2179.14,3981.6C2174.31,3978.46 2170.63,3973.91 2168.11,3967.95C2165.58,3961.99 2164.32,3955.6 2164.32,3948.76C2164.32,3941.31 2165.75,3934.8 2168.6,3929.25C2171.44,3923.7 2175.5,3919.49 2180.75,3916.61C2186.01,3913.73 2191.8,3912.29 2198.11,3912.29C2205.27,3912.29 2211.3,3914.11 2216.18,3917.76C2221.06,3921.4 2224.46,3926.53 2226.38,3933.14L2217.06,3935.33C2215.4,3930.12 2212.99,3926.33 2209.83,3923.96C2206.67,3921.58 2202.7,3920.39 2197.92,3920.39C2192.41,3920.39 2187.82,3921.71 2184.12,3924.35C2180.43,3926.98 2177.83,3930.52 2176.34,3934.97C2174.84,3939.41 2174.09,3943.99 2174.09,3948.71C2174.09,3954.8 2174.98,3960.11 2176.75,3964.65C2178.52,3969.2 2181.28,3972.59 2185.03,3974.84C2188.77,3977.08 2192.82,3978.2 2197.18,3978.2C2202.49,3978.2 2206.98,3976.67 2210.66,3973.61C2214.34,3970.55 2216.83,3966.01 2218.13,3959.99Z" style="fill:rgb(227,227,227);"/>
                    <path d="M2271.25,3980.59C2271.59,3982.43 2272.12,3984.08 2272.85,3985.54C2273.02,3985.88 2273.37,3986.09 2273.75,3986.09L2282.93,3986.09C2283.28,3986.09 2283.61,3985.9 2283.79,3985.6C2283.97,3985.29 2283.97,3984.91 2283.8,3984.6C2282.75,3982.72 2282.05,3980.75 2281.69,3978.69C2281.32,3976.55 2281.14,3971.44 2281.14,3963.36C2281.14,3963.36 2281.14,3951.64 2281.14,3951.64C2281.14,3947.64 2280.99,3944.88 2280.68,3943.34C2280.68,3943.34 2280.68,3943.33 2280.68,3943.33C2280.12,3940.74 2279.14,3938.61 2277.74,3936.92C2276.35,3935.23 2274.18,3933.8 2271.22,3932.69C2268.36,3931.61 2264.65,3931.06 2260.08,3931.06C2255.49,3931.06 2251.45,3931.7 2247.97,3932.95C2244.39,3934.24 2241.66,3936.1 2239.76,3938.5C2237.89,3940.87 2236.53,3943.97 2235.71,3947.82C2235.65,3948.09 2235.71,3948.38 2235.87,3948.6C2236.03,3948.83 2236.28,3948.98 2236.55,3949.02L2245.14,3950.19C2245.65,3950.26 2246.12,3949.94 2246.25,3949.45C2247.12,3946.05 2248.42,3943.65 2250.24,3942.32C2252.08,3940.96 2254.94,3940.34 2258.8,3940.34C2262.93,3940.34 2266.06,3941.21 2268.15,3943.07C2268.15,3943.07 2268.15,3943.07 2268.15,3943.07C2269.64,3944.38 2270.3,3946.67 2270.3,3949.88C2270.3,3950.14 2270.3,3950.66 2270.28,3951.45C2266.96,3952.51 2262.02,3953.43 2255.46,3954.21C2255.46,3954.21 2255.46,3954.21 2255.46,3954.21C2251.92,3954.64 2249.27,3955.09 2247.51,3955.56C2247.51,3955.56 2247.51,3955.56 2247.5,3955.56C2245.05,3956.24 2242.85,3957.25 2240.89,3958.58C2238.89,3959.93 2237.26,3961.73 2236.03,3963.98C2234.79,3966.22 2234.17,3968.7 2234.17,3971.42C2234.17,3976.05 2235.82,3979.85 2239.09,3982.83C2242.31,3985.75 2246.9,3987.26 2252.9,3987.26C2256.47,3987.26 2259.82,3986.67 2262.94,3985.49C2265.62,3984.47 2268.39,3982.85 2271.25,3980.59L2271.25,3980.59ZM2271.99,3978.69C2268.73,3981.46 2265.6,3983.41 2262.59,3984.55C2259.58,3985.69 2256.35,3986.26 2252.9,3986.26C2247.2,3986.26 2242.82,3984.87 2239.76,3982.09C2236.7,3979.3 2235.17,3975.75 2235.17,3971.42C2235.17,3968.88 2235.75,3966.56 2236.91,3964.46C2238.06,3962.36 2239.58,3960.68 2241.45,3959.41C2243.32,3958.14 2245.43,3957.18 2247.77,3956.53C2249.5,3956.07 2252.1,3955.63 2255.58,3955.21C2262.68,3954.36 2267.9,3953.35 2271.26,3952.18C2271.29,3950.97 2271.3,3950.21 2271.3,3949.88C2271.3,3946.3 2270.47,3943.78 2268.82,3942.32C2266.57,3940.33 2263.23,3939.34 2258.8,3939.34C2254.67,3939.34 2251.62,3940.06 2249.65,3941.51C2247.68,3942.96 2246.22,3945.52 2245.28,3949.2L2236.69,3948.03C2237.47,3944.35 2238.75,3941.38 2240.54,3939.12C2242.33,3936.86 2244.92,3935.11 2248.31,3933.89C2251.69,3932.67 2255.62,3932.06 2260.08,3932.06C2264.5,3932.06 2268.1,3932.58 2270.87,3933.62C2273.63,3934.67 2275.67,3935.98 2276.97,3937.56C2278.27,3939.13 2279.18,3941.13 2279.7,3943.54C2280,3945.03 2280.14,3947.74 2280.14,3951.64L2280.14,3963.36C2280.14,3971.53 2280.33,3976.7 2280.7,3978.86C2281.08,3981.03 2281.82,3983.1 2282.93,3985.09L2273.75,3985.09C2272.84,3983.27 2272.25,3981.13 2271.99,3978.69ZM2271.26,3959.06C2268.07,3960.37 2263.28,3961.47 2256.9,3962.38C2253.29,3962.91 2250.73,3963.49 2249.24,3964.14C2247.74,3964.79 2246.58,3965.74 2245.77,3967C2244.95,3968.25 2244.55,3969.64 2244.55,3971.17C2244.55,3973.52 2245.43,3975.47 2247.21,3977.03C2248.98,3978.6 2251.58,3979.38 2255,3979.38C2258.38,3979.38 2261.39,3978.64 2264.03,3977.15C2266.67,3975.67 2268.6,3973.65 2269.84,3971.08C2270.78,3969.09 2271.26,3966.16 2271.26,3962.29L2271.26,3959.06ZM2270.26,3960.51L2270.26,3962.29C2270.26,3965.97 2269.84,3968.76 2268.94,3970.64C2267.79,3973.03 2265.99,3974.91 2263.54,3976.28C2261.05,3977.68 2258.2,3978.38 2255,3978.38C2251.88,3978.38 2249.49,3977.71 2247.87,3976.28C2246.32,3974.92 2245.55,3973.22 2245.55,3971.17C2245.55,3969.84 2245.9,3968.63 2246.61,3967.54C2247.32,3966.45 2248.33,3965.63 2249.63,3965.06C2251.08,3964.43 2253.55,3963.88 2257.04,3963.37C2262.67,3962.57 2267.07,3961.61 2270.26,3960.51L2270.26,3960.51Z" style="fill:rgb(227,227,227);"/>
                    <path d="M2292.67,3985.09C2292.67,3985.64 2293.12,3986.09 2293.67,3986.09L2302.46,3986.09C2303.01,3986.09 2303.46,3985.64 2303.46,3985.09L2303.46,3957.94C2303.46,3954.34 2303.93,3951.02 2304.88,3947.99C2305.46,3946.15 2306.43,3944.71 2307.8,3943.68C2309.15,3942.65 2310.67,3942.14 2312.37,3942.14C2314.35,3942.14 2316.33,3942.74 2318.31,3943.91C2318.56,3944.06 2318.87,3944.09 2319.15,3943.99C2319.43,3943.89 2319.65,3943.67 2319.75,3943.4L2322.78,3935.24C2322.95,3934.8 2322.77,3934.29 2322.37,3934.04C2319.13,3932.05 2315.94,3931.06 2312.81,3931.06C2310.55,3931.06 2308.48,3931.7 2306.6,3932.99C2305.35,3933.86 2304,3935.35 2302.58,3937.49C2302.58,3937.49 2302.58,3933.23 2302.58,3933.23C2302.58,3932.68 2302.13,3932.23 2301.58,3932.23L2293.67,3932.23C2293.12,3932.23 2292.67,3932.68 2292.67,3933.23L2292.67,3985.09ZM2293.67,3985.09L2293.67,3933.23L2301.58,3933.23L2301.58,3941.1C2303.6,3937.42 2305.46,3934.99 2307.17,3933.82C2308.88,3932.65 2310.76,3932.06 2312.81,3932.06C2315.77,3932.06 2318.78,3933.01 2321.84,3934.89L2318.82,3943.05C2316.67,3941.78 2314.52,3941.14 2312.37,3941.14C2310.45,3941.14 2308.72,3941.72 2307.19,3942.88C2305.66,3944.03 2304.57,3945.64 2303.92,3947.69C2302.95,3950.81 2302.46,3954.23 2302.46,3957.94L2302.46,3985.09L2293.67,3985.09Z" style="fill:rgb(227,227,227);"/>
                    <path d="M2359.71,3985.09C2359.71,3985.64 2360.16,3986.09 2360.71,3986.09L2368.86,3986.09C2369.42,3986.09 2369.86,3985.64 2369.86,3985.09L2369.86,3913.51C2369.86,3912.95 2369.42,3912.51 2368.86,3912.51L2360.12,3912.51C2359.57,3912.51 2359.12,3912.95 2359.12,3913.51L2359.12,3936.47C2357.84,3935.18 2356.35,3934.08 2354.64,3933.16C2352.06,3931.77 2349.12,3931.06 2345.82,3931.06C2341.35,3931.06 2337.31,3932.24 2333.7,3934.59C2330.08,3936.95 2327.36,3940.33 2325.56,3944.74C2323.78,3949.07 2322.89,3953.89 2322.89,3959.21C2322.89,3964.68 2323.88,3969.51 2325.84,3973.72C2327.83,3977.98 2330.64,3981.3 2334.26,3983.68C2337.89,3986.07 2341.88,3987.26 2346.21,3987.26C2351.85,3987.26 2356.35,3985.35 2359.71,3981.54C2359.71,3981.54 2359.71,3985.09 2359.71,3985.09ZM2360.71,3985.09L2360.71,3978.55C2357.42,3983.69 2352.59,3986.26 2346.21,3986.26C2342.07,3986.26 2338.27,3985.12 2334.81,3982.84C2331.34,3980.56 2328.65,3977.38 2326.75,3973.3C2324.85,3969.21 2323.89,3964.52 2323.89,3959.21C2323.89,3954.03 2324.76,3949.34 2326.48,3945.12C2328.21,3940.91 2330.79,3937.68 2334.24,3935.43C2337.7,3933.18 2341.55,3932.06 2345.82,3932.06C2348.94,3932.06 2351.72,3932.72 2354.17,3934.04C2356.61,3935.36 2358.59,3937.08 2360.12,3939.19L2360.12,3913.51L2368.86,3913.51L2368.86,3985.09L2360.71,3985.09ZM2332.93,3959.21C2332.93,3965.85 2334.33,3970.82 2337.13,3974.1C2339.93,3977.39 2343.23,3979.03 2347.04,3979.03C2350.88,3979.03 2354.14,3977.46 2356.83,3974.32C2359.51,3971.18 2360.86,3966.39 2360.86,3959.94C2360.86,3952.85 2359.49,3947.64 2356.76,3944.32C2354.02,3941 2350.65,3939.34 2346.65,3939.34C2342.74,3939.34 2339.48,3940.93 2336.86,3944.12C2334.24,3947.31 2332.93,3952.34 2332.93,3959.21ZM2333.93,3959.21C2333.93,3952.64 2335.12,3947.81 2337.63,3944.76C2340.05,3941.82 2343.05,3940.34 2346.65,3940.34C2350.35,3940.34 2353.45,3941.88 2355.98,3944.95C2358.6,3948.14 2359.86,3953.14 2359.86,3959.94C2359.86,3966.09 2358.63,3970.68 2356.07,3973.67C2353.59,3976.57 2350.58,3978.03 2347.04,3978.03C2343.52,3978.03 2340.47,3976.49 2337.89,3973.45C2335.21,3970.31 2333.93,3965.56 2333.93,3959.21Z" style="fill:rgb(227,227,227);"/>
                </g>
            </g>
            <g transform="matrix(1,0,0,1,-194.882,47.2441)">
                <g transform="matrix(1,5.72119e-18,-5.72119e-18,1,2125.98,-236.22)">
                    <rect x="472.441" y="3779.53" width="472.441" height="708.661" style="fill:rgb(227,227,227);"/>
                </g>
                <g>
                    <text x="2626.22px" y="3830.18px" style="font-family:'ArialMT', 'Arial', sans-serif;font-size:100px;fill:rgb(53,53,53);">T<tspan x="2676.22px 2731.84px " y="3830.18px 3830.18px ">o </tspan>Player</text>
                    <text x="2751.25px" y="3933.45px" style="font-family:'ArialMT', 'Arial', sans-serif;font-size:100px;fill:rgb(53,53,53);">that</text>
                    <text x="2648.41px" y="4036.72px" style="font-family:'ArialMT', 'Arial', sans-serif;font-size:100px;fill:rgb(53,53,53);">Severed</text>
                </g>
            </g>
        </g>
    </g>
</svg>
