<?xml version="1.0" encoding="UTF-8" standalone="no"?>
<!DOCTYPE svg PUBLIC "-//W3C//DTD SVG 1.1//EN" "http://www.w3.org/Graphics/SVG/1.1/DTD/svg11.dtd">
<svg width="100%" height="100%" viewBox="0 0 1296 1334" version="1.1" xmlns="http://www.w3.org/2000/svg" xmlns:xlink="http://www.w3.org/1999/xlink" xml:space="preserve" xmlns:serif="http://www.serif.com/" style="fill-rule:evenodd;clip-rule:evenodd;stroke-linecap:square;stroke-miterlimit:1.5;">
    <g transform="matrix(1,0,0,1,-764,-306)">
        <g id="Landscape-Hexflower" serif:id="Landscape Hexflower">
            <g transform="matrix(6.10688e-17,-0.99733,0.99733,6.10688e-17,828.033,2247.02)">
                <path d="M1227.44,354.014L1330,413.228L1330,531.654L1227.44,590.867L1124.88,531.654L1124.88,413.228L1227.44,354.014Z" style="fill:rgb(177,188,31);stroke:rgb(87,34,34);stroke-width:10.44px;"/>
            </g>
            <g transform="matrix(6.10688e-17,-0.99733,0.99733,6.10688e-17,828.033,2042.45)">
                <path d="M1227.44,354.014L1330,413.228L1330,531.654L1227.44,590.867L1124.88,531.654L1124.88,413.228L1227.44,354.014Z" style="fill:rgb(195,186,158);stroke:rgb(87,34,34);stroke-width:10.44px;"/>
            </g>
            <g transform="matrix(6.10688e-17,-0.99733,0.99733,6.10688e-17,650.868,2144.74)">
                <path d="M1227.44,354.014L1330,413.228L1330,531.654L1227.44,590.867L1124.88,531.654L1124.88,413.228L1227.44,354.014Z" style="fill:rgb(195,186,158);stroke:rgb(87,34,34);stroke-width:10.44px;"/>
            </g>
            <g transform="matrix(6.10688e-17,-0.99733,0.99733,6.10688e-17,650.868,2349.31)">
                <path d="M1227.44,354.014L1330,413.228L1330,531.654L1227.44,590.867L1124.88,531.654L1124.88,413.228L1227.44,354.014Z" style="fill:rgb(195,186,158);stroke:rgb(87,34,34);stroke-width:10.44px;"/>
            </g>
            <g transform="matrix(6.10688e-17,-0.99733,0.99733,6.10688e-17,828.033,2451.6)">
                <path d="M1227.44,354.014L1330,413.228L1330,531.654L1227.44,590.867L1124.88,531.654L1124.88,413.228L1227.44,354.014Z" style="fill:rgb(195,186,158);stroke:rgb(87,34,34);stroke-width:10.44px;"/>
            </g>
            <g transform="matrix(6.10688e-17,-0.99733,0.99733,6.10688e-17,1005.2,2349.31)">
                <path d="M1227.44,354.014L1330,413.228L1330,531.654L1227.44,590.867L1124.88,531.654L1124.88,413.228L1227.44,354.014Z" style="fill:rgb(195,186,158);stroke:rgb(87,34,34);stroke-width:10.44px;"/>
            </g>
            <g transform="matrix(6.10688e-17,-0.99733,0.99733,6.10688e-17,1359.53,1735.59)">
                <path d="M1227.44,354.014L1330,413.228L1330,531.654L1227.44,590.867L1124.88,531.654L1124.88,413.228L1227.44,354.014Z" style="fill:rgb(195,186,158);stroke:rgb(87,34,34);stroke-width:10.44px;"/>
            </g>
            <g transform="matrix(2.48085e-17,-0.405153,0.405153,2.48085e-17,1639.3,1008.73)">
                <path d="M1227.44,354.014L1330,413.228L1330,531.654L1227.44,590.867L1124.88,531.654L1124.88,413.228L1227.44,354.014Z" style="fill:rgb(177,188,31);stroke:rgb(87,34,34);stroke-width:25.71px;"/>
            </g>
            <g transform="matrix(6.10688e-17,-0.99733,0.99733,6.10688e-17,1005.2,2144.74)">
                <path d="M1227.44,354.014L1330,413.228L1330,531.654L1227.44,590.867L1124.88,531.654L1124.88,413.228L1227.44,354.014Z" style="fill:rgb(195,186,158);stroke:rgb(87,34,34);stroke-width:10.44px;"/>
            </g>
            <g transform="matrix(6.10688e-17,-0.99733,0.99733,6.10688e-17,1005.2,1940.17)">
                <path d="M1227.44,354.014L1330,413.228L1330,531.654L1227.44,590.867L1124.88,531.654L1124.88,413.228L1227.44,354.014Z" style="fill:rgb(195,186,158);stroke:rgb(87,34,34);stroke-width:10.44px;"/>
            </g>
            <g transform="matrix(6.10688e-17,-0.99733,0.99733,6.10688e-17,828.033,1837.88)">
                <path d="M1227.44,354.014L1330,413.228L1330,531.654L1227.44,590.867L1124.88,531.654L1124.88,413.228L1227.44,354.014Z" style="fill:rgb(195,186,158);stroke:rgb(87,34,34);stroke-width:10.44px;"/>
            </g>
            <g transform="matrix(6.10688e-17,-0.99733,0.99733,6.10688e-17,650.868,1940.17)">
                <path d="M1227.44,354.014L1330,413.228L1330,531.654L1227.44,590.867L1124.88,531.654L1124.88,413.228L1227.44,354.014Z" style="fill:rgb(195,186,158);stroke:rgb(87,34,34);stroke-width:10.44px;"/>
            </g>
            <g transform="matrix(6.10688e-17,-0.99733,0.99733,6.10688e-17,473.702,2042.45)">
                <path d="M1227.44,354.014L1330,413.228L1330,531.654L1227.44,590.867L1124.88,531.654L1124.88,413.228L1227.44,354.014Z" style="fill:rgb(195,186,158);stroke:rgb(87,34,34);stroke-width:10.44px;"/>
            </g>
            <g transform="matrix(6.10688e-17,-0.99733,0.99733,6.10688e-17,473.702,2247.02)">
                <path d="M1227.44,354.014L1330,413.228L1330,531.654L1227.44,590.867L1124.88,531.654L1124.88,413.228L1227.44,354.014Z" style="fill:rgb(195,186,158);stroke:rgb(87,34,34);stroke-width:10.44px;"/>
            </g>
            <g transform="matrix(6.10688e-17,-0.99733,0.99733,6.10688e-17,473.702,2451.6)">
                <path d="M1227.44,354.014L1330,413.228L1330,531.654L1227.44,590.867L1124.88,531.654L1124.88,413.228L1227.44,354.014Z" style="fill:rgb(195,186,158);stroke:rgb(87,34,34);stroke-width:10.44px;"/>
            </g>
            <g transform="matrix(6.10688e-17,-0.99733,0.99733,6.10688e-17,650.868,2553.88)">
                <path d="M1227.44,354.014L1330,413.228L1330,531.654L1227.44,590.867L1124.88,531.654L1124.88,413.228L1227.44,354.014Z" style="fill:rgb(195,186,158);stroke:rgb(87,34,34);stroke-width:10.44px;"/>
            </g>
            <g transform="matrix(6.10688e-17,-0.99733,0.99733,6.10688e-17,828.033,2656.17)">
                <path d="M1227.44,354.014L1330,413.228L1330,531.654L1227.44,590.867L1124.88,531.654L1124.88,413.228L1227.44,354.014Z" style="fill:rgb(195,186,158);stroke:rgb(87,34,34);stroke-width:10.44px;"/>
            </g>
            <g transform="matrix(6.10688e-17,-0.99733,0.99733,6.10688e-17,1005.2,2553.88)">
                <path d="M1227.44,354.014L1330,413.228L1330,531.654L1227.44,590.867L1124.88,531.654L1124.88,413.228L1227.44,354.014Z" style="fill:rgb(195,186,158);stroke:rgb(87,34,34);stroke-width:10.44px;"/>
            </g>
            <g transform="matrix(6.10688e-17,-0.99733,0.99733,6.10688e-17,1182.36,2451.6)">
                <path d="M1227.44,354.014L1330,413.228L1330,531.654L1227.44,590.867L1124.88,531.654L1124.88,413.228L1227.44,354.014Z" style="fill:rgb(195,186,158);stroke:rgb(87,34,34);stroke-width:10.44px;"/>
            </g>
            <g transform="matrix(6.10688e-17,-0.99733,0.99733,6.10688e-17,1182.36,2247.02)">
                <path d="M1227.44,354.014L1330,413.228L1330,531.654L1227.44,590.867L1124.88,531.654L1124.88,413.228L1227.44,354.014Z" style="fill:rgb(195,186,158);stroke:rgb(87,34,34);stroke-width:10.44px;"/>
            </g>
            <g transform="matrix(6.10688e-17,-0.99733,0.99733,6.10688e-17,1182.36,2042.45)">
                <path d="M1227.44,354.014L1330,413.228L1330,531.654L1227.44,590.867L1124.88,531.654L1124.88,413.228L1227.44,354.014Z" style="fill:rgb(195,186,158);stroke:rgb(87,34,34);stroke-width:10.44px;"/>
            </g>
            <g transform="matrix(1,0,0,1,-3.45133,1.48472)">
                <text x="1668.57px" y="577.208px" style="font-family:'ArialMT', 'Arial', sans-serif;font-size:33.333px;fill:rgb(45,36,50);">9,10</text>
            </g>
            <g transform="matrix(1,0,0,1,26.6237,-109.159)">
                <text x="1676.71px" y="577.208px" style="font-family:'ArialMT', 'Arial', sans-serif;font-size:33.333px;fill:rgb(45,36,50);">7</text>
            </g>
            <g transform="matrix(1,0,0,1,262.844,1.48472)">
                <text x="1677.84px" y="577.208px" style="font-family:'ArialMT', 'Arial', sans-serif;font-size:33.333px;fill:rgb(45,36,50);">3,4</text>
            </g>
            <g transform="matrix(1,0,0,1,262.844,-109.159)">
                <text x="1676.71px" y="577.208px" style="font-family:'ArialMT', 'Arial', sans-serif;font-size:33.333px;fill:rgb(45,36,50);">8</text>
            </g>
            <g transform="matrix(1,0,0,1,129.696,69.3678)">
                <text x="1677.84px" y="577.208px" style="font-family:'ArialMT', 'Arial', sans-serif;font-size:33.333px;fill:rgb(45,36,50);">5,6</text>
            </g>
            <g transform="matrix(1,0,0,1,129.696,-177.042)">
                <text x="1668.57px" y="577.208px" style="font-family:'ArialMT', 'Arial', sans-serif;font-size:33.333px;fill:rgb(45,36,50);">2,12</text>
            </g>
            <text x="1813.41px" y="523.371px" style="font-family:'ArialMT', 'Arial', sans-serif;font-size:33.333px;fill:rgb(45,36,50);">1<tspan x="1829.47px " y="523.371px ">1</tspan></text>
        </g>
    </g>
</svg>
