<?xml version="1.0" encoding="UTF-8" standalone="no"?>
<!DOCTYPE svg PUBLIC "-//W3C//DTD SVG 1.1//EN" "http://www.w3.org/Graphics/SVG/1.1/DTD/svg11.dtd">
<svg width="100%" height="100%" viewBox="0 0 945 1428" version="1.1" xmlns="http://www.w3.org/2000/svg" xmlns:xlink="http://www.w3.org/1999/xlink" xml:space="preserve" xmlns:serif="http://www.serif.com/" style="fill-rule:evenodd;clip-rule:evenodd;stroke-linecap:round;stroke-linejoin:round;stroke-miterlimit:1.5;">
    <g transform="matrix(1,0,0,1,-1181,-1181)">
        <g>
            <g>
                <circle cx="1532.88" cy="2480.32" r="118.11" style="fill:rgb(235,235,235);"/>
                <circle cx="1535.43" cy="2007.87" r="118.11" style="fill:rgb(235,235,235);"/>
                <circle cx="2007.87" cy="2007.87" r="118.11" style="fill:rgb(235,235,235);"/>
                <circle cx="1771.65" cy="1653.54" r="118.11" style="fill:rgb(235,235,235);"/>
                <circle cx="1299.21" cy="1653.54" r="118.11" style="fill:rgb(235,235,235);"/>
                <circle cx="1535.43" cy="1299.21" r="118.11" style="fill:rgb(235,235,235);"/>
                <path d="M1535.43,2362.2L1535.43,2125.98" style="fill:none;stroke:rgb(235,235,235);stroke-width:20.83px;"/>
                <path d="M1653.54,2007.87L1889.76,2007.87" style="fill:none;stroke:rgb(235,235,235);stroke-width:20.83px;"/>
                <path d="M1370.08,1748.03L1464.57,1913.39" style="fill:none;stroke:rgb(235,235,235);stroke-width:20.83px;"/>
                <path d="M1842.52,1748.03L1937.01,1913.39" style="fill:none;stroke:rgb(235,235,235);stroke-width:20.83px;"/>
                <path d="M1653.54,1653.54L1417.32,1653.54" style="fill:none;stroke:rgb(235,235,235);stroke-width:20.83px;"/>
                <path d="M1464.57,1393.7L1370.08,1559.06" style="fill:none;stroke:rgb(235,235,235);stroke-width:20.83px;"/>
            </g>
            <g transform="matrix(1,0,0,1,-51.9685,-16.5354)">
                <circle cx="1618.11" cy="1429.13" r="11.811" style="fill:white;stroke:rgb(235,235,235);stroke-width:4.17px;"/>
            </g>
            <g transform="matrix(1,0,0,1,415.748,692.126)">
                <circle cx="1618.11" cy="1429.13" r="11.811" style="fill:white;stroke:rgb(235,235,235);stroke-width:4.17px;"/>
            </g>
            <g transform="matrix(1,0,0,1,-49.6063,689.764)">
                <circle cx="1618.11" cy="1429.13" r="11.811" style="fill:rgb(53,53,53);stroke:rgb(235,235,235);stroke-width:4.17px;"/>
            </g>
            <g transform="matrix(-1,0,0,1,2892.52,337.795)">
                <circle cx="1618.11" cy="1429.13" r="11.811" style="fill:white;stroke:rgb(235,235,235);stroke-width:4.17px;"/>
            </g>
            <g transform="matrix(-1,0,0,1,3366.14,338.976)">
                <circle cx="1618.11" cy="1429.13" r="11.811" style="fill:rgb(53,53,53);stroke:rgb(235,235,235);stroke-width:4.17px;"/>
            </g>
            <g transform="matrix(1,0,0,1,-59.0551,1165.75)">
                <circle cx="1618.11" cy="1429.13" r="11.811" style="fill:rgb(53,53,53);stroke:rgb(235,235,235);stroke-width:4.17px;"/>
            </g>
            <g transform="matrix(1,0,0,1,-23.622,-25.9843)">
                <circle cx="1618.11" cy="1429.13" r="11.811" style="fill:white;stroke:rgb(235,235,235);stroke-width:4.17px;"/>
            </g>
            <g transform="matrix(1,0,0,1,444.094,682.677)">
                <circle cx="1618.11" cy="1429.13" r="11.811" style="fill:white;stroke:rgb(235,235,235);stroke-width:4.17px;"/>
            </g>
            <g transform="matrix(1,0,0,1,-21.2598,680.315)">
                <circle cx="1618.11" cy="1429.13" r="11.811" style="fill:white;stroke:rgb(235,235,235);stroke-width:4.17px;"/>
            </g>
            <g transform="matrix(-1,0,0,1,2864.17,328.346)">
                <circle cx="1618.11" cy="1429.13" r="11.811" style="fill:white;stroke:rgb(235,235,235);stroke-width:4.17px;"/>
            </g>
            <g transform="matrix(-1,0,0,1,3337.8,329.528)">
                <circle cx="1618.11" cy="1429.13" r="11.811" style="fill:rgb(53,53,53);stroke:rgb(235,235,235);stroke-width:4.17px;"/>
            </g>
            <g transform="matrix(1,0,0,1,-30.7087,1156.3)">
                <circle cx="1618.11" cy="1429.13" r="11.811" style="fill:white;stroke:rgb(235,235,235);stroke-width:4.17px;"/>
            </g>
            <g transform="matrix(1,0,0,1,-2.27374e-13,-44.8819)">
                <circle cx="1618.11" cy="1429.13" r="11.811" style="fill:white;stroke:rgb(235,235,235);stroke-width:4.17px;"/>
            </g>
            <g transform="matrix(1,0,0,1,2.3622,661.417)">
                <circle cx="1618.11" cy="1429.13" r="11.811" style="fill:white;stroke:rgb(235,235,235);stroke-width:4.17px;"/>
            </g>
            <g transform="matrix(-1,0,0,1,3314.17,310.63)">
                <circle cx="1618.11" cy="1429.13" r="11.811" style="fill:white;stroke:rgb(235,235,235);stroke-width:4.17px;"/>
            </g>
            <g>
                <text x="1464.57px" y="2439.3px" style="font-family:'ArialMT', 'Arial', sans-serif;font-size:41.667px;">The</text>
                <text x="1464.57px" y="2482.33px" style="font-family:'ArialMT', 'Arial', sans-serif;font-size:41.667px;">New</text>
                <text x="1464.57px" y="2525.36px" style="font-family:'ArialMT', 'Arial', sans-serif;font-size:41.667px;">Colony</text>
            </g>
            <g transform="matrix(1,0,0,1,0,-472.441)">
                <text x="1464.57px" y="2439.3px" style="font-family:'ArialMT', 'Arial', sans-serif;font-size:41.667px;">The</text>
                <text x="1464.57px" y="2482.33px" style="font-family:'ArialMT', 'Arial', sans-serif;font-size:41.667px;">Quiet</text>
                <text x="1464.57px" y="2525.36px" style="font-family:'ArialMT', 'Arial', sans-serif;font-size:41.667px;">W<tspan x="1503.14px 1526.31px " y="2525.36px 2525.36px ">oo</tspan>ds</text>
            </g>
            <g transform="matrix(1,0,0,1,236.22,-826.772)">
                <text x="1464.57px" y="2439.3px" style="font-family:'ArialMT', 'Arial', sans-serif;font-size:41.667px;">The</text>
                <text x="1464.57px" y="2482.33px" style="font-family:'ArialMT', 'Arial', sans-serif;font-size:41.667px;">Ruined</text>
                <text x="1464.57px" y="2525.36px" style="font-family:'ArialMT', 'Arial', sans-serif;font-size:41.667px;">City</text>
            </g>
            <g transform="matrix(1,0,0,1,-236.22,-828.781)">
                <text x="1464.57px" y="2439.3px" style="font-family:'ArialMT', 'Arial', sans-serif;font-size:41.667px;">The</text>
                <text x="1464.57px" y="2482.33px" style="font-family:'ArialMT', 'Arial', sans-serif;font-size:41.667px;">Dark</text>
                <text x="1464.57px" y="2525.36px" style="font-family:'ArialMT', 'Arial', sans-serif;font-size:41.667px;">Caves</text>
            </g>
            <g transform="matrix(1,0,0,1,0,-1181.1)">
                <text x="1464.57px" y="2439.3px" style="font-family:'ArialMT', 'Arial', sans-serif;font-size:41.667px;">The</text>
                <text x="1464.57px" y="2482.33px" style="font-family:'ArialMT', 'Arial', sans-serif;font-size:41.667px;">T<tspan x="1485.4px 1508.57px " y="2482.33px 2482.33px ">ox</tspan>ic</text>
                <text x="1464.57px" y="2525.36px" style="font-family:'ArialMT', 'Arial', sans-serif;font-size:41.667px;">W<tspan x="1502.35px 1525.52px " y="2525.36px 2525.36px ">as</tspan>tes</text>
            </g>
            <g transform="matrix(1,0,0,1,472.441,-472.441)">
                <text x="1464.57px" y="2439.3px" style="font-family:'ArialMT', 'Arial', sans-serif;font-size:41.667px;">The</text>
                <text x="1464.57px" y="2482.33px" style="font-family:'ArialMT', 'Arial', sans-serif;font-size:41.667px;">Flooded</text>
                <text x="1464.57px" y="2525.36px" style="font-family:'ArialMT', 'Arial', sans-serif;font-size:41.667px;">River</text>
            </g>
            <g transform="matrix(1,0,0,1,-7.08661,1137.4)">
                <circle cx="1618.11" cy="1429.13" r="11.811" style="fill:white;stroke:rgb(235,235,235);stroke-width:4.17px;"/>
            </g>
        </g>
    </g>
</svg>
