<?xml version="1.0" encoding="UTF-8" standalone="no"?>
<!DOCTYPE svg PUBLIC "-//W3C//DTD SVG 1.1//EN" "http://www.w3.org/Graphics/SVG/1.1/DTD/svg11.dtd">
<svg width="100%" height="100%" viewBox="0 0 1142 1232" version="1.1" xmlns="http://www.w3.org/2000/svg" xmlns:xlink="http://www.w3.org/1999/xlink" xml:space="preserve" xmlns:serif="http://www.serif.com/" style="fill-rule:evenodd;clip-rule:evenodd;stroke-linecap:square;stroke-miterlimit:1.5;">
    <g transform="matrix(1,0,0,1,-817,-373)">
        <g id="Weather">
            <g id="Weather-Hexflower" serif:id="Weather Hexflower">
                <g transform="matrix(6.10688e-17,-0.99733,0.99733,6.10688e-17,828.033,2247.02)">
                    <path d="M1227.44,354.014L1330,413.228L1330,531.654L1227.44,590.867L1124.88,531.654L1124.88,413.228L1227.44,354.014Z" style="fill:rgb(177,188,31);stroke:rgb(87,34,34);stroke-width:10.44px;"/>
                </g>
                <g transform="matrix(6.10688e-17,-0.99733,0.99733,6.10688e-17,828.033,2042.45)">
                    <path d="M1227.44,354.014L1330,413.228L1330,531.654L1227.44,590.867L1124.88,531.654L1124.88,413.228L1227.44,354.014Z" style="fill:rgb(195,186,158);stroke:rgb(87,34,34);stroke-width:10.44px;"/>
                </g>
                <g transform="matrix(6.10688e-17,-0.99733,0.99733,6.10688e-17,650.868,2144.74)">
                    <path d="M1227.44,354.014L1330,413.228L1330,531.654L1227.44,590.867L1124.88,531.654L1124.88,413.228L1227.44,354.014Z" style="fill:rgb(195,186,158);stroke:rgb(87,34,34);stroke-width:10.44px;"/>
                </g>
                <g transform="matrix(6.10688e-17,-0.99733,0.99733,6.10688e-17,650.868,2349.31)">
                    <path d="M1227.44,354.014L1330,413.228L1330,531.654L1227.44,590.867L1124.88,531.654L1124.88,413.228L1227.44,354.014Z" style="fill:rgb(195,186,158);stroke:rgb(87,34,34);stroke-width:10.44px;"/>
                </g>
                <g transform="matrix(6.10688e-17,-0.99733,0.99733,6.10688e-17,828.033,2451.6)">
                    <path d="M1227.44,354.014L1330,413.228L1330,531.654L1227.44,590.867L1124.88,531.654L1124.88,413.228L1227.44,354.014Z" style="fill:rgb(195,186,158);stroke:rgb(87,34,34);stroke-width:10.44px;"/>
                </g>
                <g transform="matrix(5.45713e-17,-0.891217,0.891217,5.45713e-17,878.165,2321.35)">
                    <path d="M1227.44,354.014L1330,413.228L1330,531.654L1227.44,590.867L1124.88,531.654L1124.88,413.228L1227.44,354.014Z" style="fill:rgb(195,186,158);stroke:rgb(87,34,34);stroke-width:4.68px;"/>
                </g>
                <g transform="matrix(6.10688e-17,-0.99733,0.99733,6.10688e-17,1005.2,2349.31)">
                    <path d="M1227.44,354.014L1330,413.228L1330,531.654L1227.44,590.867L1124.88,531.654L1124.88,413.228L1227.44,354.014Z" style="fill:rgb(195,186,158);stroke:rgb(87,34,34);stroke-width:10.44px;"/>
                </g>
                <g transform="matrix(6.10688e-17,-0.99733,0.99733,6.10688e-17,1005.2,2144.74)">
                    <path d="M1227.44,354.014L1330,413.228L1330,531.654L1227.44,590.867L1124.88,531.654L1124.88,413.228L1227.44,354.014Z" style="fill:rgb(195,186,158);stroke:rgb(87,34,34);stroke-width:10.44px;"/>
                </g>
                <g transform="matrix(6.10688e-17,-0.99733,0.99733,6.10688e-17,1005.2,1940.17)">
                    <path d="M1227.44,354.014L1330,413.228L1330,531.654L1227.44,590.867L1124.88,531.654L1124.88,413.228L1227.44,354.014Z" style="fill:rgb(195,186,158);stroke:rgb(87,34,34);stroke-width:10.44px;"/>
                </g>
                <g transform="matrix(6.10688e-17,-0.99733,0.99733,6.10688e-17,828.033,1837.88)">
                    <path d="M1227.44,354.014L1330,413.228L1330,531.654L1227.44,590.867L1124.88,531.654L1124.88,413.228L1227.44,354.014Z" style="fill:rgb(177,188,31);stroke:rgb(87,34,34);stroke-width:10.44px;"/>
                </g>
                <g transform="matrix(6.10688e-17,-0.99733,0.99733,6.10688e-17,650.868,1940.17)">
                    <path d="M1227.44,354.014L1330,413.228L1330,531.654L1227.44,590.867L1124.88,531.654L1124.88,413.228L1227.44,354.014Z" style="fill:rgb(195,186,158);stroke:rgb(87,34,34);stroke-width:10.44px;"/>
                </g>
                <g transform="matrix(6.10688e-17,-0.99733,0.99733,6.10688e-17,473.702,2042.45)">
                    <path d="M1227.44,354.014L1330,413.228L1330,531.654L1227.44,590.867L1124.88,531.654L1124.88,413.228L1227.44,354.014Z" style="fill:rgb(177,188,31);stroke:rgb(87,34,34);stroke-width:10.44px;"/>
                </g>
                <g transform="matrix(6.10688e-17,-0.99733,0.99733,6.10688e-17,473.702,2247.02)">
                    <path d="M1227.44,354.014L1330,413.228L1330,531.654L1227.44,590.867L1124.88,531.654L1124.88,413.228L1227.44,354.014Z" style="fill:rgb(195,186,158);stroke:rgb(87,34,34);stroke-width:10.44px;"/>
                </g>
                <g transform="matrix(6.10688e-17,-0.99733,0.99733,6.10688e-17,473.702,2451.6)">
                    <path d="M1227.44,354.014L1330,413.228L1330,531.654L1227.44,590.867L1124.88,531.654L1124.88,413.228L1227.44,354.014Z" style="fill:rgb(195,186,158);stroke:rgb(87,34,34);stroke-width:10.44px;"/>
                </g>
                <g transform="matrix(6.10688e-17,-0.99733,0.99733,6.10688e-17,650.868,2553.88)">
                    <path d="M1227.44,354.014L1330,413.228L1330,531.654L1227.44,590.867L1124.88,531.654L1124.88,413.228L1227.44,354.014Z" style="fill:rgb(195,186,158);stroke:rgb(87,34,34);stroke-width:10.44px;"/>
                </g>
                <g transform="matrix(6.10688e-17,-0.99733,0.99733,6.10688e-17,828.033,2656.17)">
                    <path d="M1227.44,354.014L1330,413.228L1330,531.654L1227.44,590.867L1124.88,531.654L1124.88,413.228L1227.44,354.014Z" style="fill:rgb(195,186,158);stroke:rgb(87,34,34);stroke-width:10.44px;"/>
                </g>
                <g transform="matrix(6.10688e-17,-0.99733,0.99733,6.10688e-17,1005.2,2553.88)">
                    <path d="M1227.44,354.014L1330,413.228L1330,531.654L1227.44,590.867L1124.88,531.654L1124.88,413.228L1227.44,354.014Z" style="fill:rgb(195,186,158);stroke:rgb(87,34,34);stroke-width:10.44px;"/>
                </g>
                <g transform="matrix(6.10688e-17,-0.99733,0.99733,6.10688e-17,1182.36,2451.6)">
                    <path d="M1227.44,354.014L1330,413.228L1330,531.654L1227.44,590.867L1124.88,531.654L1124.88,413.228L1227.44,354.014Z" style="fill:rgb(195,186,158);stroke:rgb(87,34,34);stroke-width:10.44px;"/>
                </g>
                <g transform="matrix(6.10688e-17,-0.99733,0.99733,6.10688e-17,1182.36,2247.02)">
                    <path d="M1227.44,354.014L1330,413.228L1330,531.654L1227.44,590.867L1124.88,531.654L1124.88,413.228L1227.44,354.014Z" style="fill:rgb(195,186,158);stroke:rgb(87,34,34);stroke-width:10.44px;"/>
                </g>
                <g transform="matrix(6.10688e-17,-0.99733,0.99733,6.10688e-17,1182.36,2042.45)">
                    <path d="M1227.44,354.014L1330,413.228L1330,531.654L1227.44,590.867L1124.88,531.654L1124.88,413.228L1227.44,354.014Z" style="fill:rgb(177,188,31);stroke:rgb(87,34,34);stroke-width:10.44px;"/>
                </g>
            </g>
            <g id="Extreme-Weather-Hexes" serif:id="Extreme Weather Hexes">
                <g transform="matrix(6.10688e-17,-0.99733,0.99733,6.10688e-17,828.033,2042.45)">
                    <path d="M1227.44,354.014L1330,413.228L1330,531.654L1227.44,590.867L1124.88,531.654L1124.88,413.228L1227.44,354.014Z" style="fill:rgb(87,104,65);stroke:rgb(87,34,34);stroke-width:10.44px;"/>
                </g>
                <g transform="matrix(6.10688e-17,-0.99733,0.99733,6.10688e-17,1005.2,1940.17)">
                    <path d="M1227.44,354.014L1330,413.228L1330,531.654L1227.44,590.867L1124.88,531.654L1124.88,413.228L1227.44,354.014Z" style="fill:rgb(87,104,65);stroke:rgb(87,34,34);stroke-width:10.44px;"/>
                </g>
                <g transform="matrix(6.10688e-17,-0.99733,0.99733,6.10688e-17,650.868,1940.17)">
                    <path d="M1227.44,354.014L1330,413.228L1330,531.654L1227.44,590.867L1124.88,531.654L1124.88,413.228L1227.44,354.014Z" style="fill:rgb(87,104,65);stroke:rgb(87,34,34);stroke-width:10.44px;"/>
                </g>
            </g>
            <g id="Summer-Labels" serif:id="Summer Labels">
                <text x="1225.1px" y="625.657px" style="font-family:'ArialMT', 'Arial', sans-serif;font-size:33.333px;fill:rgb(45,36,50);">Heatwave</text>
                <g>
                    <text x="1240.83px" y="1017.59px" style="font-family:'ArialMT', 'Arial', sans-serif;font-size:33.333px;fill:rgb(45,36,50);">Change</text>
                    <text x="1242.69px" y="1052.02px" style="font-family:'ArialMT', 'Arial', sans-serif;font-size:33.333px;fill:rgb(45,36,50);">Season</text>
                </g>
                <g>
                    <text x="1619.27px" y="813.018px" style="font-family:'ArialMT', 'Arial', sans-serif;font-size:33.333px;fill:rgb(45,36,50);">Rain</text>
                    <text x="1609.09px" y="847.442px" style="font-family:'ArialMT', 'Arial', sans-serif;font-size:33.333px;fill:rgb(45,36,50);">Storm</text>
                </g>
                <g>
                    <text x="882.805px" y="813.018px" style="font-family:'ArialMT', 'Arial', sans-serif;font-size:33.333px;fill:rgb(45,36,50);">Thunder</text>
                    <text x="900.432px" y="847.442px" style="font-family:'ArialMT', 'Arial', sans-serif;font-size:33.333px;fill:rgb(45,36,50);">Storm</text>
                </g>
                <text x="1242.38px" y="829.191px" style="font-family:'ArialMT', 'Arial', sans-serif;font-size:33.333px;fill:rgb(45,36,50);">Sizzling</text>
                <g transform="matrix(1,0,0,1,-1.63949,0)">
                    <text x="1052.41px" y="727.944px" style="font-family:'ArialMT', 'Arial', sans-serif;font-size:33.333px;fill:rgb(45,36,50);">Scorching</text>
                </g>
                <g transform="matrix(1,0,0,1,-20.5432,0)">
                    <text x="1417.47px" y="727.944px" style="font-family:'ArialMT', 'Arial', sans-serif;font-size:33.333px;fill:rgb(45,36,50);">Sweltering</text>
                </g>
                <text x="1605.38px" y="1034.8px" style="font-family:'ArialMT', 'Arial', sans-serif;font-size:33.333px;fill:rgb(45,36,50);">Humid</text>
                <text x="1603.52px" y="1239.38px" style="font-family:'ArialMT', 'Arial', sans-serif;font-size:33.333px;fill:rgb(45,36,50);">Muggy</text>
                <text x="906.91px" y="1034.8px" style="font-family:'ArialMT', 'Arial', sans-serif;font-size:33.333px;fill:rgb(45,36,50);">Hazy</text>
                <text x="897.624px" y="1239.38px" style="font-family:'ArialMT', 'Arial', sans-serif;font-size:33.333px;fill:rgb(45,36,50);">Sunny</text>
                <text x="1430.07px" y="932.517px" style="font-family:'ArialMT', 'Arial', sans-serif;font-size:33.333px;fill:rgb(45,36,50);">Windy</text>
                <g transform="matrix(1,0,0,1,-1.63949,210.252)">
                    <text x="1096.13px" y="932.517px" style="font-family:'ArialMT', 'Arial', sans-serif;font-size:33.333px;fill:rgb(45,36,50);">Dry</text>
                </g>
                <text x="1252.91px" y="1239.38px" style="font-family:'ArialMT', 'Arial', sans-serif;font-size:33.333px;fill:rgb(45,36,50);">Balmy</text>
                <g transform="matrix(1,0,0,1,0,-744.452)">
                    <text x="1252.91px" y="1216.68px" style="font-family:'ArialMT', 'Arial', sans-serif;font-size:33.333px;fill:rgb(45,36,50);">Balmy</text>
                </g>
                <g transform="matrix(1,0,0,1,352.691,2.83968)">
                    <text x="1083.86px" y="1341.66px" style="font-family:'ArialMT', 'Arial', sans-serif;font-size:33.333px;fill:rgb(45,36,50);">Clear</text>
                </g>
                <g transform="matrix(1,0,0,1,1.63949,-201.733)">
                    <text x="1096.11px" y="1134.25px" style="font-family:'ArialMT', 'Arial', sans-serif;font-size:33.333px;fill:rgb(45,36,50);">Hot</text>
                </g>
                <text x="1075.23px" y="1341.66px" style="font-family:'ArialMT', 'Arial', sans-serif;font-size:33.333px;fill:rgb(45,36,50);">Bright</text>
                <g transform="matrix(1,0,0,1,-180.664,307.24)">
                    <text x="1427.79px" y="1137.09px" style="font-family:'ArialMT', 'Arial', sans-serif;font-size:33.333px;fill:rgb(45,36,50);">Breezy</text>
                </g>
                <text x="1433.78px" y="1137.09px" style="font-family:'ArialMT', 'Arial', sans-serif;font-size:33.333px;fill:rgb(45,36,50);">Sultry</text>
                <g transform="matrix(1,0,0,1,0,380.699)">
                    <text x="1241.78px" y="1216.68px" style="font-family:'ArialMT', 'Arial', sans-serif;font-size:33.333px;fill:rgb(45,36,50);">Sizzling</text>
                </g>
            </g>
            <g id="Weather-Navigation" serif:id="Weather Navigation">
                <g transform="matrix(1.08881,8.90661e-16,8.89674e-16,0.288675,-115.388,363.795)">
                    <g transform="matrix(0.918431,-2.83367e-15,-2.83053e-15,3.4641,856.334,31.8887)">
                        <path d="M470.494,124.53L482.213,108.905L493.931,124.53L470.494,124.53Z" style="fill:rgb(45,36,50);"/>
                        <path d="M482.213,167.96L482.213,121.405" style="fill:none;stroke:rgb(45,36,50);stroke-width:10.42px;"/>
                    </g>
                </g>
                <g transform="matrix(1,-0,-0,1,817,373)">
                    <path d="M316.738,254.611L305.033,270.246L293.3,254.632L316.738,254.611Z" style="fill:rgb(45,36,50);"/>
                    <path d="M419.202,204.339C367.55,173.262 309.079,202.823 305.022,257.746" style="fill:none;stroke:rgb(45,36,50);stroke-width:10.42px;"/>
                </g>
                <g transform="matrix(-1,0,0,1,2598.42,0)">
                    <g transform="matrix(-1,0,0,1,1781.42,373)">
                        <path d="M671.118,254.632L659.385,270.246L647.68,254.611L671.118,254.632Z" style="fill:rgb(45,36,50);"/>
                        <path d="M545.216,204.339C596.868,173.262 655.339,202.823 659.396,257.746" style="fill:none;stroke:rgb(45,36,50);stroke-width:10.42px;"/>
                    </g>
                </g>
                <g transform="matrix(-1.56918,-6.98492e-16,-1.31753e-15,-0.288675,3337.91,1681.93)">
                    <g transform="matrix(-0.637277,1.54199e-15,2.90857e-15,-3.4641,1606.52,4534.28)">
                        <path d="M493.931,1175.2L482.213,1190.83L470.494,1175.2L493.931,1175.2Z" style="fill:rgb(45,36,50);"/>
                        <path d="M482.213,1131.77L482.213,1178.33" style="fill:none;stroke:rgb(45,36,50);stroke-width:10.42px;"/>
                    </g>
                </g>
            </g>
            <g id="Navigation-Hex" serif:id="Navigation Hex">
                <g transform="matrix(6.10688e-17,-0.99733,0.99733,6.10688e-17,1359.53,1735.59)">
                    <path d="M1227.44,354.014L1330,413.228L1330,531.654L1227.44,590.867L1124.88,531.654L1124.88,413.228L1227.44,354.014Z" style="fill:rgb(195,186,158);stroke:rgb(87,34,34);stroke-width:10.44px;"/>
                </g>
                <g transform="matrix(1,0,0,1,26.6237,1.48472)">
                    <text x="1676.71px" y="577.208px" style="font-family:'ArialMT', 'Arial', sans-serif;font-size:33.333px;fill:rgb(45,36,50);">2</text>
                </g>
                <g transform="matrix(1,0,0,1,34.3263,-122.501)">
                    <text x="1676.71px" y="577.208px" style="font-family:'ArialMT', 'Arial', sans-serif;font-size:33.333px;fill:rgb(45,36,50);">5</text>
                </g>
                <g transform="matrix(1,0,0,1,262.844,1.48472)">
                    <text x="1676.71px" y="577.208px" style="font-family:'ArialMT', 'Arial', sans-serif;font-size:33.333px;fill:rgb(45,36,50);">6</text>
                </g>
                <g transform="matrix(1,0,0,1,255.897,-121.192)">
                    <text x="1676.71px" y="577.208px" style="font-family:'ArialMT', 'Arial', sans-serif;font-size:33.333px;fill:rgb(45,36,50);">3</text>
                </g>
                <g transform="matrix(1,0,0,1,129.696,69.3678)">
                    <text x="1691.74px" y="577.208px" style="font-family:'ArialMT', 'Arial', sans-serif;font-size:33.333px;fill:rgb(45,36,50);">4</text>
                </g>
                <g transform="matrix(1,0,0,1,129.696,-180.042)">
                    <text x="1677.84px" y="577.208px" style="font-family:'ArialMT', 'Arial', sans-serif;font-size:33.333px;fill:rgb(45,36,50);">8,1</text>
                </g>
                <text x="1821.44px" y="523.371px" style="font-family:'ArialMT', 'Arial', sans-serif;font-size:33.333px;fill:rgb(45,36,50);">7</text>
            </g>
        </g>
    </g>
</svg>
