<?xml version="1.0" encoding="UTF-8" standalone="no"?><!DOCTYPE svg PUBLIC "-//W3C//DTD SVG 1.1//EN" "http://www.w3.org/Graphics/SVG/1.1/DTD/svg11.dtd"><svg width="100%" height="100%" viewBox="0 0 1296 1334" version="1.1" xmlns="http://www.w3.org/2000/svg" xmlns:xlink="http://www.w3.org/1999/xlink" xml:space="preserve" xmlns:serif="http://www.serif.com/" style="fill-rule:evenodd;clip-rule:evenodd;stroke-linecap:square;stroke-miterlimit:1.5;"><g><g id="Weather-Hexflower" serif:id="Weather Hexflower"><g><path d="M417.102,716.857l59.056,-102.286l118.109,0l59.055,102.286l-59.055,102.286l-118.109,0l-59.056,-102.286Z" style="fill:#b1bc1f;stroke:#572222;stroke-width:10.41px;"/></g><g><path d="M417.102,512.287l59.056,-102.286l118.109,0l59.055,102.286l-59.055,102.286l-118.109,0l-59.056,-102.286Z" style="fill:#546424;stroke:#572222;stroke-width:10.41px;"/></g><g><path d="M239.937,614.577l59.056,-102.286l118.109,0l59.055,102.286l-59.055,102.286l-118.109,0l-59.056,-102.286Z" style="fill:#c3ba9e;stroke:#572222;stroke-width:10.41px;"/></g><g><path d="M239.937,819.147l59.056,-102.286l118.109,0l59.055,102.286l-59.055,102.286l-118.109,0l-59.056,-102.286Z" style="fill:#c3ba9e;stroke:#572222;stroke-width:10.41px;"/></g><g><path d="M417.102,921.437l59.056,-102.286l118.109,0l59.055,102.286l-59.055,102.286l-118.109,0l-59.056,-102.286Z" style="fill:#c3ba9e;stroke:#572222;stroke-width:10.41px;"/></g><path d="M430.424,921.437l52.395,-90.748l104.787,-0l52.394,90.748l-52.394,90.749l-104.787,-0l-52.395,-90.749Z" style="fill:#c3ba9e;stroke:#572222;stroke-width:3px;"/><g><path d="M594.269,819.147l59.056,-102.286l118.109,0l59.055,102.286l-59.055,102.286l-118.109,0l-59.056,-102.286Z" style="fill:#c3ba9e;stroke:#572222;stroke-width:10.41px;"/></g><g><path d="M594.269,614.577l59.056,-102.286l118.109,0l59.055,102.286l-59.055,102.286l-118.109,0l-59.056,-102.286Z" style="fill:#c3ba9e;stroke:#572222;stroke-width:10.41px;"/></g><g><path d="M594.269,410.007l59.056,-102.286l118.109,0l59.055,102.286l-59.055,102.286l-118.109,0l-59.056,-102.286Z" style="fill:#546424;stroke:#572222;stroke-width:10.41px;"/></g><g><path d="M417.102,307.717l59.056,-102.286l118.109,0l59.055,102.286l-59.055,102.286l-118.109,0l-59.056,-102.286Z" style="fill:#b1bc1f;stroke:#572222;stroke-width:10.41px;"/></g><g><path d="M239.937,410.007l59.056,-102.286l118.109,0l59.055,102.286l-59.055,102.286l-118.109,0l-59.056,-102.286Z" style="fill:#546424;stroke:#572222;stroke-width:10.41px;"/></g><g><path d="M62.771,512.287l59.056,-102.286l118.109,0l59.055,102.286l-59.055,102.286l-118.109,0l-59.056,-102.286Z" style="fill:#b1bc1f;stroke:#572222;stroke-width:10.41px;"/></g><g><path d="M62.771,716.857l59.056,-102.286l118.109,0l59.055,102.286l-59.055,102.286l-118.109,0l-59.056,-102.286Z" style="fill:#c3ba9e;stroke:#572222;stroke-width:10.41px;"/></g><g><path d="M62.771,921.437l59.056,-102.286l118.109,0l59.055,102.286l-59.055,102.286l-118.109,0l-59.056,-102.286Z" style="fill:#c3ba9e;stroke:#572222;stroke-width:10.41px;"/></g><g><path d="M239.937,1023.72l59.056,-102.286l118.109,0l59.055,102.286l-59.055,102.286l-118.109,0l-59.056,-102.286Z" style="fill:#c3ba9e;stroke:#572222;stroke-width:10.41px;"/></g><g><path d="M417.102,1126.01l59.056,-102.286l118.109,0l59.055,102.286l-59.055,102.286l-118.109,0l-59.056,-102.286Z" style="fill:#c3ba9e;stroke:#572222;stroke-width:10.41px;"/></g><g><path d="M594.269,1023.72l59.056,-102.286l118.109,0l59.055,102.286l-59.055,102.286l-118.109,0l-59.056,-102.286Z" style="fill:#c3ba9e;stroke:#572222;stroke-width:10.41px;"/></g><g><path d="M771.429,921.437l59.056,-102.286l118.109,0l59.055,102.286l-59.055,102.286l-118.109,0l-59.056,-102.286Z" style="fill:#c3ba9e;stroke:#572222;stroke-width:10.41px;"/></g><g><path d="M771.429,716.857l59.056,-102.286l118.109,0l59.055,102.286l-59.055,102.286l-118.109,0l-59.056,-102.286Z" style="fill:#c3ba9e;stroke:#572222;stroke-width:10.41px;"/></g><g><path d="M771.429,512.287l59.056,-102.286l118.109,0l59.055,102.286l-59.055,102.286l-118.109,0l-59.056,-102.286Z" style="fill:#b1bc1f;stroke:#572222;stroke-width:10.41px;"/></g><g><g><path d="M948.599,205.427l59.056,-102.286l118.109,0l59.055,102.286l-59.055,102.286l-118.109,0l-59.056,-102.286Z" style="fill:#c3ba9e;stroke:#572222;stroke-width:10.41px;"/></g><g><text x="943.22px" y="273.958px" style="font-family:'ArialMT', 'Arial', sans-serif;font-size:33.333px;fill:#2d2432;">2</text></g><g><text x="950.706px" y="153.535px" style="font-family:'ArialMT', 'Arial', sans-serif;font-size:33.333px;fill:#2d2432;">5</text></g><g><text x="1168.75px" y="279.593px" style="font-family:'ArialMT', 'Arial', sans-serif;font-size:33.333px;fill:#2d2432;">6</text></g><g><text x="1162.98px" y="153.958px" style="font-family:'ArialMT', 'Arial', sans-serif;font-size:33.333px;fill:#2d2432;">3</text></g><g><text x="1053.07px" y="341.93px" style="font-family:'ArialMT', 'Arial', sans-serif;font-size:33.333px;fill:#2d2432;">4</text></g><g><text x="1039.78px" y="89.619px" style="font-family:'ArialMT', 'Arial', sans-serif;font-size:33.333px;fill:#2d2432;">8,1</text></g><g><text x="1058.42px" y="213.551px" style="font-family:'ArialMT', 'Arial', sans-serif;font-size:33.333px;fill:#2d2432;">7</text></g></g></g><g id="Winter-Labels" serif:id="Winter Labels"><text x="475.93px" y="319.657px" style="font-family:'ArialMT', 'Arial', sans-serif;font-size:33.333px;fill:#2d2432;">Blizzard</text><g transform="matrix(1,0,0,1,482.502,710)"><text x="-6.026px" y="0px" style="font-family:'ArialMT', 'Arial', sans-serif;font-size:33.333px;fill:#2d2432;">Season</text><text x="-7.882px" y="33.333px" style="font-family:'ArialMT', 'Arial', sans-serif;font-size:33.333px;fill:#2d2432;">Change</text></g><text x="821.01px" y="524.23px" style="font-family:'ArialMT', 'Arial', sans-serif;font-size:33.333px;fill:#2d2432;">Dark Fog</text><text x="116.046px" y="524.23px" style="font-family:'ArialMT', 'Arial', sans-serif;font-size:33.333px;fill:#2d2432;">Ice Slate</text><text x="475.61px" y="523.191px" style="font-family:'ArialMT', 'Arial', sans-serif;font-size:33.333px;fill:#2d2432;">Blustery</text><g><text x="296.041px" y="421.944px" style="font-family:'ArialMT', 'Arial', sans-serif;font-size:33.333px;fill:#2d2432;">Freezing</text></g><g><text x="634.767px" y="421.944px" style="font-family:'ArialMT', 'Arial', sans-serif;font-size:33.333px;fill:#2d2432;">Downpour</text></g><text x="850.66px" y="728.8px" style="font-family:'ArialMT', 'Arial', sans-serif;font-size:33.333px;fill:#2d2432;">Misty</text><text x="822.86px" y="933.38px" style="font-family:'ArialMT', 'Arial', sans-serif;font-size:33.333px;fill:#2d2432;">Overcast</text><text x="134.585px" y="728.8px" style="font-family:'ArialMT', 'Arial', sans-serif;font-size:33.333px;fill:#2d2432;">Frosty</text><text x="146.605px" y="933.38px" style="font-family:'ArialMT', 'Arial', sans-serif;font-size:33.333px;fill:#2d2432;">Cold</text><text x="662.35px" y="626.517px" style="font-family:'ArialMT', 'Arial', sans-serif;font-size:33.333px;fill:#2d2432;">Snowy</text><g><text x="318.421px" y="836.769px" style="font-family:'ArialMT', 'Arial', sans-serif;font-size:33.333px;fill:#2d2432;">Sleet</text></g><text x="494.47px" y="933.38px" style="font-family:'ArialMT', 'Arial', sans-serif;font-size:33.333px;fill:#2d2432;">Chilly</text><g><text x="494.47px" y="166.228px" style="font-family:'ArialMT', 'Arial', sans-serif;font-size:33.333px;fill:#2d2432;">Chilly</text></g><g><text x="662.371px" y="1038.5px" style="font-family:'ArialMT', 'Arial', sans-serif;font-size:33.333px;fill:#2d2432;">Dreary</text></g><g><text x="338.389px" y="626.517px" style="font-family:'ArialMT', 'Arial', sans-serif;font-size:33.333px;fill:#2d2432;">Icy</text></g><text x="315.88px" y="1035.66px" style="font-family:'ArialMT', 'Arial', sans-serif;font-size:33.333px;fill:#2d2432;">Crisp</text><g><text x="497.956px" y="1138.33px" style="font-family:'ArialMT', 'Arial', sans-serif;font-size:33.333px;fill:#2d2432;">Brisk</text></g><text x="678.1px" y="831.09px" style="font-family:'ArialMT', 'Arial', sans-serif;font-size:33.333px;fill:#2d2432;">Rain</text><g><text x="492.59px" y="1291.38px" style="font-family:'ArialMT', 'Arial', sans-serif;font-size:33.333px;fill:#2d2432;">Event</text></g></g><g id="Weather-Navigation" serif:id="Weather Navigation"><g><g><path d="M523.489,191.53l11.719,-15.625l11.718,15.625l-23.437,0Z" style="fill:#2d2432;"/><path d="M535.208,234.96l0,-46.555" style="fill:none;stroke:#2d2432;stroke-width:10.42px;"/></g></g><g><path d="M369.738,321.611l-11.705,15.635l-11.733,-15.614l23.438,-0.021Z" style="fill:#2d2432;"/><path d="M472.202,271.339c-51.652,-31.077 -110.123,-1.516 -114.18,53.407" style="fill:none;stroke:#2d2432;stroke-width:10.42px;"/></g><g><g><path d="M724.118,321.632l-11.733,15.614l-11.705,-15.635l23.438,0.021Z" style="fill:#2d2432;"/><path d="M598.216,271.339c51.652,-31.077 110.123,-1.516 114.18,53.407" style="fill:none;stroke:#2d2432;stroke-width:10.42px;"/></g></g><g><g><path d="M546.932,1242.19l-11.718,15.63l-11.719,-15.63l23.437,0Z" style="fill:#2d2432;"/><path d="M535.214,1198.76l-0,46.56" style="fill:none;stroke:#2d2432;stroke-width:10.42px;"/></g></g></g></g></svg>